%TF.GenerationSoftware,KiCad,Pcbnew,7.0.9*%
%TF.CreationDate,2024-04-29T18:44:07+03:00*%
%TF.ProjectId,Pistol_Camera_Driver,50697374-6f6c-45f4-9361-6d6572615f44,rev?*%
%TF.SameCoordinates,Original*%
%TF.FileFunction,Soldermask,Top*%
%TF.FilePolarity,Negative*%
%FSLAX46Y46*%
G04 Gerber Fmt 4.6, Leading zero omitted, Abs format (unit mm)*
G04 Created by KiCad (PCBNEW 7.0.9) date 2024-04-29 18:44:07*
%MOMM*%
%LPD*%
G01*
G04 APERTURE LIST*
G04 Aperture macros list*
%AMRoundRect*
0 Rectangle with rounded corners*
0 $1 Rounding radius*
0 $2 $3 $4 $5 $6 $7 $8 $9 X,Y pos of 4 corners*
0 Add a 4 corners polygon primitive as box body*
4,1,4,$2,$3,$4,$5,$6,$7,$8,$9,$2,$3,0*
0 Add four circle primitives for the rounded corners*
1,1,$1+$1,$2,$3*
1,1,$1+$1,$4,$5*
1,1,$1+$1,$6,$7*
1,1,$1+$1,$8,$9*
0 Add four rect primitives between the rounded corners*
20,1,$1+$1,$2,$3,$4,$5,0*
20,1,$1+$1,$4,$5,$6,$7,0*
20,1,$1+$1,$6,$7,$8,$9,0*
20,1,$1+$1,$8,$9,$2,$3,0*%
G04 Aperture macros list end*
%ADD10R,1.700000X1.700000*%
%ADD11O,1.700000X1.700000*%
%ADD12RoundRect,0.237500X0.237500X-0.250000X0.237500X0.250000X-0.237500X0.250000X-0.237500X-0.250000X0*%
%ADD13RoundRect,0.237500X-0.300000X-0.237500X0.300000X-0.237500X0.300000X0.237500X-0.300000X0.237500X0*%
%ADD14R,1.500000X2.500000*%
%ADD15R,1.500000X0.400000*%
%ADD16RoundRect,0.237500X-0.237500X0.300000X-0.237500X-0.300000X0.237500X-0.300000X0.237500X0.300000X0*%
%ADD17C,1.400000*%
%ADD18RoundRect,0.237500X0.250000X0.237500X-0.250000X0.237500X-0.250000X-0.237500X0.250000X-0.237500X0*%
%ADD19R,2.710000X3.400000*%
%ADD20RoundRect,0.150000X0.737500X0.150000X-0.737500X0.150000X-0.737500X-0.150000X0.737500X-0.150000X0*%
%ADD21RoundRect,0.237500X0.300000X0.237500X-0.300000X0.237500X-0.300000X-0.237500X0.300000X-0.237500X0*%
%ADD22R,1.600000X1.600000*%
%ADD23C,1.600000*%
%ADD24R,3.700000X1.100000*%
%ADD25C,3.200000*%
%ADD26RoundRect,0.237500X-0.237500X0.250000X-0.237500X-0.250000X0.237500X-0.250000X0.237500X0.250000X0*%
%ADD27RoundRect,0.237500X0.237500X-0.300000X0.237500X0.300000X-0.237500X0.300000X-0.237500X-0.300000X0*%
%ADD28RoundRect,0.237500X-0.250000X-0.237500X0.250000X-0.237500X0.250000X0.237500X-0.250000X0.237500X0*%
%ADD29R,2.500000X1.800000*%
%ADD30R,1.800000X2.500000*%
%ADD31R,2.000000X0.600000*%
%ADD32RoundRect,0.250000X0.650000X-1.000000X0.650000X1.000000X-0.650000X1.000000X-0.650000X-1.000000X0*%
%ADD33R,0.300000X1.550000*%
%ADD34R,7.800000X3.400000*%
%ADD35R,1.000000X1.000000*%
%ADD36O,1.000000X1.000000*%
G04 APERTURE END LIST*
D10*
%TO.C,J8*%
X65600000Y-66600000D03*
D11*
X65600000Y-69140000D03*
%TD*%
D12*
%TO.C,R23*%
X87000000Y-35000000D03*
X87000000Y-33175000D03*
%TD*%
D13*
%TO.C,C12*%
X113850000Y-68950000D03*
X115575000Y-68950000D03*
%TD*%
D14*
%TO.C,L2*%
X92300000Y-52600000D03*
X96000000Y-52600000D03*
%TD*%
D15*
%TO.C,Q1*%
X69900000Y-74150000D03*
X69900000Y-73500000D03*
X69900000Y-72850000D03*
X67240000Y-72850000D03*
X67240000Y-73500000D03*
X67240000Y-74150000D03*
%TD*%
D16*
%TO.C,C17*%
X98200000Y-51075000D03*
X98200000Y-52800000D03*
%TD*%
%TO.C,C3*%
X88625000Y-62832500D03*
X88625000Y-64557500D03*
%TD*%
D10*
%TO.C,J1*%
X67200000Y-36200000D03*
D11*
X67200000Y-33660000D03*
%TD*%
D12*
%TO.C,R30*%
X79825000Y-58207500D03*
X79825000Y-56382500D03*
%TD*%
D17*
%TO.C,K1*%
X51000000Y-76440000D03*
X54200000Y-76440000D03*
X56400000Y-76440000D03*
X58600000Y-76440000D03*
X58600000Y-71360000D03*
X56400000Y-71360000D03*
X54200000Y-71360000D03*
X51000000Y-71360000D03*
%TD*%
D10*
%TO.C,J5*%
X69300000Y-66600000D03*
D11*
X69300000Y-69140000D03*
%TD*%
D18*
%TO.C,R7*%
X114650000Y-52450000D03*
X112825000Y-52450000D03*
%TD*%
D12*
%TO.C,R33*%
X83925000Y-69407500D03*
X83925000Y-67582500D03*
%TD*%
D10*
%TO.C,J14*%
X49600000Y-33400000D03*
D11*
X52140000Y-33400000D03*
%TD*%
D12*
%TO.C,R26*%
X87350000Y-46400000D03*
X87350000Y-44575000D03*
%TD*%
%TO.C,R10*%
X118450000Y-62512500D03*
X118450000Y-60687500D03*
%TD*%
%TO.C,R37*%
X85750000Y-46400000D03*
X85750000Y-44575000D03*
%TD*%
%TO.C,R35*%
X80725000Y-69432500D03*
X80725000Y-67607500D03*
%TD*%
D19*
%TO.C,U1*%
X96337500Y-67550000D03*
D20*
X98900000Y-69455000D03*
X98900000Y-68185000D03*
X98900000Y-66915000D03*
X98900000Y-65645000D03*
X93775000Y-65645000D03*
X93775000Y-66915000D03*
X93775000Y-68185000D03*
X93775000Y-69455000D03*
%TD*%
D18*
%TO.C,R3*%
X64025000Y-37600000D03*
X62200000Y-37600000D03*
%TD*%
D10*
%TO.C,J9*%
X87275000Y-60095000D03*
D11*
X87275000Y-57555000D03*
%TD*%
D21*
%TO.C,C21*%
X84600000Y-61095000D03*
X82875000Y-61095000D03*
%TD*%
D22*
%TO.C,C1*%
X110400000Y-36500000D03*
D23*
X110400000Y-34000000D03*
%TD*%
D22*
%TO.C,C9*%
X110582380Y-73400000D03*
D23*
X108082380Y-73400000D03*
%TD*%
D12*
%TO.C,R15*%
X93950000Y-46400000D03*
X93950000Y-44575000D03*
%TD*%
D24*
%TO.C,L5*%
X102400000Y-69600000D03*
X102400000Y-66600000D03*
%TD*%
D12*
%TO.C,R25*%
X88950000Y-46375000D03*
X88950000Y-44550000D03*
%TD*%
D25*
%TO.C,REF\u002A\u002A*%
X40645000Y-74650000D03*
%TD*%
D21*
%TO.C,C7*%
X113512500Y-41850000D03*
X111787500Y-41850000D03*
%TD*%
D12*
%TO.C,R34*%
X82325000Y-69407500D03*
X82325000Y-67582500D03*
%TD*%
D26*
%TO.C,R19*%
X62600000Y-68900000D03*
X62600000Y-70725000D03*
%TD*%
D27*
%TO.C,C19*%
X73075000Y-63495000D03*
X73075000Y-61770000D03*
%TD*%
D12*
%TO.C,R14*%
X93400000Y-35000000D03*
X93400000Y-33175000D03*
%TD*%
D16*
%TO.C,C20*%
X89900000Y-73975000D03*
X89900000Y-75700000D03*
%TD*%
D12*
%TO.C,R31*%
X78225000Y-58232500D03*
X78225000Y-56407500D03*
%TD*%
D27*
%TO.C,C16*%
X82300000Y-51800000D03*
X82300000Y-50075000D03*
%TD*%
D12*
%TO.C,R9*%
X116800000Y-62562500D03*
X116800000Y-60737500D03*
%TD*%
D18*
%TO.C,R6*%
X64075000Y-35950000D03*
X62250000Y-35950000D03*
%TD*%
D26*
%TO.C,R1*%
X106550000Y-47937500D03*
X106550000Y-49762500D03*
%TD*%
%TO.C,R4*%
X104900000Y-47937500D03*
X104900000Y-49762500D03*
%TD*%
D10*
%TO.C,J3*%
X44840000Y-65800000D03*
D11*
X42300000Y-65800000D03*
%TD*%
D28*
%TO.C,R2*%
X104800000Y-51350000D03*
X106625000Y-51350000D03*
%TD*%
D10*
%TO.C,J17*%
X47340000Y-58400000D03*
D11*
X44800000Y-58400000D03*
%TD*%
D13*
%TO.C,C5*%
X108487500Y-39900000D03*
X110212500Y-39900000D03*
%TD*%
D10*
%TO.C,J12*%
X88125000Y-71140000D03*
D11*
X88125000Y-68600000D03*
%TD*%
D10*
%TO.C,J7*%
X96000000Y-36800000D03*
D11*
X96000000Y-34260000D03*
%TD*%
D13*
%TO.C,C11*%
X110487500Y-69050000D03*
X112212500Y-69050000D03*
%TD*%
D12*
%TO.C,R16*%
X92350000Y-46375000D03*
X92350000Y-44550000D03*
%TD*%
D27*
%TO.C,C22*%
X73925000Y-74895000D03*
X73925000Y-73170000D03*
%TD*%
D29*
%TO.C,D8*%
X48300000Y-67900000D03*
X52300000Y-67900000D03*
%TD*%
D12*
%TO.C,R21*%
X90200000Y-35000000D03*
X90200000Y-33175000D03*
%TD*%
D28*
%TO.C,R12*%
X109100000Y-57750000D03*
X110925000Y-57750000D03*
%TD*%
D21*
%TO.C,C24*%
X85450000Y-71600000D03*
X83725000Y-71600000D03*
%TD*%
D30*
%TO.C,D7*%
X47600000Y-76000000D03*
X47600000Y-72000000D03*
%TD*%
D28*
%TO.C,R8*%
X104450000Y-45950000D03*
X106275000Y-45950000D03*
%TD*%
%TO.C,R5*%
X108237500Y-52750000D03*
X110062500Y-52750000D03*
%TD*%
D12*
%TO.C,R28*%
X83025000Y-58207500D03*
X83025000Y-56382500D03*
%TD*%
D31*
%TO.C,U8*%
X80600000Y-63600000D03*
X80600000Y-62330000D03*
X80600000Y-61060000D03*
X80600000Y-59790000D03*
X75150000Y-59790000D03*
X75150000Y-61060000D03*
X75150000Y-62330000D03*
X75150000Y-63600000D03*
%TD*%
D12*
%TO.C,R32*%
X85525000Y-69407500D03*
X85525000Y-67582500D03*
%TD*%
%TO.C,R24*%
X85400000Y-35000000D03*
X85400000Y-33175000D03*
%TD*%
D13*
%TO.C,C10*%
X113287500Y-70850000D03*
X115012500Y-70850000D03*
%TD*%
D23*
%TO.C,U10*%
X50520000Y-40000000D03*
X53060000Y-40000000D03*
X55600000Y-40000000D03*
X58140000Y-40000000D03*
X60680000Y-40000000D03*
X63220000Y-40000000D03*
X65760000Y-40000000D03*
X68300000Y-40000000D03*
X70840000Y-40000000D03*
X70840000Y-42540000D03*
X70840000Y-45080000D03*
X70840000Y-47620000D03*
X70840000Y-50160000D03*
X70840000Y-52700000D03*
X70840000Y-55240000D03*
X68300000Y-55240000D03*
X68300000Y-52700000D03*
X65760000Y-52700000D03*
X63220000Y-52700000D03*
X60680000Y-52700000D03*
X58140000Y-52700000D03*
X55600000Y-52700000D03*
X53060000Y-52700000D03*
X50520000Y-52700000D03*
X47980000Y-52700000D03*
X65760000Y-55240000D03*
X63220000Y-55240000D03*
X60680000Y-55240000D03*
X58140000Y-55240000D03*
X55600000Y-55240000D03*
X53060000Y-55240000D03*
X50520000Y-55240000D03*
X45440000Y-52700000D03*
%TD*%
D21*
%TO.C,C14*%
X93400000Y-38000000D03*
X91675000Y-38000000D03*
%TD*%
D25*
%TO.C,REF\u002A\u002A*%
X40645000Y-35650000D03*
%TD*%
D22*
%TO.C,C6*%
X102100000Y-63200000D03*
D23*
X102100000Y-60700000D03*
%TD*%
D10*
%TO.C,J4*%
X58150000Y-67925000D03*
D11*
X55610000Y-67925000D03*
%TD*%
D10*
%TO.C,J15*%
X45850000Y-36790000D03*
D11*
X45850000Y-34250000D03*
%TD*%
D21*
%TO.C,C18*%
X93825000Y-49400000D03*
X92100000Y-49400000D03*
%TD*%
D12*
%TO.C,R36*%
X79125000Y-69407500D03*
X79125000Y-67582500D03*
%TD*%
D25*
%TO.C,REF\u002A\u002A*%
X117645000Y-74650000D03*
%TD*%
D12*
%TO.C,R27*%
X84625000Y-58207500D03*
X84625000Y-56382500D03*
%TD*%
D16*
%TO.C,C13*%
X97600000Y-39600000D03*
X97600000Y-41325000D03*
%TD*%
D14*
%TO.C,L3*%
X82975000Y-64295000D03*
X86675000Y-64295000D03*
%TD*%
D10*
%TO.C,J13*%
X63480000Y-33400000D03*
D11*
X60940000Y-33400000D03*
X58400000Y-33400000D03*
X55860000Y-33400000D03*
%TD*%
D31*
%TO.C,U6*%
X89525000Y-40505000D03*
X89525000Y-39235000D03*
X89525000Y-37965000D03*
X89525000Y-36695000D03*
X84075000Y-36695000D03*
X84075000Y-37965000D03*
X84075000Y-39235000D03*
X84075000Y-40505000D03*
%TD*%
D18*
%TO.C,R11*%
X115412500Y-58550000D03*
X113587500Y-58550000D03*
%TD*%
D10*
%TO.C,Je1*%
X96550000Y-48400000D03*
D11*
X96550000Y-45860000D03*
%TD*%
D31*
%TO.C,U9*%
X81450000Y-75000000D03*
X81450000Y-73730000D03*
X81450000Y-72460000D03*
X81450000Y-71190000D03*
X76000000Y-71190000D03*
X76000000Y-72460000D03*
X76000000Y-73730000D03*
X76000000Y-75000000D03*
%TD*%
D12*
%TO.C,R39*%
X77525000Y-69407500D03*
X77525000Y-67582500D03*
%TD*%
D32*
%TO.C,D2*%
X96800000Y-60800000D03*
X96800000Y-56800000D03*
%TD*%
D31*
%TO.C,U7*%
X89900000Y-51940000D03*
X89900000Y-50670000D03*
X89900000Y-49400000D03*
X89900000Y-48130000D03*
X84450000Y-48130000D03*
X84450000Y-49400000D03*
X84450000Y-50670000D03*
X84450000Y-51940000D03*
%TD*%
D12*
%TO.C,R22*%
X88600000Y-35000000D03*
X88600000Y-33175000D03*
%TD*%
D33*
%TO.C,U4*%
X108125000Y-49600000D03*
X108775000Y-49600000D03*
X109425000Y-49600000D03*
X110075000Y-49600000D03*
X110725000Y-49600000D03*
X111375000Y-49600000D03*
X112025000Y-49600000D03*
X112675000Y-49600000D03*
X113325000Y-49600000D03*
X113975000Y-49600000D03*
X114625000Y-49600000D03*
X115275000Y-49600000D03*
X115275000Y-44000000D03*
X114625000Y-44000000D03*
X113975000Y-44000000D03*
X113325000Y-44000000D03*
X112675000Y-44000000D03*
X112025000Y-44000000D03*
X111375000Y-44000000D03*
X110725000Y-44000000D03*
X110075000Y-44000000D03*
X109425000Y-44000000D03*
X108775000Y-44000000D03*
X108125000Y-44000000D03*
D34*
X111700000Y-46800000D03*
%TD*%
D27*
%TO.C,C15*%
X82010000Y-40600000D03*
X82010000Y-38875000D03*
%TD*%
D12*
%TO.C,R29*%
X81425000Y-58207500D03*
X81425000Y-56382500D03*
%TD*%
D26*
%TO.C,R13*%
X106700000Y-65600000D03*
X106700000Y-67425000D03*
%TD*%
D14*
%TO.C,L1*%
X91950000Y-41200000D03*
X95650000Y-41200000D03*
%TD*%
D10*
%TO.C,J16*%
X48340000Y-62000000D03*
D11*
X45800000Y-62000000D03*
%TD*%
D33*
%TO.C,U5*%
X115575000Y-61400000D03*
X114925000Y-61400000D03*
X114275000Y-61400000D03*
X113625000Y-61400000D03*
X112975000Y-61400000D03*
X112325000Y-61400000D03*
X111675000Y-61400000D03*
X111025000Y-61400000D03*
X110375000Y-61400000D03*
X109725000Y-61400000D03*
X109075000Y-61400000D03*
X108425000Y-61400000D03*
X108425000Y-67000000D03*
X109075000Y-67000000D03*
X109725000Y-67000000D03*
X110375000Y-67000000D03*
X111025000Y-67000000D03*
X111675000Y-67000000D03*
X112325000Y-67000000D03*
X112975000Y-67000000D03*
X113625000Y-67000000D03*
X114275000Y-67000000D03*
X114925000Y-67000000D03*
X115575000Y-67000000D03*
D34*
X112000000Y-64200000D03*
%TD*%
D12*
%TO.C,R18*%
X90550000Y-46400000D03*
X90550000Y-44575000D03*
%TD*%
D21*
%TO.C,C8*%
X110162500Y-41900000D03*
X108437500Y-41900000D03*
%TD*%
D14*
%TO.C,L4*%
X83925000Y-75400000D03*
X87625000Y-75400000D03*
%TD*%
D12*
%TO.C,R20*%
X91800000Y-35000000D03*
X91800000Y-33175000D03*
%TD*%
D35*
%TO.C,J11*%
X61900000Y-74800000D03*
D36*
X61900000Y-73530000D03*
%TD*%
D26*
%TO.C,R17*%
X60900000Y-68900000D03*
X60900000Y-70725000D03*
%TD*%
D10*
%TO.C,J10*%
X50780000Y-37000000D03*
D11*
X53320000Y-37000000D03*
X55860000Y-37000000D03*
X58400000Y-37000000D03*
%TD*%
D10*
%TO.C,J6*%
X54640000Y-58300000D03*
D11*
X57180000Y-58300000D03*
X59720000Y-58300000D03*
X62260000Y-58300000D03*
X64800000Y-58300000D03*
%TD*%
D25*
%TO.C,REF\u002A\u002A*%
X117645000Y-35650000D03*
%TD*%
D12*
%TO.C,R38*%
X76625000Y-58232500D03*
X76625000Y-56407500D03*
%TD*%
D22*
%TO.C,C4*%
X101000000Y-73900000D03*
D23*
X103500000Y-73900000D03*
%TD*%
D16*
%TO.C,C2*%
X97400000Y-71875000D03*
X97400000Y-73600000D03*
%TD*%
D35*
%TO.C,J2*%
X117650000Y-55425000D03*
D36*
X116380000Y-55425000D03*
X115110000Y-55425000D03*
X113840000Y-55425000D03*
X112570000Y-55425000D03*
X111300000Y-55425000D03*
X110030000Y-55425000D03*
X108760000Y-55425000D03*
%TD*%
M02*
