M48
; DRILL file {KiCad (6.0.2)} date Fri Aug 25 19:02:36 2023
; FORMAT={-:-/ absolute / metric / decimal}
; #@! TF.CreationDate,2023-08-25T19:02:36+03:00
; #@! TF.GenerationSoftware,Kicad,Pcbnew,(6.0.2)
; #@! TF.FileFunction,Plated,1,2,PTH
FMAT,2
METRIC
; #@! TA.AperFunction,Plated,PTH,ViaDrill
T1C0.400
; #@! TA.AperFunction,Plated,PTH,ComponentDrill
T2C0.700
; #@! TA.AperFunction,Plated,PTH,ComponentDrill
T3C0.762
; #@! TA.AperFunction,Plated,PTH,ComponentDrill
T4C0.800
; #@! TA.AperFunction,Plated,PTH,ComponentDrill
T5C1.000
; #@! TA.AperFunction,Plated,PTH,ComponentDrill
T6C1.100
%
G90
G05
T1
X26.8Y-46.0
X27.2Y-41.2
X27.6Y-60.0
X28.8Y-64.6
X28.815Y-55.581
X28.9Y-71.45
X29.0Y-43.6
X30.4Y-74.75
X30.75Y-41.55
X31.4Y-48.2
X31.45Y-65.6
X31.582Y-33.206
X31.6Y-70.2
X31.777Y-37.392
X31.8Y-59.8
X33.1Y-75.05
X33.633Y-40.311
X33.65Y-41.85
X33.85Y-53.0
X34.0Y-65.6
X34.0Y-70.2
X34.05Y-48.0
X34.396Y-35.385
X34.4Y-38.2
X34.4Y-62.0
X35.2Y-42.4
X35.84Y-33.182
X36.0Y-38.0
X36.0Y-55.4
X36.45Y-48.15
X36.6Y-70.2
X37.0Y-42.4
X37.4Y-64.2
X37.6Y-38.0
X38.2Y-34.8
X38.75Y-74.25
X38.8Y-70.6
X39.0Y-59.4
X39.2Y-53.0
X39.8Y-36.4
X40.05Y-75.85
X40.197Y-32.79
X40.2Y-46.8
X40.6Y-38.0
X40.6Y-56.2
X41.4Y-42.4
X41.4Y-44.8
X41.4Y-53.0
X41.6Y-64.2
X42.0Y-35.2
X42.049Y-46.788
X42.2Y-74.8
X42.8Y-38.4
X42.8Y-58.2
X43.162Y-44.781
X43.599Y-33.157
X44.0Y-46.6
X44.15Y-70.45
X44.194Y-48.0
X44.2Y-65.6
X44.4Y-55.4
X44.6Y-44.8
X45.2Y-63.8
X45.25Y-57.9
X45.4Y-46.6
X46.2Y-41.8
X46.35Y-73.4
X46.4Y-43.4
X46.4Y-45.1
X46.6Y-48.0
X46.6Y-65.6
X46.6Y-70.3
X46.8Y-52.4
X47.0Y-38.6
X47.1Y-76.7
X47.8Y-46.4
X48.0Y-44.4
X48.6Y-37.4
X48.6Y-40.2
X49.0Y-42.4
X49.0Y-55.4
X49.8Y-34.6
X51.029Y-57.975
X51.4Y-46.4
X51.5Y-65.05
X51.8Y-53.0
X51.8Y-71.0
X52.6Y-73.2
X52.8Y-76.4
X53.2Y-55.4
X53.4Y-39.8
X53.6Y-46.2
X54.4Y-65.6
X54.85Y-76.35
X55.0Y-38.8
X55.0Y-40.6
X55.2Y-58.0
X55.8Y-35.6
X56.188Y-39.998
X56.8Y-52.8
X56.8Y-65.6
X56.8Y-70.4
X57.0Y-48.2
X57.4Y-55.4
X57.8Y-76.8
X58.0Y-38.8
X59.4Y-70.25
X59.45Y-52.8
X59.45Y-65.6
X59.5Y-48.1
X60.194Y-40.588
X60.2Y-58.1
X61.0Y-39.725
X61.369Y-35.196
X62.0Y-55.4
X62.05Y-48.0
X62.2Y-74.4
X62.2Y-76.8
X64.2Y-45.2
X64.5Y-48.0
X64.65Y-65.2
X64.8Y-37.151
X64.8Y-54.2
X64.8Y-58.0
X65.6Y-34.6
X66.0Y-42.9
X66.0Y-74.4
X66.0Y-76.6
X66.6Y-45.2
X66.8Y-37.2
X66.95Y-48.15
X67.05Y-70.45
X67.5Y-55.95
X67.55Y-59.95
X67.6Y-57.4
X67.7Y-61.85
X68.2Y-34.8
X68.6Y-37.6
X68.75Y-59.35
X68.85Y-61.9
X69.0Y-42.8
X69.4Y-40.6
X69.6Y-45.0
X69.6Y-48.2
X69.6Y-52.6
X69.6Y-65.8
X69.7Y-70.65
X70.0Y-34.6
X70.0Y-38.8
X70.0Y-74.6
X70.6Y-41.0
X71.4Y-42.0
X72.0Y-48.15
X72.0Y-70.6
X72.15Y-65.95
X72.2Y-45.0
X72.2Y-52.6
X72.6Y-40.4
X73.0Y-44.2
X74.65Y-53.1
X74.8Y-47.2
X75.0Y-63.024
X75.05Y-56.6
X75.05Y-60.5
X76.0Y-44.2
X76.0Y-72.15
X77.15Y-64.95
X77.35Y-71.7
X77.399Y-61.43
X77.544Y-56.344
X77.6Y-43.0
X77.6Y-46.2
X77.754Y-51.55
X77.8Y-62.7
X78.0Y-36.0
X78.0Y-53.9
X78.05Y-49.45
X78.65Y-64.15
X78.8Y-45.2
X78.8Y-48.2
X78.8Y-68.3
X78.95Y-56.4
X79.0Y-43.0
X79.0Y-61.05
X79.25Y-73.2
X79.4Y-76.7
X79.45Y-54.0
X79.6Y-49.45
X79.6Y-65.4
X79.75Y-62.65
X81.4Y-48.2
X81.65Y-52.0
X82.0Y-32.6
X82.0Y-36.6
X82.05Y-76.85
X82.25Y-73.55
X82.45Y-42.05
X83.8Y-68.5
X84.2Y-40.4
X84.45Y-43.7
X84.55Y-73.7
X85.6Y-33.2
X85.6Y-67.2
X85.985Y-51.803
X86.05Y-76.75
X86.1Y-49.5
X86.2Y-72.3
X86.571Y-42.163
X87.05Y-74.4
X87.4Y-68.6
X88.0Y-66.2
X88.381Y-34.57
X88.9Y-43.35
X89.2Y-33.0
X89.6Y-36.4
X89.9Y-72.35
X89.9Y-76.8
X90.35Y-51.15
X90.35Y-52.8
X90.386Y-49.316
X90.76Y-34.361
X91.2Y-74.7
X91.4Y-66.4
X91.8Y-68.6
X92.0Y-40.15
X92.6Y-36.0
X93.4Y-33.2
X93.65Y-41.55
X93.7Y-72.35
X93.75Y-76.8
X94.2Y-67.4
X94.75Y-52.2
X94.784Y-48.139
X95.05Y-40.05
X95.2Y-35.2
X96.2Y-33.2
X97.0Y-37.2
X97.05Y-58.25
X97.2Y-42.2
X98.075Y-39.675
X98.1Y-72.45
X98.15Y-50.8
X98.25Y-48.7
X99.4Y-37.2
X100.3Y-41.6
X100.95Y-43.6
X101.15Y-64.25
X101.95Y-45.074
X102.05Y-41.05
X102.1Y-53.25
X102.238Y-76.245
X103.25Y-42.8
X103.35Y-45.4
X103.9Y-41.0
X103.9Y-68.15
X104.189Y-42.456
X104.35Y-52.4
X104.7Y-76.0
X104.85Y-54.05
X105.021Y-71.203
X105.05Y-45.2
X105.05Y-72.25
X105.3Y-73.15
X105.3Y-68.795
X105.4Y-41.4
X105.508Y-62.483
X105.6Y-42.4
X105.6Y-52.95
X105.665Y-33.484
X105.8Y-37.2
X105.85Y-55.3
X106.35Y-58.8
X106.593Y-76.576
X106.6Y-65.75
X106.6Y-67.15
X106.8Y-40.8
X107.0Y-47.8
X107.0Y-49.6
X107.3Y-72.05
X107.585Y-35.196
X107.7Y-54.0
X107.85Y-66.55
X108.15Y-41.1
X108.3Y-48.65
X109.2Y-65.75
X109.225Y-58.65
X109.225Y-59.75
X109.25Y-67.1
X109.4Y-47.8
X109.45Y-49.7
X109.965Y-33.359
X110.6Y-37.2
X110.75Y-48.8
X110.85Y-66.55
X110.9Y-39.9
X111.7Y-58.65
X111.8Y-49.7
X111.85Y-40.3
X111.85Y-73.0
X111.9Y-47.75
X112.0Y-67.2
X112.1Y-65.75
X112.25Y-43.1
X112.3Y-55.85
X112.4Y-35.6
X112.45Y-59.4
X112.7Y-48.7
X113.0Y-37.8
X113.013Y-61.999
X113.053Y-71.186
X113.3Y-41.05
X113.3Y-66.3
X113.388Y-33.192
X113.55Y-47.75
X113.55Y-49.55
X113.95Y-62.5
X114.35Y-39.85
X114.35Y-60.1
X114.6Y-55.85
X114.6Y-69.8
X114.6Y-76.45
X114.75Y-66.8
X114.85Y-54.7
X114.9Y-42.95
X114.9Y-65.55
X115.05Y-41.3
X115.15Y-45.25
X115.15Y-61.3
X115.15Y-68.2
X116.85Y-39.8
X116.85Y-47.743
X117.0Y-54.35
X117.42Y-65.705
X117.6Y-69.75
X117.95Y-56.65
X118.1Y-53.1
X118.1Y-60.25
X118.95Y-48.1
X119.0Y-50.35
X119.3Y-58.2
X119.372Y-68.209
X119.4Y-63.9
X119.5Y-40.35
T2
X55.15Y-37.06
X55.15Y-42.14
X58.35Y-37.06
X58.35Y-42.14
X60.55Y-37.06
X60.55Y-42.14
X62.75Y-37.06
X62.75Y-42.14
X67.375Y-39.155
X67.375Y-40.425
X106.86Y-57.525
X108.13Y-57.525
X109.4Y-57.525
X110.67Y-57.525
X111.94Y-57.525
X113.21Y-57.525
X114.48Y-57.525
X115.75Y-57.525
T3
X80.8Y-45.65
X80.8Y-50.73
X80.8Y-53.27
X80.86Y-67.04
X80.86Y-72.12
X80.86Y-74.66
X80.9Y-56.35
X80.9Y-61.43
X80.9Y-63.97
X80.91Y-34.59
X80.91Y-39.67
X80.91Y-42.21
X98.58Y-45.65
X98.58Y-53.27
X98.64Y-67.04
X98.64Y-74.66
X98.68Y-56.35
X98.68Y-63.97
X98.69Y-34.59
X98.69Y-42.21
T4
X107.1Y-42.35
X109.6Y-42.35
X110.2Y-72.85
X110.2Y-75.35
T5
X27.645Y-50.375
X27.645Y-68.155
X30.185Y-50.375
X30.185Y-68.155
X32.725Y-50.375
X32.725Y-68.155
X33.0Y-72.25
X35.2Y-75.95
X35.265Y-50.375
X35.265Y-68.155
X35.54Y-72.25
X36.21Y-40.225
X37.74Y-75.95
X37.805Y-50.375
X37.805Y-68.155
X38.08Y-72.25
X38.75Y-40.225
X40.345Y-50.375
X40.345Y-68.155
X40.62Y-72.25
X42.885Y-50.375
X42.885Y-68.155
X43.825Y-40.35
X43.825Y-42.89
X44.2Y-73.4
X44.2Y-75.94
X45.425Y-50.375
X45.425Y-68.155
X47.965Y-50.375
X47.965Y-68.155
X48.6Y-74.8
X50.0Y-45.2
X50.505Y-50.375
X50.505Y-68.155
X51.14Y-74.8
X52.54Y-45.2
X53.045Y-50.375
X53.045Y-68.155
X53.68Y-74.8
X55.08Y-45.2
X55.585Y-50.375
X55.585Y-68.155
X56.22Y-74.8
X57.62Y-45.2
X58.125Y-50.375
X58.125Y-68.155
X60.16Y-45.2
X60.225Y-73.26
X60.225Y-75.8
X60.665Y-50.375
X60.665Y-68.155
X63.205Y-50.375
X63.205Y-68.155
X64.0Y-73.2
X64.0Y-75.74
X65.745Y-50.375
X65.745Y-68.155
X68.025Y-73.15
X68.025Y-75.69
X68.285Y-50.375
X68.285Y-68.155
X70.825Y-50.375
X70.825Y-68.155
X73.365Y-50.375
X73.365Y-68.155
X75.905Y-50.375
X75.905Y-68.155
X103.2Y-34.06
X103.2Y-36.6
X103.275Y-69.8
X103.275Y-72.34
X103.75Y-56.45
X103.75Y-58.99
X103.775Y-47.7
X103.775Y-50.24
T6
X33.91Y-44.55
X36.45Y-44.55
X38.99Y-44.55
T0
M30
