%TF.GenerationSoftware,KiCad,Pcbnew,(6.0.2)*%
%TF.CreationDate,2023-08-25T19:02:39+03:00*%
%TF.ProjectId,Pistol_Camera_Driver,50697374-6f6c-45f4-9361-6d6572615f44,rev?*%
%TF.SameCoordinates,Original*%
%TF.FileFunction,Legend,Top*%
%TF.FilePolarity,Positive*%
%FSLAX46Y46*%
G04 Gerber Fmt 4.6, Leading zero omitted, Abs format (unit mm)*
G04 Created by KiCad (PCBNEW (6.0.2)) date 2023-08-25 19:02:39*
%MOMM*%
%LPD*%
G01*
G04 APERTURE LIST*
%ADD10C,0.150000*%
%ADD11C,0.120000*%
G04 APERTURE END LIST*
D10*
%TO.C,J8*%
X68066666Y-70452380D02*
X68066666Y-71166666D01*
X68019047Y-71309523D01*
X67923809Y-71404761D01*
X67780952Y-71452380D01*
X67685714Y-71452380D01*
X68685714Y-70880952D02*
X68590476Y-70833333D01*
X68542857Y-70785714D01*
X68495238Y-70690476D01*
X68495238Y-70642857D01*
X68542857Y-70547619D01*
X68590476Y-70500000D01*
X68685714Y-70452380D01*
X68876190Y-70452380D01*
X68971428Y-70500000D01*
X69019047Y-70547619D01*
X69066666Y-70642857D01*
X69066666Y-70690476D01*
X69019047Y-70785714D01*
X68971428Y-70833333D01*
X68876190Y-70880952D01*
X68685714Y-70880952D01*
X68590476Y-70928571D01*
X68542857Y-70976190D01*
X68495238Y-71071428D01*
X68495238Y-71261904D01*
X68542857Y-71357142D01*
X68590476Y-71404761D01*
X68685714Y-71452380D01*
X68876190Y-71452380D01*
X68971428Y-71404761D01*
X69019047Y-71357142D01*
X69066666Y-71261904D01*
X69066666Y-71071428D01*
X69019047Y-70976190D01*
X68971428Y-70928571D01*
X68876190Y-70880952D01*
%TO.C,Q1*%
X74504761Y-41147619D02*
X74409523Y-41100000D01*
X74314285Y-41004761D01*
X74171428Y-40861904D01*
X74076190Y-40814285D01*
X73980952Y-40814285D01*
X74028571Y-41052380D02*
X73933333Y-41004761D01*
X73838095Y-40909523D01*
X73790476Y-40719047D01*
X73790476Y-40385714D01*
X73838095Y-40195238D01*
X73933333Y-40100000D01*
X74028571Y-40052380D01*
X74219047Y-40052380D01*
X74314285Y-40100000D01*
X74409523Y-40195238D01*
X74457142Y-40385714D01*
X74457142Y-40719047D01*
X74409523Y-40909523D01*
X74314285Y-41004761D01*
X74219047Y-41052380D01*
X74028571Y-41052380D01*
X75409523Y-41052380D02*
X74838095Y-41052380D01*
X75123809Y-41052380D02*
X75123809Y-40052380D01*
X75028571Y-40195238D01*
X74933333Y-40290476D01*
X74838095Y-40338095D01*
%TO.C,J1*%
X31706666Y-74627380D02*
X31706666Y-75341666D01*
X31659047Y-75484523D01*
X31563809Y-75579761D01*
X31420952Y-75627380D01*
X31325714Y-75627380D01*
X32706666Y-75627380D02*
X32135238Y-75627380D01*
X32420952Y-75627380D02*
X32420952Y-74627380D01*
X32325714Y-74770238D01*
X32230476Y-74865476D01*
X32135238Y-74913095D01*
%TO.C,K1*%
X62061904Y-35652380D02*
X62061904Y-34652380D01*
X62633333Y-35652380D02*
X62204761Y-35080952D01*
X62633333Y-34652380D02*
X62061904Y-35223809D01*
X63585714Y-35652380D02*
X63014285Y-35652380D01*
X63300000Y-35652380D02*
X63300000Y-34652380D01*
X63204761Y-34795238D01*
X63109523Y-34890476D01*
X63014285Y-34938095D01*
%TO.C,J5*%
X64066666Y-70652380D02*
X64066666Y-71366666D01*
X64019047Y-71509523D01*
X63923809Y-71604761D01*
X63780952Y-71652380D01*
X63685714Y-71652380D01*
X65019047Y-70652380D02*
X64542857Y-70652380D01*
X64495238Y-71128571D01*
X64542857Y-71080952D01*
X64638095Y-71033333D01*
X64876190Y-71033333D01*
X64971428Y-71080952D01*
X65019047Y-71128571D01*
X65066666Y-71223809D01*
X65066666Y-71461904D01*
X65019047Y-71557142D01*
X64971428Y-71604761D01*
X64876190Y-71652380D01*
X64638095Y-71652380D01*
X64542857Y-71604761D01*
X64495238Y-71557142D01*
%TO.C,U13*%
X75961904Y-32052380D02*
X75961904Y-32861904D01*
X76009523Y-32957142D01*
X76057142Y-33004761D01*
X76152380Y-33052380D01*
X76342857Y-33052380D01*
X76438095Y-33004761D01*
X76485714Y-32957142D01*
X76533333Y-32861904D01*
X76533333Y-32052380D01*
X77533333Y-33052380D02*
X76961904Y-33052380D01*
X77247619Y-33052380D02*
X77247619Y-32052380D01*
X77152380Y-32195238D01*
X77057142Y-32290476D01*
X76961904Y-32338095D01*
X77866666Y-32052380D02*
X78485714Y-32052380D01*
X78152380Y-32433333D01*
X78295238Y-32433333D01*
X78390476Y-32480952D01*
X78438095Y-32528571D01*
X78485714Y-32623809D01*
X78485714Y-32861904D01*
X78438095Y-32957142D01*
X78390476Y-33004761D01*
X78295238Y-33052380D01*
X78009523Y-33052380D01*
X77914285Y-33004761D01*
X77866666Y-32957142D01*
%TO.C,J14*%
X44790476Y-70852380D02*
X44790476Y-71566666D01*
X44742857Y-71709523D01*
X44647619Y-71804761D01*
X44504761Y-71852380D01*
X44409523Y-71852380D01*
X45790476Y-71852380D02*
X45219047Y-71852380D01*
X45504761Y-71852380D02*
X45504761Y-70852380D01*
X45409523Y-70995238D01*
X45314285Y-71090476D01*
X45219047Y-71138095D01*
X46647619Y-71185714D02*
X46647619Y-71852380D01*
X46409523Y-70804761D02*
X46171428Y-71519047D01*
X46790476Y-71519047D01*
%TO.C,U11*%
X74761904Y-58452380D02*
X74761904Y-59261904D01*
X74809523Y-59357142D01*
X74857142Y-59404761D01*
X74952380Y-59452380D01*
X75142857Y-59452380D01*
X75238095Y-59404761D01*
X75285714Y-59357142D01*
X75333333Y-59261904D01*
X75333333Y-58452380D01*
X76333333Y-59452380D02*
X75761904Y-59452380D01*
X76047619Y-59452380D02*
X76047619Y-58452380D01*
X75952380Y-58595238D01*
X75857142Y-58690476D01*
X75761904Y-58738095D01*
X77285714Y-59452380D02*
X76714285Y-59452380D01*
X77000000Y-59452380D02*
X77000000Y-58452380D01*
X76904761Y-58595238D01*
X76809523Y-58690476D01*
X76714285Y-58738095D01*
%TO.C,J9*%
X103416666Y-53132380D02*
X103416666Y-53846666D01*
X103369047Y-53989523D01*
X103273809Y-54084761D01*
X103130952Y-54132380D01*
X103035714Y-54132380D01*
X103940476Y-54132380D02*
X104130952Y-54132380D01*
X104226190Y-54084761D01*
X104273809Y-54037142D01*
X104369047Y-53894285D01*
X104416666Y-53703809D01*
X104416666Y-53322857D01*
X104369047Y-53227619D01*
X104321428Y-53180000D01*
X104226190Y-53132380D01*
X104035714Y-53132380D01*
X103940476Y-53180000D01*
X103892857Y-53227619D01*
X103845238Y-53322857D01*
X103845238Y-53560952D01*
X103892857Y-53656190D01*
X103940476Y-53703809D01*
X104035714Y-53751428D01*
X104226190Y-53751428D01*
X104321428Y-53703809D01*
X104369047Y-53656190D01*
X104416666Y-53560952D01*
%TO.C,C1*%
X113333333Y-77207142D02*
X113285714Y-77254761D01*
X113142857Y-77302380D01*
X113047619Y-77302380D01*
X112904761Y-77254761D01*
X112809523Y-77159523D01*
X112761904Y-77064285D01*
X112714285Y-76873809D01*
X112714285Y-76730952D01*
X112761904Y-76540476D01*
X112809523Y-76445238D01*
X112904761Y-76350000D01*
X113047619Y-76302380D01*
X113142857Y-76302380D01*
X113285714Y-76350000D01*
X113333333Y-76397619D01*
X114285714Y-77302380D02*
X113714285Y-77302380D01*
X114000000Y-77302380D02*
X114000000Y-76302380D01*
X113904761Y-76445238D01*
X113809523Y-76540476D01*
X113714285Y-76588095D01*
%TO.C,C9*%
X110433333Y-38957142D02*
X110385714Y-39004761D01*
X110242857Y-39052380D01*
X110147619Y-39052380D01*
X110004761Y-39004761D01*
X109909523Y-38909523D01*
X109861904Y-38814285D01*
X109814285Y-38623809D01*
X109814285Y-38480952D01*
X109861904Y-38290476D01*
X109909523Y-38195238D01*
X110004761Y-38100000D01*
X110147619Y-38052380D01*
X110242857Y-38052380D01*
X110385714Y-38100000D01*
X110433333Y-38147619D01*
X110909523Y-39052380D02*
X111100000Y-39052380D01*
X111195238Y-39004761D01*
X111242857Y-38957142D01*
X111338095Y-38814285D01*
X111385714Y-38623809D01*
X111385714Y-38242857D01*
X111338095Y-38147619D01*
X111290476Y-38100000D01*
X111195238Y-38052380D01*
X111004761Y-38052380D01*
X110909523Y-38100000D01*
X110861904Y-38147619D01*
X110814285Y-38242857D01*
X110814285Y-38480952D01*
X110861904Y-38576190D01*
X110909523Y-38623809D01*
X111004761Y-38671428D01*
X111195238Y-38671428D01*
X111290476Y-38623809D01*
X111338095Y-38576190D01*
X111385714Y-38480952D01*
%TO.C,R19*%
X72422380Y-47042857D02*
X71946190Y-47376190D01*
X72422380Y-47614285D02*
X71422380Y-47614285D01*
X71422380Y-47233333D01*
X71470000Y-47138095D01*
X71517619Y-47090476D01*
X71612857Y-47042857D01*
X71755714Y-47042857D01*
X71850952Y-47090476D01*
X71898571Y-47138095D01*
X71946190Y-47233333D01*
X71946190Y-47614285D01*
X72422380Y-46090476D02*
X72422380Y-46661904D01*
X72422380Y-46376190D02*
X71422380Y-46376190D01*
X71565238Y-46471428D01*
X71660476Y-46566666D01*
X71708095Y-46661904D01*
X72422380Y-45614285D02*
X72422380Y-45423809D01*
X72374761Y-45328571D01*
X72327142Y-45280952D01*
X72184285Y-45185714D01*
X71993809Y-45138095D01*
X71612857Y-45138095D01*
X71517619Y-45185714D01*
X71470000Y-45233333D01*
X71422380Y-45328571D01*
X71422380Y-45519047D01*
X71470000Y-45614285D01*
X71517619Y-45661904D01*
X71612857Y-45709523D01*
X71850952Y-45709523D01*
X71946190Y-45661904D01*
X71993809Y-45614285D01*
X72041428Y-45519047D01*
X72041428Y-45328571D01*
X71993809Y-45233333D01*
X71946190Y-45185714D01*
X71850952Y-45138095D01*
%TO.C,J3*%
X45866666Y-39652380D02*
X45866666Y-40366666D01*
X45819047Y-40509523D01*
X45723809Y-40604761D01*
X45580952Y-40652380D01*
X45485714Y-40652380D01*
X46247619Y-39652380D02*
X46866666Y-39652380D01*
X46533333Y-40033333D01*
X46676190Y-40033333D01*
X46771428Y-40080952D01*
X46819047Y-40128571D01*
X46866666Y-40223809D01*
X46866666Y-40461904D01*
X46819047Y-40557142D01*
X46771428Y-40604761D01*
X46676190Y-40652380D01*
X46390476Y-40652380D01*
X46295238Y-40604761D01*
X46247619Y-40557142D01*
%TO.C,J12*%
X105190476Y-34052380D02*
X105190476Y-34766666D01*
X105142857Y-34909523D01*
X105047619Y-35004761D01*
X104904761Y-35052380D01*
X104809523Y-35052380D01*
X106190476Y-35052380D02*
X105619047Y-35052380D01*
X105904761Y-35052380D02*
X105904761Y-34052380D01*
X105809523Y-34195238D01*
X105714285Y-34290476D01*
X105619047Y-34338095D01*
X106571428Y-34147619D02*
X106619047Y-34100000D01*
X106714285Y-34052380D01*
X106952380Y-34052380D01*
X107047619Y-34100000D01*
X107095238Y-34147619D01*
X107142857Y-34242857D01*
X107142857Y-34338095D01*
X107095238Y-34480952D01*
X106523809Y-35052380D01*
X107142857Y-35052380D01*
%TO.C,J7*%
X102941666Y-66482380D02*
X102941666Y-67196666D01*
X102894047Y-67339523D01*
X102798809Y-67434761D01*
X102655952Y-67482380D01*
X102560714Y-67482380D01*
X103322619Y-66482380D02*
X103989285Y-66482380D01*
X103560714Y-67482380D01*
%TO.C,D8*%
X50461904Y-33452380D02*
X50461904Y-32452380D01*
X50700000Y-32452380D01*
X50842857Y-32500000D01*
X50938095Y-32595238D01*
X50985714Y-32690476D01*
X51033333Y-32880952D01*
X51033333Y-33023809D01*
X50985714Y-33214285D01*
X50938095Y-33309523D01*
X50842857Y-33404761D01*
X50700000Y-33452380D01*
X50461904Y-33452380D01*
X51604761Y-32880952D02*
X51509523Y-32833333D01*
X51461904Y-32785714D01*
X51414285Y-32690476D01*
X51414285Y-32642857D01*
X51461904Y-32547619D01*
X51509523Y-32500000D01*
X51604761Y-32452380D01*
X51795238Y-32452380D01*
X51890476Y-32500000D01*
X51938095Y-32547619D01*
X51985714Y-32642857D01*
X51985714Y-32690476D01*
X51938095Y-32785714D01*
X51890476Y-32833333D01*
X51795238Y-32880952D01*
X51604761Y-32880952D01*
X51509523Y-32928571D01*
X51461904Y-32976190D01*
X51414285Y-33071428D01*
X51414285Y-33261904D01*
X51461904Y-33357142D01*
X51509523Y-33404761D01*
X51604761Y-33452380D01*
X51795238Y-33452380D01*
X51890476Y-33404761D01*
X51938095Y-33357142D01*
X51985714Y-33261904D01*
X51985714Y-33071428D01*
X51938095Y-32976190D01*
X51890476Y-32928571D01*
X51795238Y-32880952D01*
%TO.C,U1*%
X29438095Y-44652380D02*
X29438095Y-45461904D01*
X29485714Y-45557142D01*
X29533333Y-45604761D01*
X29628571Y-45652380D01*
X29819047Y-45652380D01*
X29914285Y-45604761D01*
X29961904Y-45557142D01*
X30009523Y-45461904D01*
X30009523Y-44652380D01*
X31009523Y-45652380D02*
X30438095Y-45652380D01*
X30723809Y-45652380D02*
X30723809Y-44652380D01*
X30628571Y-44795238D01*
X30533333Y-44890476D01*
X30438095Y-44938095D01*
%TO.C,D7*%
X48661904Y-36852380D02*
X48661904Y-35852380D01*
X48900000Y-35852380D01*
X49042857Y-35900000D01*
X49138095Y-35995238D01*
X49185714Y-36090476D01*
X49233333Y-36280952D01*
X49233333Y-36423809D01*
X49185714Y-36614285D01*
X49138095Y-36709523D01*
X49042857Y-36804761D01*
X48900000Y-36852380D01*
X48661904Y-36852380D01*
X49566666Y-35852380D02*
X50233333Y-35852380D01*
X49804761Y-36852380D01*
%TO.C,U3*%
X25352380Y-59911904D02*
X26161904Y-59911904D01*
X26257142Y-59864285D01*
X26304761Y-59816666D01*
X26352380Y-59721428D01*
X26352380Y-59530952D01*
X26304761Y-59435714D01*
X26257142Y-59388095D01*
X26161904Y-59340476D01*
X25352380Y-59340476D01*
X25352380Y-58959523D02*
X25352380Y-58340476D01*
X25733333Y-58673809D01*
X25733333Y-58530952D01*
X25780952Y-58435714D01*
X25828571Y-58388095D01*
X25923809Y-58340476D01*
X26161904Y-58340476D01*
X26257142Y-58388095D01*
X26304761Y-58435714D01*
X26352380Y-58530952D01*
X26352380Y-58816666D01*
X26304761Y-58911904D01*
X26257142Y-58959523D01*
%TO.C,J4*%
X33066666Y-38652380D02*
X33066666Y-39366666D01*
X33019047Y-39509523D01*
X32923809Y-39604761D01*
X32780952Y-39652380D01*
X32685714Y-39652380D01*
X33971428Y-38985714D02*
X33971428Y-39652380D01*
X33733333Y-38604761D02*
X33495238Y-39319047D01*
X34114285Y-39319047D01*
%TO.C,J15*%
X55990476Y-71452380D02*
X55990476Y-72166666D01*
X55942857Y-72309523D01*
X55847619Y-72404761D01*
X55704761Y-72452380D01*
X55609523Y-72452380D01*
X56990476Y-72452380D02*
X56419047Y-72452380D01*
X56704761Y-72452380D02*
X56704761Y-71452380D01*
X56609523Y-71595238D01*
X56514285Y-71690476D01*
X56419047Y-71738095D01*
X57895238Y-71452380D02*
X57419047Y-71452380D01*
X57371428Y-71928571D01*
X57419047Y-71880952D01*
X57514285Y-71833333D01*
X57752380Y-71833333D01*
X57847619Y-71880952D01*
X57895238Y-71928571D01*
X57942857Y-72023809D01*
X57942857Y-72261904D01*
X57895238Y-72357142D01*
X57847619Y-72404761D01*
X57752380Y-72452380D01*
X57514285Y-72452380D01*
X57419047Y-72404761D01*
X57371428Y-72357142D01*
%TO.C,J13*%
X48990476Y-71652380D02*
X48990476Y-72366666D01*
X48942857Y-72509523D01*
X48847619Y-72604761D01*
X48704761Y-72652380D01*
X48609523Y-72652380D01*
X49990476Y-72652380D02*
X49419047Y-72652380D01*
X49704761Y-72652380D02*
X49704761Y-71652380D01*
X49609523Y-71795238D01*
X49514285Y-71890476D01*
X49419047Y-71938095D01*
X50323809Y-71652380D02*
X50942857Y-71652380D01*
X50609523Y-72033333D01*
X50752380Y-72033333D01*
X50847619Y-72080952D01*
X50895238Y-72128571D01*
X50942857Y-72223809D01*
X50942857Y-72461904D01*
X50895238Y-72557142D01*
X50847619Y-72604761D01*
X50752380Y-72652380D01*
X50466666Y-72652380D01*
X50371428Y-72604761D01*
X50323809Y-72557142D01*
%TO.C,Je1*%
X103013095Y-45252380D02*
X103013095Y-45966666D01*
X102965476Y-46109523D01*
X102870238Y-46204761D01*
X102727380Y-46252380D01*
X102632142Y-46252380D01*
X103870238Y-46204761D02*
X103775000Y-46252380D01*
X103584523Y-46252380D01*
X103489285Y-46204761D01*
X103441666Y-46109523D01*
X103441666Y-45728571D01*
X103489285Y-45633333D01*
X103584523Y-45585714D01*
X103775000Y-45585714D01*
X103870238Y-45633333D01*
X103917857Y-45728571D01*
X103917857Y-45823809D01*
X103441666Y-45919047D01*
X104870238Y-46252380D02*
X104298809Y-46252380D01*
X104584523Y-46252380D02*
X104584523Y-45252380D01*
X104489285Y-45395238D01*
X104394047Y-45490476D01*
X104298809Y-45538095D01*
%TO.C,U9*%
X89938095Y-42852380D02*
X89938095Y-43661904D01*
X89985714Y-43757142D01*
X90033333Y-43804761D01*
X90128571Y-43852380D01*
X90319047Y-43852380D01*
X90414285Y-43804761D01*
X90461904Y-43757142D01*
X90509523Y-43661904D01*
X90509523Y-42852380D01*
X91033333Y-43852380D02*
X91223809Y-43852380D01*
X91319047Y-43804761D01*
X91366666Y-43757142D01*
X91461904Y-43614285D01*
X91509523Y-43423809D01*
X91509523Y-43042857D01*
X91461904Y-42947619D01*
X91414285Y-42900000D01*
X91319047Y-42852380D01*
X91128571Y-42852380D01*
X91033333Y-42900000D01*
X90985714Y-42947619D01*
X90938095Y-43042857D01*
X90938095Y-43280952D01*
X90985714Y-43376190D01*
X91033333Y-43423809D01*
X91128571Y-43471428D01*
X91319047Y-43471428D01*
X91414285Y-43423809D01*
X91461904Y-43376190D01*
X91509523Y-43280952D01*
%TO.C,U7*%
X76338095Y-76052380D02*
X76338095Y-76861904D01*
X76385714Y-76957142D01*
X76433333Y-77004761D01*
X76528571Y-77052380D01*
X76719047Y-77052380D01*
X76814285Y-77004761D01*
X76861904Y-76957142D01*
X76909523Y-76861904D01*
X76909523Y-76052380D01*
X77290476Y-76052380D02*
X77957142Y-76052380D01*
X77528571Y-77052380D01*
%TO.C,R13*%
X101957142Y-42252380D02*
X101623809Y-41776190D01*
X101385714Y-42252380D02*
X101385714Y-41252380D01*
X101766666Y-41252380D01*
X101861904Y-41300000D01*
X101909523Y-41347619D01*
X101957142Y-41442857D01*
X101957142Y-41585714D01*
X101909523Y-41680952D01*
X101861904Y-41728571D01*
X101766666Y-41776190D01*
X101385714Y-41776190D01*
X102909523Y-42252380D02*
X102338095Y-42252380D01*
X102623809Y-42252380D02*
X102623809Y-41252380D01*
X102528571Y-41395238D01*
X102433333Y-41490476D01*
X102338095Y-41538095D01*
X103242857Y-41252380D02*
X103861904Y-41252380D01*
X103528571Y-41633333D01*
X103671428Y-41633333D01*
X103766666Y-41680952D01*
X103814285Y-41728571D01*
X103861904Y-41823809D01*
X103861904Y-42061904D01*
X103814285Y-42157142D01*
X103766666Y-42204761D01*
X103671428Y-42252380D01*
X103385714Y-42252380D01*
X103290476Y-42204761D01*
X103242857Y-42157142D01*
%TO.C,J11*%
X66565476Y-42012380D02*
X66565476Y-42726666D01*
X66517857Y-42869523D01*
X66422619Y-42964761D01*
X66279761Y-43012380D01*
X66184523Y-43012380D01*
X67565476Y-43012380D02*
X66994047Y-43012380D01*
X67279761Y-43012380D02*
X67279761Y-42012380D01*
X67184523Y-42155238D01*
X67089285Y-42250476D01*
X66994047Y-42298095D01*
X68517857Y-43012380D02*
X67946428Y-43012380D01*
X68232142Y-43012380D02*
X68232142Y-42012380D01*
X68136904Y-42155238D01*
X68041666Y-42250476D01*
X67946428Y-42298095D01*
%TO.C,R17*%
X75022380Y-47042857D02*
X74546190Y-47376190D01*
X75022380Y-47614285D02*
X74022380Y-47614285D01*
X74022380Y-47233333D01*
X74070000Y-47138095D01*
X74117619Y-47090476D01*
X74212857Y-47042857D01*
X74355714Y-47042857D01*
X74450952Y-47090476D01*
X74498571Y-47138095D01*
X74546190Y-47233333D01*
X74546190Y-47614285D01*
X75022380Y-46090476D02*
X75022380Y-46661904D01*
X75022380Y-46376190D02*
X74022380Y-46376190D01*
X74165238Y-46471428D01*
X74260476Y-46566666D01*
X74308095Y-46661904D01*
X74022380Y-45757142D02*
X74022380Y-45090476D01*
X75022380Y-45519047D01*
%TO.C,J2*%
X117566666Y-57452380D02*
X117566666Y-58166666D01*
X117519047Y-58309523D01*
X117423809Y-58404761D01*
X117280952Y-58452380D01*
X117185714Y-58452380D01*
X117995238Y-57547619D02*
X118042857Y-57500000D01*
X118138095Y-57452380D01*
X118376190Y-57452380D01*
X118471428Y-57500000D01*
X118519047Y-57547619D01*
X118566666Y-57642857D01*
X118566666Y-57738095D01*
X118519047Y-57880952D01*
X117947619Y-58452380D01*
X118566666Y-58452380D01*
X113273809Y-58852380D02*
X113464285Y-58852380D01*
X113559523Y-58900000D01*
X113654761Y-58995238D01*
X113702380Y-59185714D01*
X113702380Y-59519047D01*
X113654761Y-59709523D01*
X113559523Y-59804761D01*
X113464285Y-59852380D01*
X113273809Y-59852380D01*
X113178571Y-59804761D01*
X113083333Y-59709523D01*
X113035714Y-59519047D01*
X113035714Y-59185714D01*
X113083333Y-58995238D01*
X113178571Y-58900000D01*
X113273809Y-58852380D01*
X114130952Y-59852380D02*
X114130952Y-58852380D01*
X114130952Y-59233333D02*
X114226190Y-59185714D01*
X114416666Y-59185714D01*
X114511904Y-59233333D01*
X114559523Y-59280952D01*
X114607142Y-59376190D01*
X114607142Y-59661904D01*
X114559523Y-59757142D01*
X114511904Y-59804761D01*
X114416666Y-59852380D01*
X114226190Y-59852380D01*
X114130952Y-59804761D01*
X115035714Y-59185714D02*
X115035714Y-60042857D01*
X114988095Y-60138095D01*
X114892857Y-60185714D01*
X114845238Y-60185714D01*
X115035714Y-58852380D02*
X114988095Y-58900000D01*
X115035714Y-58947619D01*
X115083333Y-58900000D01*
X115035714Y-58852380D01*
X115035714Y-58947619D01*
X115892857Y-59804761D02*
X115797619Y-59852380D01*
X115607142Y-59852380D01*
X115511904Y-59804761D01*
X115464285Y-59709523D01*
X115464285Y-59328571D01*
X115511904Y-59233333D01*
X115607142Y-59185714D01*
X115797619Y-59185714D01*
X115892857Y-59233333D01*
X115940476Y-59328571D01*
X115940476Y-59423809D01*
X115464285Y-59519047D01*
X116797619Y-59804761D02*
X116702380Y-59852380D01*
X116511904Y-59852380D01*
X116416666Y-59804761D01*
X116369047Y-59757142D01*
X116321428Y-59661904D01*
X116321428Y-59376190D01*
X116369047Y-59280952D01*
X116416666Y-59233333D01*
X116511904Y-59185714D01*
X116702380Y-59185714D01*
X116797619Y-59233333D01*
X117083333Y-59185714D02*
X117464285Y-59185714D01*
X117226190Y-58852380D02*
X117226190Y-59709523D01*
X117273809Y-59804761D01*
X117369047Y-59852380D01*
X117464285Y-59852380D01*
X117797619Y-59852380D02*
X117797619Y-59185714D01*
X117797619Y-58852380D02*
X117750000Y-58900000D01*
X117797619Y-58947619D01*
X117845238Y-58900000D01*
X117797619Y-58852380D01*
X117797619Y-58947619D01*
X118178571Y-59185714D02*
X118416666Y-59852380D01*
X118654761Y-59185714D01*
X119416666Y-59804761D02*
X119321428Y-59852380D01*
X119130952Y-59852380D01*
X119035714Y-59804761D01*
X118988095Y-59709523D01*
X118988095Y-59328571D01*
X119035714Y-59233333D01*
X119130952Y-59185714D01*
X119321428Y-59185714D01*
X119416666Y-59233333D01*
X119464285Y-59328571D01*
X119464285Y-59423809D01*
X118988095Y-59519047D01*
%TO.C,J10*%
X29530476Y-71752380D02*
X29530476Y-72466666D01*
X29482857Y-72609523D01*
X29387619Y-72704761D01*
X29244761Y-72752380D01*
X29149523Y-72752380D01*
X30530476Y-72752380D02*
X29959047Y-72752380D01*
X30244761Y-72752380D02*
X30244761Y-71752380D01*
X30149523Y-71895238D01*
X30054285Y-71990476D01*
X29959047Y-72038095D01*
X31149523Y-71752380D02*
X31244761Y-71752380D01*
X31340000Y-71800000D01*
X31387619Y-71847619D01*
X31435238Y-71942857D01*
X31482857Y-72133333D01*
X31482857Y-72371428D01*
X31435238Y-72561904D01*
X31387619Y-72657142D01*
X31340000Y-72704761D01*
X31244761Y-72752380D01*
X31149523Y-72752380D01*
X31054285Y-72704761D01*
X31006666Y-72657142D01*
X30959047Y-72561904D01*
X30911428Y-72371428D01*
X30911428Y-72133333D01*
X30959047Y-71942857D01*
X31006666Y-71847619D01*
X31054285Y-71800000D01*
X31149523Y-71752380D01*
%TO.C,J6*%
X47066666Y-42252380D02*
X47066666Y-42966666D01*
X47019047Y-43109523D01*
X46923809Y-43204761D01*
X46780952Y-43252380D01*
X46685714Y-43252380D01*
X47971428Y-42252380D02*
X47780952Y-42252380D01*
X47685714Y-42300000D01*
X47638095Y-42347619D01*
X47542857Y-42490476D01*
X47495238Y-42680952D01*
X47495238Y-43061904D01*
X47542857Y-43157142D01*
X47590476Y-43204761D01*
X47685714Y-43252380D01*
X47876190Y-43252380D01*
X47971428Y-43204761D01*
X48019047Y-43157142D01*
X48066666Y-43061904D01*
X48066666Y-42823809D01*
X48019047Y-42728571D01*
X47971428Y-42680952D01*
X47876190Y-42633333D01*
X47685714Y-42633333D01*
X47590476Y-42680952D01*
X47542857Y-42728571D01*
X47495238Y-42823809D01*
X62547619Y-45652380D02*
X62547619Y-46366666D01*
X62500000Y-46509523D01*
X62404761Y-46604761D01*
X62261904Y-46652380D01*
X62166666Y-46652380D01*
X63166666Y-46652380D02*
X63071428Y-46604761D01*
X63023809Y-46557142D01*
X62976190Y-46461904D01*
X62976190Y-46176190D01*
X63023809Y-46080952D01*
X63071428Y-46033333D01*
X63166666Y-45985714D01*
X63309523Y-45985714D01*
X63404761Y-46033333D01*
X63452380Y-46080952D01*
X63500000Y-46176190D01*
X63500000Y-46461904D01*
X63452380Y-46557142D01*
X63404761Y-46604761D01*
X63309523Y-46652380D01*
X63166666Y-46652380D01*
X63833333Y-45985714D02*
X64071428Y-46652380D01*
X64309523Y-45985714D02*
X64071428Y-46652380D01*
X63976190Y-46890476D01*
X63928571Y-46938095D01*
X63833333Y-46985714D01*
X64642857Y-46604761D02*
X64738095Y-46652380D01*
X64928571Y-46652380D01*
X65023809Y-46604761D01*
X65071428Y-46509523D01*
X65071428Y-46461904D01*
X65023809Y-46366666D01*
X64928571Y-46319047D01*
X64785714Y-46319047D01*
X64690476Y-46271428D01*
X64642857Y-46176190D01*
X64642857Y-46128571D01*
X64690476Y-46033333D01*
X64785714Y-45985714D01*
X64928571Y-45985714D01*
X65023809Y-46033333D01*
X65357142Y-45985714D02*
X65738095Y-45985714D01*
X65500000Y-45652380D02*
X65500000Y-46509523D01*
X65547619Y-46604761D01*
X65642857Y-46652380D01*
X65738095Y-46652380D01*
X66071428Y-46652380D02*
X66071428Y-45985714D01*
X66071428Y-45652380D02*
X66023809Y-45700000D01*
X66071428Y-45747619D01*
X66119047Y-45700000D01*
X66071428Y-45652380D01*
X66071428Y-45747619D01*
X66976190Y-46604761D02*
X66880952Y-46652380D01*
X66690476Y-46652380D01*
X66595238Y-46604761D01*
X66547619Y-46557142D01*
X66500000Y-46461904D01*
X66500000Y-46176190D01*
X66547619Y-46080952D01*
X66595238Y-46033333D01*
X66690476Y-45985714D01*
X66880952Y-45985714D01*
X66976190Y-46033333D01*
X67404761Y-46652380D02*
X67404761Y-45652380D01*
X67500000Y-46271428D02*
X67785714Y-46652380D01*
X67785714Y-45985714D02*
X67404761Y-46366666D01*
D11*
%TO.C,J8*%
X68025000Y-71820000D02*
X69355000Y-71820000D01*
X66695000Y-74420000D02*
X66695000Y-77020000D01*
X69355000Y-74420000D02*
X69355000Y-77020000D01*
X66695000Y-77020000D02*
X69355000Y-77020000D01*
X69355000Y-71820000D02*
X69355000Y-73150000D01*
X66695000Y-74420000D02*
X69355000Y-74420000D01*
%TO.C,Q1*%
X75300000Y-41440000D02*
X73400000Y-41440000D01*
X73900000Y-43760000D02*
X75300000Y-43760000D01*
%TO.C,J1*%
X39070000Y-77280000D02*
X37740000Y-77280000D01*
X39070000Y-75950000D02*
X39070000Y-77280000D01*
X36470000Y-74620000D02*
X33870000Y-74620000D01*
X36470000Y-74620000D02*
X36470000Y-77280000D01*
X36470000Y-77280000D02*
X33870000Y-77280000D01*
X33870000Y-74620000D02*
X33870000Y-77280000D01*
%TO.C,K1*%
X54550000Y-39940000D02*
X55750000Y-39940000D01*
X53750000Y-42840000D02*
X53750000Y-42140000D01*
X55750000Y-39940000D02*
X55750000Y-39240000D01*
X59950000Y-42740000D02*
X58950000Y-42740000D01*
X55750000Y-36440000D02*
X57750000Y-36440000D01*
X55150000Y-39240000D02*
X55150000Y-38140000D01*
X62150000Y-42740000D02*
X61150000Y-42740000D01*
X54550000Y-39240000D02*
X54550000Y-39940000D01*
X63350000Y-42740000D02*
X64050000Y-42740000D01*
X54550000Y-42840000D02*
X53750000Y-42840000D01*
X61150000Y-36440000D02*
X62150000Y-36440000D01*
X53850000Y-42740000D02*
X53850000Y-36440000D01*
X54550000Y-42740000D02*
X53850000Y-42740000D01*
X55150000Y-39940000D02*
X55150000Y-41040000D01*
X55750000Y-39240000D02*
X54550000Y-39240000D01*
X53850000Y-36440000D02*
X54550000Y-36440000D01*
X58950000Y-36440000D02*
X59950000Y-36440000D01*
X55350000Y-39940000D02*
X54950000Y-39240000D01*
X64050000Y-36440000D02*
X64050000Y-42740000D01*
X57750000Y-42740000D02*
X55750000Y-42740000D01*
X63350000Y-36440000D02*
X64050000Y-36440000D01*
%TO.C,J5*%
X65330000Y-71870000D02*
X65330000Y-73200000D01*
X65330000Y-74470000D02*
X65330000Y-77070000D01*
X64000000Y-71870000D02*
X65330000Y-71870000D01*
X62670000Y-74470000D02*
X62670000Y-77070000D01*
X62670000Y-74470000D02*
X65330000Y-74470000D01*
X62670000Y-77070000D02*
X65330000Y-77070000D01*
%TO.C,U13*%
X78370000Y-33320000D02*
X101230000Y-33320000D01*
X101230000Y-33320000D02*
X101230000Y-43480000D01*
X101230000Y-43480000D02*
X78370000Y-43480000D01*
X78370000Y-43480000D02*
X78370000Y-33320000D01*
%TO.C,J14*%
X42870000Y-74670000D02*
X42870000Y-77270000D01*
X42870000Y-74670000D02*
X45530000Y-74670000D01*
X44200000Y-72070000D02*
X45530000Y-72070000D01*
X45530000Y-74670000D02*
X45530000Y-77270000D01*
X42870000Y-77270000D02*
X45530000Y-77270000D01*
X45530000Y-72070000D02*
X45530000Y-73400000D01*
%TO.C,U11*%
X78360000Y-55080000D02*
X101220000Y-55080000D01*
X101220000Y-55080000D02*
X101220000Y-65240000D01*
X101220000Y-65240000D02*
X78360000Y-65240000D01*
X78360000Y-65240000D02*
X78360000Y-55080000D01*
%TO.C,J9*%
X103750000Y-55120000D02*
X105080000Y-55120000D01*
X102420000Y-60320000D02*
X105080000Y-60320000D01*
X105080000Y-55120000D02*
X105080000Y-56450000D01*
X102420000Y-57720000D02*
X105080000Y-57720000D01*
X102420000Y-57720000D02*
X102420000Y-60320000D01*
X105080000Y-57720000D02*
X105080000Y-60320000D01*
%TO.C,C1*%
X109160000Y-75701000D02*
X107388000Y-75701000D01*
X112505000Y-76381000D02*
X111240000Y-76381000D01*
X112465000Y-76421000D02*
X107935000Y-76421000D01*
X109160000Y-76341000D02*
X107857000Y-76341000D01*
X109160000Y-75901000D02*
X107510000Y-75901000D01*
X113430000Y-74100000D02*
X106970000Y-74100000D01*
X113247000Y-75181000D02*
X111240000Y-75181000D01*
X111976000Y-76821000D02*
X108424000Y-76821000D01*
X113367000Y-74740000D02*
X111240000Y-74740000D01*
X109160000Y-76261000D02*
X107784000Y-76261000D01*
X109160000Y-76141000D02*
X107684000Y-76141000D01*
X109160000Y-75381000D02*
X107230000Y-75381000D01*
X110602000Y-77341000D02*
X109798000Y-77341000D01*
X109160000Y-75741000D02*
X107410000Y-75741000D01*
X112337000Y-76541000D02*
X108063000Y-76541000D01*
X109160000Y-76221000D02*
X107750000Y-76221000D01*
X112890000Y-75901000D02*
X111240000Y-75901000D01*
X109160000Y-75341000D02*
X107214000Y-75341000D01*
X109160000Y-74620000D02*
X107011000Y-74620000D01*
X111550000Y-77061000D02*
X108850000Y-77061000D01*
X111140000Y-77221000D02*
X109260000Y-77221000D01*
X112424000Y-76461000D02*
X107976000Y-76461000D01*
X113430000Y-74180000D02*
X106970000Y-74180000D01*
X109160000Y-75981000D02*
X107564000Y-75981000D01*
X112836000Y-75981000D02*
X111240000Y-75981000D01*
X109160000Y-75101000D02*
X107126000Y-75101000D01*
X113116000Y-75501000D02*
X111240000Y-75501000D01*
X109160000Y-75021000D02*
X107102000Y-75021000D01*
X112966000Y-75781000D02*
X111240000Y-75781000D01*
X109160000Y-76381000D02*
X107895000Y-76381000D01*
X109160000Y-75501000D02*
X107284000Y-75501000D01*
X113274000Y-75101000D02*
X111240000Y-75101000D01*
X111709000Y-76981000D02*
X108691000Y-76981000D01*
X113331000Y-74901000D02*
X111240000Y-74901000D01*
X112090000Y-76741000D02*
X108310000Y-76741000D01*
X113012000Y-75701000D02*
X111240000Y-75701000D01*
X111259000Y-77181000D02*
X109141000Y-77181000D01*
X109160000Y-75941000D02*
X107536000Y-75941000D01*
X111462000Y-77101000D02*
X108938000Y-77101000D01*
X113298000Y-75021000D02*
X111240000Y-75021000D01*
X113286000Y-75061000D02*
X111240000Y-75061000D01*
X112039000Y-70599759D02*
X112039000Y-71229759D01*
X112748000Y-76101000D02*
X111240000Y-76101000D01*
X112580000Y-76301000D02*
X111240000Y-76301000D01*
X113350000Y-74821000D02*
X111240000Y-74821000D01*
X113375000Y-74700000D02*
X111240000Y-74700000D01*
X109160000Y-75621000D02*
X107344000Y-75621000D01*
X112778000Y-76061000D02*
X111240000Y-76061000D01*
X112716000Y-76141000D02*
X111240000Y-76141000D01*
X112382000Y-76501000D02*
X108018000Y-76501000D01*
X109160000Y-75781000D02*
X107434000Y-75781000D01*
X112684000Y-76181000D02*
X111240000Y-76181000D01*
X109160000Y-74380000D02*
X106982000Y-74380000D01*
X109160000Y-76101000D02*
X107652000Y-76101000D01*
X113422000Y-74340000D02*
X111240000Y-74340000D01*
X109160000Y-76181000D02*
X107716000Y-76181000D01*
X113261000Y-75141000D02*
X111240000Y-75141000D01*
X109160000Y-74740000D02*
X107033000Y-74740000D01*
X113427000Y-74260000D02*
X106973000Y-74260000D01*
X109160000Y-74941000D02*
X107079000Y-74941000D01*
X113134000Y-75461000D02*
X111240000Y-75461000D01*
X112543000Y-76341000D02*
X111240000Y-76341000D01*
X113411000Y-74460000D02*
X111240000Y-74460000D01*
X109160000Y-75461000D02*
X107266000Y-75461000D01*
X109160000Y-74821000D02*
X107050000Y-74821000D01*
X113424000Y-74300000D02*
X106976000Y-74300000D01*
X111914000Y-76861000D02*
X108486000Y-76861000D01*
X109160000Y-75661000D02*
X107366000Y-75661000D01*
X111632000Y-77021000D02*
X108768000Y-77021000D01*
X112916000Y-75861000D02*
X111240000Y-75861000D01*
X113096000Y-75541000D02*
X111240000Y-75541000D01*
X111850000Y-76901000D02*
X108550000Y-76901000D01*
X109160000Y-75261000D02*
X107182000Y-75261000D01*
X109160000Y-76061000D02*
X107622000Y-76061000D01*
X109160000Y-76021000D02*
X107593000Y-76021000D01*
X109160000Y-75861000D02*
X107484000Y-75861000D01*
X111002000Y-77261000D02*
X109398000Y-77261000D01*
X113034000Y-75661000D02*
X111240000Y-75661000D01*
X113401000Y-74540000D02*
X111240000Y-74540000D01*
X109160000Y-75141000D02*
X107139000Y-75141000D01*
X109160000Y-75541000D02*
X107304000Y-75541000D01*
X112942000Y-75821000D02*
X111240000Y-75821000D01*
X113233000Y-75221000D02*
X111240000Y-75221000D01*
X109160000Y-74500000D02*
X106994000Y-74500000D01*
X111781000Y-76941000D02*
X108619000Y-76941000D01*
X112034000Y-76781000D02*
X108366000Y-76781000D01*
X113395000Y-74580000D02*
X111240000Y-74580000D01*
X112616000Y-76261000D02*
X111240000Y-76261000D01*
X112244000Y-76621000D02*
X108156000Y-76621000D01*
X109160000Y-76301000D02*
X107820000Y-76301000D01*
X113406000Y-74500000D02*
X111240000Y-74500000D01*
X113415000Y-74420000D02*
X111240000Y-74420000D01*
X113218000Y-75261000D02*
X111240000Y-75261000D01*
X112864000Y-75941000D02*
X111240000Y-75941000D01*
X109160000Y-75421000D02*
X107248000Y-75421000D01*
X113202000Y-75301000D02*
X111240000Y-75301000D01*
X112650000Y-76221000D02*
X111240000Y-76221000D01*
X112354000Y-70914759D02*
X111724000Y-70914759D01*
X112292000Y-76581000D02*
X108108000Y-76581000D01*
X109160000Y-74861000D02*
X107059000Y-74861000D01*
X109160000Y-74981000D02*
X107090000Y-74981000D01*
X113310000Y-74981000D02*
X111240000Y-74981000D01*
X109160000Y-74420000D02*
X106985000Y-74420000D01*
X109160000Y-75301000D02*
X107198000Y-75301000D01*
X113056000Y-75621000D02*
X111240000Y-75621000D01*
X109160000Y-74901000D02*
X107069000Y-74901000D01*
X109160000Y-75581000D02*
X107324000Y-75581000D01*
X112144000Y-76701000D02*
X108256000Y-76701000D01*
X109160000Y-74780000D02*
X107041000Y-74780000D01*
X113418000Y-74380000D02*
X111240000Y-74380000D01*
X109160000Y-74660000D02*
X107018000Y-74660000D01*
X113359000Y-74780000D02*
X111240000Y-74780000D01*
X113428000Y-74220000D02*
X106972000Y-74220000D01*
X109160000Y-74460000D02*
X106989000Y-74460000D01*
X113341000Y-74861000D02*
X111240000Y-74861000D01*
X111365000Y-77141000D02*
X109035000Y-77141000D01*
X112990000Y-75741000D02*
X111240000Y-75741000D01*
X109160000Y-74580000D02*
X107005000Y-74580000D01*
X112807000Y-76021000D02*
X111240000Y-76021000D01*
X109160000Y-74700000D02*
X107025000Y-74700000D01*
X113152000Y-75421000D02*
X111240000Y-75421000D01*
X113186000Y-75341000D02*
X111240000Y-75341000D01*
X109160000Y-75221000D02*
X107167000Y-75221000D01*
X109160000Y-75061000D02*
X107114000Y-75061000D01*
X113389000Y-74620000D02*
X111240000Y-74620000D01*
X109160000Y-75181000D02*
X107153000Y-75181000D01*
X109160000Y-75821000D02*
X107458000Y-75821000D01*
X112195000Y-76661000D02*
X108205000Y-76661000D01*
X109160000Y-74340000D02*
X106978000Y-74340000D01*
X113076000Y-75581000D02*
X111240000Y-75581000D01*
X110833000Y-77301000D02*
X109567000Y-77301000D01*
X113430000Y-74140000D02*
X106970000Y-74140000D01*
X113170000Y-75381000D02*
X111240000Y-75381000D01*
X113382000Y-74660000D02*
X111240000Y-74660000D01*
X113321000Y-74941000D02*
X111240000Y-74941000D01*
X109160000Y-74540000D02*
X106999000Y-74540000D01*
X113470000Y-74100000D02*
G75*
G03*
X113470000Y-74100000I-3270000J0D01*
G01*
%TO.C,C9*%
X106429000Y-44957000D02*
X106429000Y-43390000D01*
X105149000Y-42983000D02*
X105149000Y-41717000D01*
X106389000Y-44928000D02*
X106389000Y-43390000D01*
X107710000Y-45517000D02*
X107710000Y-43390000D01*
X105229000Y-43290000D02*
X105229000Y-41410000D01*
X107629000Y-41310000D02*
X107629000Y-39200000D01*
X106749000Y-41310000D02*
X106749000Y-39538000D01*
X106829000Y-45206000D02*
X106829000Y-43390000D01*
X107990000Y-41310000D02*
X107990000Y-39139000D01*
X107509000Y-41310000D02*
X107509000Y-39229000D01*
X106109000Y-44693000D02*
X106109000Y-43390000D01*
X107069000Y-45320000D02*
X107069000Y-43390000D01*
X105909000Y-44487000D02*
X105909000Y-40213000D01*
X105309000Y-43515000D02*
X105309000Y-41185000D01*
X107069000Y-41310000D02*
X107069000Y-39380000D01*
X106149000Y-44730000D02*
X106149000Y-43390000D01*
X106589000Y-41310000D02*
X106589000Y-39634000D01*
X106949000Y-45266000D02*
X106949000Y-43390000D01*
X107109000Y-41310000D02*
X107109000Y-39364000D01*
X106269000Y-44834000D02*
X106269000Y-43390000D01*
X108030000Y-45565000D02*
X108030000Y-43390000D01*
X105749000Y-44294000D02*
X105749000Y-40406000D01*
X106869000Y-45226000D02*
X106869000Y-43390000D01*
X108070000Y-45568000D02*
X108070000Y-43390000D01*
X107870000Y-45545000D02*
X107870000Y-43390000D01*
X105709000Y-44240000D02*
X105709000Y-40460000D01*
X107710000Y-41310000D02*
X107710000Y-39183000D01*
X106989000Y-41310000D02*
X106989000Y-39416000D01*
X107309000Y-41310000D02*
X107309000Y-39289000D01*
X108110000Y-41310000D02*
X108110000Y-39128000D01*
X107029000Y-41310000D02*
X107029000Y-39398000D01*
X105869000Y-44442000D02*
X105869000Y-40258000D01*
X107269000Y-41310000D02*
X107269000Y-39303000D01*
X107349000Y-45424000D02*
X107349000Y-43390000D01*
X107269000Y-45397000D02*
X107269000Y-43390000D01*
X107109000Y-45336000D02*
X107109000Y-43390000D01*
X106349000Y-44898000D02*
X106349000Y-43390000D01*
X105389000Y-43700000D02*
X105389000Y-41000000D01*
X107790000Y-41310000D02*
X107790000Y-39168000D01*
X107389000Y-41310000D02*
X107389000Y-39264000D01*
X106469000Y-44986000D02*
X106469000Y-43390000D01*
X106109000Y-41310000D02*
X106109000Y-40007000D01*
X107629000Y-45500000D02*
X107629000Y-43390000D01*
X106269000Y-41310000D02*
X106269000Y-39866000D01*
X107670000Y-41310000D02*
X107670000Y-39191000D01*
X105669000Y-44184000D02*
X105669000Y-40516000D01*
X106509000Y-45014000D02*
X106509000Y-43390000D01*
X106869000Y-41310000D02*
X106869000Y-39474000D01*
X106829000Y-41310000D02*
X106829000Y-39494000D01*
X105189000Y-43152000D02*
X105189000Y-41548000D01*
X105629000Y-44126000D02*
X105629000Y-40574000D01*
X106229000Y-44800000D02*
X106229000Y-43390000D01*
X106349000Y-41310000D02*
X106349000Y-39802000D01*
X106189000Y-41310000D02*
X106189000Y-39934000D01*
X106629000Y-45092000D02*
X106629000Y-43390000D01*
X107589000Y-45491000D02*
X107589000Y-43390000D01*
X107990000Y-45561000D02*
X107990000Y-43390000D01*
X107349000Y-41310000D02*
X107349000Y-39276000D01*
X106549000Y-41310000D02*
X106549000Y-39660000D01*
X106389000Y-41310000D02*
X106389000Y-39772000D01*
X106629000Y-41310000D02*
X106629000Y-39608000D01*
X106949000Y-41310000D02*
X106949000Y-39434000D01*
X107509000Y-45471000D02*
X107509000Y-43390000D01*
X106429000Y-41310000D02*
X106429000Y-39743000D01*
X108230000Y-45578000D02*
X108230000Y-39122000D01*
X107910000Y-41310000D02*
X107910000Y-39149000D01*
X105429000Y-43782000D02*
X105429000Y-40918000D01*
X111850241Y-44189000D02*
X111220241Y-44189000D01*
X106149000Y-41310000D02*
X106149000Y-39970000D01*
X106709000Y-41310000D02*
X106709000Y-39560000D01*
X107549000Y-41310000D02*
X107549000Y-39219000D01*
X105469000Y-43859000D02*
X105469000Y-40841000D01*
X105549000Y-44000000D02*
X105549000Y-40700000D01*
X108310000Y-45580000D02*
X108310000Y-39120000D01*
X106749000Y-45162000D02*
X106749000Y-43390000D01*
X108150000Y-45574000D02*
X108150000Y-39126000D01*
X107229000Y-41310000D02*
X107229000Y-39317000D01*
X106909000Y-45246000D02*
X106909000Y-43390000D01*
X106669000Y-45116000D02*
X106669000Y-43390000D01*
X107189000Y-45368000D02*
X107189000Y-43390000D01*
X106549000Y-45040000D02*
X106549000Y-43390000D01*
X107790000Y-45532000D02*
X107790000Y-43390000D01*
X108190000Y-45577000D02*
X108190000Y-39123000D01*
X107149000Y-45352000D02*
X107149000Y-43390000D01*
X106069000Y-41310000D02*
X106069000Y-40045000D01*
X108270000Y-45580000D02*
X108270000Y-39120000D01*
X108070000Y-41310000D02*
X108070000Y-39132000D01*
X107910000Y-45551000D02*
X107910000Y-43390000D01*
X111535241Y-44504000D02*
X111535241Y-43874000D01*
X106589000Y-45066000D02*
X106589000Y-43390000D01*
X106989000Y-45284000D02*
X106989000Y-43390000D01*
X107469000Y-41310000D02*
X107469000Y-39240000D01*
X107589000Y-41310000D02*
X107589000Y-39209000D01*
X107389000Y-45436000D02*
X107389000Y-43390000D01*
X106909000Y-41310000D02*
X106909000Y-39454000D01*
X105789000Y-44345000D02*
X105789000Y-40355000D01*
X107469000Y-45460000D02*
X107469000Y-43390000D01*
X105589000Y-44064000D02*
X105589000Y-40636000D01*
X107830000Y-41310000D02*
X107830000Y-39161000D01*
X107549000Y-45481000D02*
X107549000Y-43390000D01*
X107149000Y-41310000D02*
X107149000Y-39348000D01*
X108350000Y-45580000D02*
X108350000Y-39120000D01*
X106509000Y-41310000D02*
X106509000Y-39686000D01*
X105509000Y-43931000D02*
X105509000Y-40769000D01*
X106669000Y-41310000D02*
X106669000Y-39584000D01*
X107229000Y-45383000D02*
X107229000Y-43390000D01*
X108030000Y-41310000D02*
X108030000Y-39135000D01*
X106469000Y-41310000D02*
X106469000Y-39714000D01*
X106789000Y-41310000D02*
X106789000Y-39516000D01*
X108110000Y-45572000D02*
X108110000Y-43390000D01*
X106069000Y-44655000D02*
X106069000Y-43390000D01*
X106189000Y-44766000D02*
X106189000Y-43390000D01*
X106029000Y-44615000D02*
X106029000Y-40085000D01*
X107670000Y-45509000D02*
X107670000Y-43390000D01*
X105109000Y-42752000D02*
X105109000Y-41948000D01*
X105269000Y-43409000D02*
X105269000Y-41291000D01*
X105949000Y-44532000D02*
X105949000Y-40168000D01*
X107029000Y-45302000D02*
X107029000Y-43390000D01*
X107429000Y-45448000D02*
X107429000Y-43390000D01*
X106229000Y-41310000D02*
X106229000Y-39900000D01*
X107950000Y-45556000D02*
X107950000Y-43390000D01*
X107870000Y-41310000D02*
X107870000Y-39155000D01*
X106309000Y-44866000D02*
X106309000Y-43390000D01*
X105829000Y-44394000D02*
X105829000Y-40306000D01*
X106789000Y-45184000D02*
X106789000Y-43390000D01*
X105989000Y-44574000D02*
X105989000Y-40126000D01*
X107830000Y-45539000D02*
X107830000Y-43390000D01*
X106709000Y-45140000D02*
X106709000Y-43390000D01*
X107750000Y-45525000D02*
X107750000Y-43390000D01*
X107429000Y-41310000D02*
X107429000Y-39252000D01*
X107950000Y-41310000D02*
X107950000Y-39144000D01*
X106309000Y-41310000D02*
X106309000Y-39834000D01*
X107189000Y-41310000D02*
X107189000Y-39332000D01*
X107309000Y-45411000D02*
X107309000Y-43390000D01*
X105349000Y-43612000D02*
X105349000Y-41088000D01*
X107750000Y-41310000D02*
X107750000Y-39175000D01*
X111620000Y-42350000D02*
G75*
G03*
X111620000Y-42350000I-3270000J0D01*
G01*
%TO.C,R19*%
X72877500Y-46654724D02*
X72877500Y-46145276D01*
X73922500Y-46654724D02*
X73922500Y-46145276D01*
%TO.C,J3*%
X45155000Y-41620000D02*
X45155000Y-44220000D01*
X42495000Y-44220000D02*
X45155000Y-44220000D01*
X42495000Y-41620000D02*
X42495000Y-44220000D01*
X43825000Y-39020000D02*
X45155000Y-39020000D01*
X42495000Y-41620000D02*
X45155000Y-41620000D01*
X45155000Y-39020000D02*
X45155000Y-40350000D01*
%TO.C,J12*%
X101870000Y-35330000D02*
X104530000Y-35330000D01*
X103200000Y-32730000D02*
X104530000Y-32730000D01*
X104530000Y-35330000D02*
X104530000Y-37930000D01*
X104530000Y-32730000D02*
X104530000Y-34060000D01*
X101870000Y-35330000D02*
X101870000Y-37930000D01*
X101870000Y-37930000D02*
X104530000Y-37930000D01*
%TO.C,J7*%
X101945000Y-73670000D02*
X104605000Y-73670000D01*
X101945000Y-71070000D02*
X104605000Y-71070000D01*
X104605000Y-71070000D02*
X104605000Y-73670000D01*
X101945000Y-71070000D02*
X101945000Y-73670000D01*
X104605000Y-68470000D02*
X104605000Y-69800000D01*
X103275000Y-68470000D02*
X104605000Y-68470000D01*
%TO.C,D8*%
X52400000Y-32550000D02*
X57800000Y-32550000D01*
X52400000Y-32550000D02*
X52400000Y-35850000D01*
X52400000Y-35850000D02*
X57800000Y-35850000D01*
%TO.C,U1*%
X41570000Y-47820000D02*
X31330000Y-47820000D01*
X31330000Y-47820000D02*
X31330000Y-43179000D01*
X34599000Y-47820000D02*
X34599000Y-46310000D01*
X38300000Y-47820000D02*
X38300000Y-46310000D01*
X41570000Y-47820000D02*
X41570000Y-43179000D01*
X41570000Y-43179000D02*
X31330000Y-43179000D01*
X41570000Y-46310000D02*
X31330000Y-46310000D01*
%TO.C,D7*%
X49950000Y-43200000D02*
X53250000Y-43200000D01*
X49950000Y-43200000D02*
X49950000Y-37800000D01*
X53250000Y-43200000D02*
X53250000Y-37800000D01*
%TO.C,U3*%
X26345000Y-69654999D02*
X77205000Y-69655000D01*
X26345000Y-48875000D02*
X26345000Y-55801667D01*
X77205000Y-48875001D02*
X26345000Y-48875000D01*
X77205000Y-69655000D02*
X77205000Y-48875001D01*
X26705000Y-62728333D02*
X26345000Y-62728333D01*
X26345000Y-62728333D02*
X26345000Y-69654999D01*
X26345000Y-55801667D02*
X26705000Y-55801667D01*
X26705000Y-55801667D02*
X26705000Y-62728333D01*
%TO.C,J4*%
X37480000Y-38895000D02*
X34880000Y-38895000D01*
X37480000Y-38895000D02*
X37480000Y-41555000D01*
X40080000Y-40225000D02*
X40080000Y-41555000D01*
X34880000Y-38895000D02*
X34880000Y-41555000D01*
X40080000Y-41555000D02*
X38750000Y-41555000D01*
X37480000Y-41555000D02*
X34880000Y-41555000D01*
%TO.C,J15*%
X61555000Y-71930000D02*
X61555000Y-73260000D01*
X58895000Y-74530000D02*
X61555000Y-74530000D01*
X58895000Y-77130000D02*
X61555000Y-77130000D01*
X61555000Y-74530000D02*
X61555000Y-77130000D01*
X58895000Y-74530000D02*
X58895000Y-77130000D01*
X60225000Y-71930000D02*
X61555000Y-71930000D01*
%TO.C,J13*%
X49870000Y-76130000D02*
X57550000Y-76130000D01*
X49870000Y-76130000D02*
X49870000Y-73470000D01*
X47270000Y-73470000D02*
X48600000Y-73470000D01*
X57550000Y-76130000D02*
X57550000Y-73470000D01*
X47270000Y-74800000D02*
X47270000Y-73470000D01*
X49870000Y-73470000D02*
X57550000Y-73470000D01*
%TO.C,Je1*%
X105105000Y-46370000D02*
X105105000Y-47700000D01*
X103775000Y-46370000D02*
X105105000Y-46370000D01*
X105105000Y-48970000D02*
X105105000Y-51570000D01*
X102445000Y-51570000D02*
X105105000Y-51570000D01*
X102445000Y-48970000D02*
X105105000Y-48970000D01*
X102445000Y-48970000D02*
X102445000Y-51570000D01*
%TO.C,U9*%
X78260000Y-44380000D02*
X101120000Y-44380000D01*
X101120000Y-44380000D02*
X101120000Y-54540000D01*
X101120000Y-54540000D02*
X78260000Y-54540000D01*
X78260000Y-54540000D02*
X78260000Y-44380000D01*
%TO.C,U7*%
X78320000Y-65770000D02*
X101180000Y-65770000D01*
X101180000Y-65770000D02*
X101180000Y-75930000D01*
X101180000Y-75930000D02*
X78320000Y-75930000D01*
X78320000Y-75930000D02*
X78320000Y-65770000D01*
%TO.C,R13*%
X103007776Y-43077500D02*
X103517224Y-43077500D01*
X103007776Y-44122500D02*
X103517224Y-44122500D01*
%TO.C,J11*%
X68705000Y-38460000D02*
X67682530Y-38460000D01*
X66615000Y-39790000D02*
X66045000Y-39790000D01*
X68705000Y-39790000D02*
X68135000Y-39790000D01*
X67067470Y-38460000D02*
X66045000Y-38460000D01*
X66045000Y-39790000D02*
X66045000Y-38460000D01*
X68705000Y-39790000D02*
X68705000Y-38460000D01*
X66045000Y-41185000D02*
X66045000Y-40425000D01*
X67375000Y-41185000D02*
X66045000Y-41185000D01*
%TO.C,R17*%
X76522500Y-46654724D02*
X76522500Y-46145276D01*
X75477500Y-46654724D02*
X75477500Y-46145276D01*
%TO.C,J2*%
X116510000Y-58855000D02*
X115750000Y-58855000D01*
X115115000Y-56195000D02*
X106165000Y-56195000D01*
X106165000Y-56195000D02*
X106165000Y-57217470D01*
X115115000Y-56195000D02*
X115115000Y-56765000D01*
X106165000Y-57832530D02*
X106165000Y-58855000D01*
X115115000Y-58285000D02*
X115115000Y-58855000D01*
X115115000Y-58855000D02*
X106165000Y-58855000D01*
X116510000Y-57525000D02*
X116510000Y-58855000D01*
%TO.C,J10*%
X31670000Y-72250000D02*
X31670000Y-70920000D01*
X34270000Y-73580000D02*
X34270000Y-70920000D01*
X34270000Y-73580000D02*
X41950000Y-73580000D01*
X31670000Y-70920000D02*
X33000000Y-70920000D01*
X34270000Y-70920000D02*
X41950000Y-70920000D01*
X41950000Y-73580000D02*
X41950000Y-70920000D01*
%TO.C,J6*%
X51270000Y-46530000D02*
X51270000Y-43870000D01*
X51270000Y-46530000D02*
X61490000Y-46530000D01*
X48670000Y-45200000D02*
X48670000Y-43870000D01*
X48670000Y-43870000D02*
X50000000Y-43870000D01*
X61490000Y-46530000D02*
X61490000Y-43870000D01*
X51270000Y-43870000D02*
X61490000Y-43870000D01*
%TD*%
M02*
