%TF.GenerationSoftware,KiCad,Pcbnew,(6.0.2)*%
%TF.CreationDate,2023-08-25T19:02:39+03:00*%
%TF.ProjectId,Pistol_Camera_Driver,50697374-6f6c-45f4-9361-6d6572615f44,rev?*%
%TF.SameCoordinates,Original*%
%TF.FileFunction,Soldermask,Bot*%
%TF.FilePolarity,Negative*%
%FSLAX46Y46*%
G04 Gerber Fmt 4.6, Leading zero omitted, Abs format (unit mm)*
G04 Created by KiCad (PCBNEW (6.0.2)) date 2023-08-25 19:02:39*
%MOMM*%
%LPD*%
G01*
G04 APERTURE LIST*
G04 Aperture macros list*
%AMRoundRect*
0 Rectangle with rounded corners*
0 $1 Rounding radius*
0 $2 $3 $4 $5 $6 $7 $8 $9 X,Y pos of 4 corners*
0 Add a 4 corners polygon primitive as box body*
4,1,4,$2,$3,$4,$5,$6,$7,$8,$9,$2,$3,0*
0 Add four circle primitives for the rounded corners*
1,1,$1+$1,$2,$3*
1,1,$1+$1,$4,$5*
1,1,$1+$1,$6,$7*
1,1,$1+$1,$8,$9*
0 Add four rect primitives between the rounded corners*
20,1,$1+$1,$2,$3,$4,$5,0*
20,1,$1+$1,$4,$5,$6,$7,0*
20,1,$1+$1,$6,$7,$8,$9,0*
20,1,$1+$1,$8,$9,$2,$3,0*%
G04 Aperture macros list end*
%ADD10R,1.700000X1.700000*%
%ADD11O,1.700000X1.700000*%
%ADD12C,1.400000*%
%ADD13C,1.524000*%
%ADD14C,3.200000*%
%ADD15R,1.600000X1.600000*%
%ADD16C,1.600000*%
%ADD17R,1.905000X2.000000*%
%ADD18O,1.905000X2.000000*%
%ADD19O,1.600000X4.000000*%
%ADD20R,1.000000X1.000000*%
%ADD21O,1.000000X1.000000*%
%ADD22R,1.560000X0.650000*%
%ADD23RoundRect,0.237500X-0.300000X-0.237500X0.300000X-0.237500X0.300000X0.237500X-0.300000X0.237500X0*%
%ADD24RoundRect,0.237500X-0.250000X-0.237500X0.250000X-0.237500X0.250000X0.237500X-0.250000X0.237500X0*%
%ADD25RoundRect,0.237500X0.250000X0.237500X-0.250000X0.237500X-0.250000X-0.237500X0.250000X-0.237500X0*%
%ADD26RoundRect,0.237500X-0.237500X0.250000X-0.237500X-0.250000X0.237500X-0.250000X0.237500X0.250000X0*%
%ADD27RoundRect,0.237500X0.237500X-0.250000X0.237500X0.250000X-0.237500X0.250000X-0.237500X-0.250000X0*%
%ADD28RoundRect,0.237500X0.300000X0.237500X-0.300000X0.237500X-0.300000X-0.237500X0.300000X-0.237500X0*%
%ADD29R,1.100000X4.600000*%
%ADD30R,10.800000X9.400000*%
%ADD31RoundRect,0.237500X-0.237500X0.300000X-0.237500X-0.300000X0.237500X-0.300000X0.237500X0.300000X0*%
%ADD32R,0.300000X1.550000*%
%ADD33R,7.800000X3.400000*%
%ADD34RoundRect,0.237500X0.237500X-0.300000X0.237500X0.300000X-0.237500X0.300000X-0.237500X-0.300000X0*%
G04 APERTURE END LIST*
D10*
%TO.C,J8*%
X68025000Y-73150000D03*
D11*
X68025000Y-75690000D03*
%TD*%
D10*
%TO.C,J1*%
X37740000Y-75950000D03*
D11*
X35200000Y-75950000D03*
%TD*%
D12*
%TO.C,K1*%
X55150000Y-42140000D03*
X58350000Y-42140000D03*
X60550000Y-42140000D03*
X62750000Y-42140000D03*
X62750000Y-37060000D03*
X60550000Y-37060000D03*
X58350000Y-37060000D03*
X55150000Y-37060000D03*
%TD*%
D10*
%TO.C,J5*%
X64000000Y-73200000D03*
D11*
X64000000Y-75740000D03*
%TD*%
D13*
%TO.C,U13*%
X80910000Y-34590000D03*
X80910000Y-39670000D03*
X80910000Y-42210000D03*
X98690000Y-42210000D03*
X98690000Y-34590000D03*
%TD*%
D14*
%TO.C,REF\u002A\u002A*%
X73645000Y-74650000D03*
%TD*%
D10*
%TO.C,J14*%
X44200000Y-73400000D03*
D11*
X44200000Y-75940000D03*
%TD*%
D14*
%TO.C,REF\u002A\u002A*%
X73645000Y-35650000D03*
%TD*%
D13*
%TO.C,U11*%
X80900000Y-56350000D03*
X80900000Y-61430000D03*
X80900000Y-63970000D03*
X98680000Y-63970000D03*
X98680000Y-56350000D03*
%TD*%
D10*
%TO.C,J9*%
X103750000Y-56450000D03*
D11*
X103750000Y-58990000D03*
%TD*%
D15*
%TO.C,C1*%
X110200000Y-72850000D03*
D16*
X110200000Y-75350000D03*
%TD*%
D15*
%TO.C,C9*%
X109600000Y-42350000D03*
D16*
X107100000Y-42350000D03*
%TD*%
D10*
%TO.C,J3*%
X43825000Y-40350000D03*
D11*
X43825000Y-42890000D03*
%TD*%
D10*
%TO.C,J12*%
X103200000Y-34060000D03*
D11*
X103200000Y-36600000D03*
%TD*%
D10*
%TO.C,J7*%
X103275000Y-69800000D03*
D11*
X103275000Y-72340000D03*
%TD*%
D17*
%TO.C,U1*%
X38990000Y-44550000D03*
D18*
X36450000Y-44550000D03*
X33910000Y-44550000D03*
%TD*%
D19*
%TO.C,U3*%
X27645000Y-68155000D03*
X30185000Y-68155000D03*
X32725000Y-68155000D03*
X35265000Y-68155000D03*
X37805000Y-68155000D03*
X40345000Y-68155000D03*
X42885000Y-68155000D03*
X45425000Y-68155000D03*
X47965000Y-68155000D03*
X50505000Y-68155000D03*
X53045000Y-68155000D03*
X55585000Y-68155000D03*
X58125000Y-68155000D03*
X60665000Y-68155000D03*
X63205000Y-68155000D03*
X65745000Y-68155000D03*
X68285000Y-68155000D03*
X70825000Y-68155000D03*
X73365000Y-68155000D03*
X75905000Y-68155000D03*
X75905000Y-50375000D03*
X73365000Y-50375000D03*
X70825000Y-50375000D03*
X68285000Y-50375000D03*
X65745000Y-50375000D03*
X63205000Y-50375000D03*
X60665000Y-50375000D03*
X58125000Y-50375000D03*
X55585000Y-50375000D03*
X53045000Y-50375000D03*
X50505000Y-50375000D03*
X47965000Y-50375000D03*
X45425000Y-50375000D03*
X42885000Y-50375000D03*
X40345000Y-50375000D03*
X37805000Y-50375000D03*
X35265000Y-50375000D03*
X32725000Y-50375000D03*
X30185000Y-50375000D03*
X27645000Y-50375000D03*
%TD*%
D14*
%TO.C,REF\u002A\u002A*%
X27645000Y-35650000D03*
%TD*%
D10*
%TO.C,J4*%
X38750000Y-40225000D03*
D11*
X36210000Y-40225000D03*
%TD*%
D10*
%TO.C,J15*%
X60225000Y-73260000D03*
D11*
X60225000Y-75800000D03*
%TD*%
D14*
%TO.C,REF\u002A\u002A*%
X117645000Y-74650000D03*
%TD*%
D10*
%TO.C,J13*%
X48600000Y-74800000D03*
D11*
X51140000Y-74800000D03*
X53680000Y-74800000D03*
X56220000Y-74800000D03*
%TD*%
D10*
%TO.C,Je1*%
X103775000Y-47700000D03*
D11*
X103775000Y-50240000D03*
%TD*%
D13*
%TO.C,U9*%
X80800000Y-45650000D03*
X80800000Y-50730000D03*
X80800000Y-53270000D03*
X98580000Y-53270000D03*
X98580000Y-45650000D03*
%TD*%
%TO.C,U7*%
X80860000Y-67040000D03*
X80860000Y-72120000D03*
X80860000Y-74660000D03*
X98640000Y-74660000D03*
X98640000Y-67040000D03*
%TD*%
D14*
%TO.C,REF\u002A\u002A*%
X27645000Y-74650000D03*
%TD*%
D20*
%TO.C,J11*%
X67375000Y-40425000D03*
D21*
X67375000Y-39155000D03*
%TD*%
D20*
%TO.C,J2*%
X115750000Y-57525000D03*
D21*
X114480000Y-57525000D03*
X113210000Y-57525000D03*
X111940000Y-57525000D03*
X110670000Y-57525000D03*
X109400000Y-57525000D03*
X108130000Y-57525000D03*
X106860000Y-57525000D03*
%TD*%
D10*
%TO.C,J10*%
X33000000Y-72250000D03*
D11*
X35540000Y-72250000D03*
X38080000Y-72250000D03*
X40620000Y-72250000D03*
%TD*%
D10*
%TO.C,J6*%
X50000000Y-45200000D03*
D11*
X52540000Y-45200000D03*
X55080000Y-45200000D03*
X57620000Y-45200000D03*
X60160000Y-45200000D03*
%TD*%
D14*
%TO.C,REF\u002A\u002A*%
X117645000Y-35650000D03*
%TD*%
D22*
%TO.C,U12*%
X74250000Y-41550000D03*
X74250000Y-40600000D03*
X74250000Y-39650000D03*
X76950000Y-39650000D03*
X76950000Y-40600000D03*
X76950000Y-41550000D03*
%TD*%
D23*
%TO.C,C12*%
X111950000Y-44000000D03*
X113675000Y-44000000D03*
%TD*%
D24*
%TO.C,R6*%
X88537500Y-47500000D03*
X90362500Y-47500000D03*
%TD*%
D25*
%TO.C,R7*%
X112750000Y-60500000D03*
X110925000Y-60500000D03*
%TD*%
D26*
%TO.C,R10*%
X116550000Y-50437500D03*
X116550000Y-52262500D03*
%TD*%
D27*
%TO.C,R15*%
X81450000Y-59900000D03*
X81450000Y-58075000D03*
%TD*%
D28*
%TO.C,C7*%
X111612500Y-71100000D03*
X109887500Y-71100000D03*
%TD*%
D29*
%TO.C,U2*%
X87810000Y-50850000D03*
D30*
X90350000Y-60000000D03*
D29*
X92890000Y-50850000D03*
%TD*%
D24*
%TO.C,R14*%
X82700000Y-72200000D03*
X84525000Y-72200000D03*
%TD*%
%TO.C,R3*%
X85137500Y-47500000D03*
X86962500Y-47500000D03*
%TD*%
D26*
%TO.C,R9*%
X114900000Y-50387500D03*
X114900000Y-52212500D03*
%TD*%
D27*
%TO.C,R1*%
X104650000Y-65012500D03*
X104650000Y-63187500D03*
%TD*%
%TO.C,R4*%
X103000000Y-65012500D03*
X103000000Y-63187500D03*
%TD*%
D23*
%TO.C,C3*%
X33300000Y-46830000D03*
X35025000Y-46830000D03*
%TD*%
D24*
%TO.C,R2*%
X102900000Y-61600000D03*
X104725000Y-61600000D03*
%TD*%
D23*
%TO.C,C5*%
X106587500Y-73050000D03*
X108312500Y-73050000D03*
%TD*%
%TO.C,C11*%
X108587500Y-43900000D03*
X110312500Y-43900000D03*
%TD*%
D26*
%TO.C,R16*%
X78850000Y-50700000D03*
X78850000Y-52525000D03*
%TD*%
D24*
%TO.C,R12*%
X107200000Y-55200000D03*
X109025000Y-55200000D03*
%TD*%
%TO.C,R8*%
X102550000Y-67000000D03*
X104375000Y-67000000D03*
%TD*%
%TO.C,R5*%
X106337500Y-60200000D03*
X108162500Y-60200000D03*
%TD*%
D22*
%TO.C,U8*%
X70400000Y-56500000D03*
X70400000Y-55550000D03*
X70400000Y-54600000D03*
X73100000Y-54600000D03*
X73100000Y-55550000D03*
X73100000Y-56500000D03*
%TD*%
D28*
%TO.C,C2*%
X38512500Y-46880000D03*
X36787500Y-46880000D03*
%TD*%
D23*
%TO.C,C10*%
X111387500Y-42100000D03*
X113112500Y-42100000D03*
%TD*%
D31*
%TO.C,C6*%
X89750000Y-65975000D03*
X89750000Y-67700000D03*
%TD*%
D22*
%TO.C,U6*%
X70400000Y-64200000D03*
X70400000Y-63250000D03*
X70400000Y-62300000D03*
X73100000Y-62300000D03*
X73100000Y-63250000D03*
X73100000Y-64200000D03*
%TD*%
D25*
%TO.C,R11*%
X113512500Y-54400000D03*
X111687500Y-54400000D03*
%TD*%
D32*
%TO.C,U4*%
X106225000Y-63350000D03*
X106875000Y-63350000D03*
X107525000Y-63350000D03*
X108175000Y-63350000D03*
X108825000Y-63350000D03*
X109475000Y-63350000D03*
X110125000Y-63350000D03*
X110775000Y-63350000D03*
X111425000Y-63350000D03*
X112075000Y-63350000D03*
X112725000Y-63350000D03*
X113375000Y-63350000D03*
X113375000Y-68950000D03*
X112725000Y-68950000D03*
X112075000Y-68950000D03*
X111425000Y-68950000D03*
X110775000Y-68950000D03*
X110125000Y-68950000D03*
X109475000Y-68950000D03*
X108825000Y-68950000D03*
X108175000Y-68950000D03*
X107525000Y-68950000D03*
X106875000Y-68950000D03*
X106225000Y-68950000D03*
D33*
X109800000Y-66150000D03*
%TD*%
D22*
%TO.C,U10*%
X70400000Y-60350000D03*
X70400000Y-59400000D03*
X70400000Y-58450000D03*
X73100000Y-58450000D03*
X73100000Y-59400000D03*
X73100000Y-60350000D03*
%TD*%
D32*
%TO.C,U5*%
X113675000Y-51550000D03*
X113025000Y-51550000D03*
X112375000Y-51550000D03*
X111725000Y-51550000D03*
X111075000Y-51550000D03*
X110425000Y-51550000D03*
X109775000Y-51550000D03*
X109125000Y-51550000D03*
X108475000Y-51550000D03*
X107825000Y-51550000D03*
X107175000Y-51550000D03*
X106525000Y-51550000D03*
X106525000Y-45950000D03*
X107175000Y-45950000D03*
X107825000Y-45950000D03*
X108475000Y-45950000D03*
X109125000Y-45950000D03*
X109775000Y-45950000D03*
X110425000Y-45950000D03*
X111075000Y-45950000D03*
X111725000Y-45950000D03*
X112375000Y-45950000D03*
X113025000Y-45950000D03*
X113675000Y-45950000D03*
D33*
X110100000Y-48750000D03*
%TD*%
D26*
%TO.C,R18*%
X79000000Y-39687500D03*
X79000000Y-41512500D03*
%TD*%
D28*
%TO.C,C8*%
X108262500Y-71050000D03*
X106537500Y-71050000D03*
%TD*%
D34*
%TO.C,C4*%
X93550000Y-45262500D03*
X93550000Y-43537500D03*
%TD*%
M02*
