%TF.GenerationSoftware,KiCad,Pcbnew,(6.0.2)*%
%TF.CreationDate,2023-08-25T19:02:39+03:00*%
%TF.ProjectId,Pistol_Camera_Driver,50697374-6f6c-45f4-9361-6d6572615f44,rev?*%
%TF.SameCoordinates,Original*%
%TF.FileFunction,Soldermask,Top*%
%TF.FilePolarity,Negative*%
%FSLAX46Y46*%
G04 Gerber Fmt 4.6, Leading zero omitted, Abs format (unit mm)*
G04 Created by KiCad (PCBNEW (6.0.2)) date 2023-08-25 19:02:39*
%MOMM*%
%LPD*%
G01*
G04 APERTURE LIST*
G04 Aperture macros list*
%AMRoundRect*
0 Rectangle with rounded corners*
0 $1 Rounding radius*
0 $2 $3 $4 $5 $6 $7 $8 $9 X,Y pos of 4 corners*
0 Add a 4 corners polygon primitive as box body*
4,1,4,$2,$3,$4,$5,$6,$7,$8,$9,$2,$3,0*
0 Add four circle primitives for the rounded corners*
1,1,$1+$1,$2,$3*
1,1,$1+$1,$4,$5*
1,1,$1+$1,$6,$7*
1,1,$1+$1,$8,$9*
0 Add four rect primitives between the rounded corners*
20,1,$1+$1,$2,$3,$4,$5,0*
20,1,$1+$1,$4,$5,$6,$7,0*
20,1,$1+$1,$6,$7,$8,$9,0*
20,1,$1+$1,$8,$9,$2,$3,0*%
G04 Aperture macros list end*
%ADD10R,1.700000X1.700000*%
%ADD11O,1.700000X1.700000*%
%ADD12R,1.500000X0.400000*%
%ADD13C,1.400000*%
%ADD14C,1.524000*%
%ADD15C,3.200000*%
%ADD16R,1.600000X1.600000*%
%ADD17C,1.600000*%
%ADD18RoundRect,0.237500X0.237500X-0.250000X0.237500X0.250000X-0.237500X0.250000X-0.237500X-0.250000X0*%
%ADD19R,2.500000X1.800000*%
%ADD20R,1.905000X2.000000*%
%ADD21O,1.905000X2.000000*%
%ADD22R,1.800000X2.500000*%
%ADD23O,1.600000X4.000000*%
%ADD24RoundRect,0.237500X-0.250000X-0.237500X0.250000X-0.237500X0.250000X0.237500X-0.250000X0.237500X0*%
%ADD25R,1.000000X1.000000*%
%ADD26O,1.000000X1.000000*%
G04 APERTURE END LIST*
D10*
%TO.C,J8*%
X68025000Y-73150000D03*
D11*
X68025000Y-75690000D03*
%TD*%
D12*
%TO.C,Q1*%
X73270000Y-41950000D03*
X73270000Y-42600000D03*
X73270000Y-43250000D03*
X75930000Y-43250000D03*
X75930000Y-42600000D03*
X75930000Y-41950000D03*
%TD*%
D10*
%TO.C,J1*%
X37740000Y-75950000D03*
D11*
X35200000Y-75950000D03*
%TD*%
D13*
%TO.C,K1*%
X55150000Y-42140000D03*
X58350000Y-42140000D03*
X60550000Y-42140000D03*
X62750000Y-42140000D03*
X62750000Y-37060000D03*
X60550000Y-37060000D03*
X58350000Y-37060000D03*
X55150000Y-37060000D03*
%TD*%
D10*
%TO.C,J5*%
X64000000Y-73200000D03*
D11*
X64000000Y-75740000D03*
%TD*%
D14*
%TO.C,U13*%
X80910000Y-34590000D03*
X80910000Y-39670000D03*
X80910000Y-42210000D03*
X98690000Y-42210000D03*
X98690000Y-34590000D03*
%TD*%
D15*
%TO.C,REF\u002A\u002A*%
X73645000Y-74650000D03*
%TD*%
D10*
%TO.C,J14*%
X44200000Y-73400000D03*
D11*
X44200000Y-75940000D03*
%TD*%
D15*
%TO.C,REF\u002A\u002A*%
X73645000Y-35650000D03*
%TD*%
D14*
%TO.C,U11*%
X80900000Y-56350000D03*
X80900000Y-61430000D03*
X80900000Y-63970000D03*
X98680000Y-63970000D03*
X98680000Y-56350000D03*
%TD*%
D10*
%TO.C,J9*%
X103750000Y-56450000D03*
D11*
X103750000Y-58990000D03*
%TD*%
D16*
%TO.C,C1*%
X110200000Y-72850000D03*
D17*
X110200000Y-75350000D03*
%TD*%
D16*
%TO.C,C9*%
X109600000Y-42350000D03*
D17*
X107100000Y-42350000D03*
%TD*%
D18*
%TO.C,R19*%
X73400000Y-47312500D03*
X73400000Y-45487500D03*
%TD*%
D10*
%TO.C,J3*%
X43825000Y-40350000D03*
D11*
X43825000Y-42890000D03*
%TD*%
D10*
%TO.C,J12*%
X103200000Y-34060000D03*
D11*
X103200000Y-36600000D03*
%TD*%
D10*
%TO.C,J7*%
X103275000Y-69800000D03*
D11*
X103275000Y-72340000D03*
%TD*%
D19*
%TO.C,D8*%
X53800000Y-34200000D03*
X57800000Y-34200000D03*
%TD*%
D20*
%TO.C,U1*%
X38990000Y-44550000D03*
D21*
X36450000Y-44550000D03*
X33910000Y-44550000D03*
%TD*%
D22*
%TO.C,D7*%
X51600000Y-41800000D03*
X51600000Y-37800000D03*
%TD*%
D23*
%TO.C,U3*%
X27645000Y-68155000D03*
X30185000Y-68155000D03*
X32725000Y-68155000D03*
X35265000Y-68155000D03*
X37805000Y-68155000D03*
X40345000Y-68155000D03*
X42885000Y-68155000D03*
X45425000Y-68155000D03*
X47965000Y-68155000D03*
X50505000Y-68155000D03*
X53045000Y-68155000D03*
X55585000Y-68155000D03*
X58125000Y-68155000D03*
X60665000Y-68155000D03*
X63205000Y-68155000D03*
X65745000Y-68155000D03*
X68285000Y-68155000D03*
X70825000Y-68155000D03*
X73365000Y-68155000D03*
X75905000Y-68155000D03*
X75905000Y-50375000D03*
X73365000Y-50375000D03*
X70825000Y-50375000D03*
X68285000Y-50375000D03*
X65745000Y-50375000D03*
X63205000Y-50375000D03*
X60665000Y-50375000D03*
X58125000Y-50375000D03*
X55585000Y-50375000D03*
X53045000Y-50375000D03*
X50505000Y-50375000D03*
X47965000Y-50375000D03*
X45425000Y-50375000D03*
X42885000Y-50375000D03*
X40345000Y-50375000D03*
X37805000Y-50375000D03*
X35265000Y-50375000D03*
X32725000Y-50375000D03*
X30185000Y-50375000D03*
X27645000Y-50375000D03*
%TD*%
D15*
%TO.C,REF\u002A\u002A*%
X27645000Y-35650000D03*
%TD*%
D10*
%TO.C,J4*%
X38750000Y-40225000D03*
D11*
X36210000Y-40225000D03*
%TD*%
D10*
%TO.C,J15*%
X60225000Y-73260000D03*
D11*
X60225000Y-75800000D03*
%TD*%
D15*
%TO.C,REF\u002A\u002A*%
X117645000Y-74650000D03*
%TD*%
D10*
%TO.C,J13*%
X48600000Y-74800000D03*
D11*
X51140000Y-74800000D03*
X53680000Y-74800000D03*
X56220000Y-74800000D03*
%TD*%
D10*
%TO.C,Je1*%
X103775000Y-47700000D03*
D11*
X103775000Y-50240000D03*
%TD*%
D14*
%TO.C,U9*%
X80800000Y-45650000D03*
X80800000Y-50730000D03*
X80800000Y-53270000D03*
X98580000Y-53270000D03*
X98580000Y-45650000D03*
%TD*%
%TO.C,U7*%
X80860000Y-67040000D03*
X80860000Y-72120000D03*
X80860000Y-74660000D03*
X98640000Y-74660000D03*
X98640000Y-67040000D03*
%TD*%
D24*
%TO.C,R13*%
X102350000Y-43600000D03*
X104175000Y-43600000D03*
%TD*%
D15*
%TO.C,REF\u002A\u002A*%
X27645000Y-74650000D03*
%TD*%
D25*
%TO.C,J11*%
X67375000Y-40425000D03*
D26*
X67375000Y-39155000D03*
%TD*%
D18*
%TO.C,R17*%
X76000000Y-47312500D03*
X76000000Y-45487500D03*
%TD*%
D25*
%TO.C,J2*%
X115750000Y-57525000D03*
D26*
X114480000Y-57525000D03*
X113210000Y-57525000D03*
X111940000Y-57525000D03*
X110670000Y-57525000D03*
X109400000Y-57525000D03*
X108130000Y-57525000D03*
X106860000Y-57525000D03*
%TD*%
D10*
%TO.C,J10*%
X33000000Y-72250000D03*
D11*
X35540000Y-72250000D03*
X38080000Y-72250000D03*
X40620000Y-72250000D03*
%TD*%
D10*
%TO.C,J6*%
X50000000Y-45200000D03*
D11*
X52540000Y-45200000D03*
X55080000Y-45200000D03*
X57620000Y-45200000D03*
X60160000Y-45200000D03*
%TD*%
D15*
%TO.C,REF\u002A\u002A*%
X117645000Y-35650000D03*
%TD*%
M02*
