%TF.GenerationSoftware,KiCad,Pcbnew,7.0.9*%
%TF.CreationDate,2024-04-29T18:44:07+03:00*%
%TF.ProjectId,Pistol_Camera_Driver,50697374-6f6c-45f4-9361-6d6572615f44,rev?*%
%TF.SameCoordinates,Original*%
%TF.FileFunction,Legend,Top*%
%TF.FilePolarity,Positive*%
%FSLAX46Y46*%
G04 Gerber Fmt 4.6, Leading zero omitted, Abs format (unit mm)*
G04 Created by KiCad (PCBNEW 7.0.9) date 2024-04-29 18:44:07*
%MOMM*%
%LPD*%
G01*
G04 APERTURE LIST*
%ADD10C,0.120000*%
%ADD11C,0.150000*%
G04 APERTURE END LIST*
D10*
X106300000Y-39550000D02*
X106300000Y-40950000D01*
X105500000Y-46950000D02*
X103300000Y-46950000D01*
X105900000Y-47350000D02*
X105500000Y-46950000D01*
X106300000Y-40950000D02*
X107700000Y-41550000D01*
D11*
X66041666Y-63904819D02*
X66041666Y-64619104D01*
X66041666Y-64619104D02*
X65994047Y-64761961D01*
X65994047Y-64761961D02*
X65898809Y-64857200D01*
X65898809Y-64857200D02*
X65755952Y-64904819D01*
X65755952Y-64904819D02*
X65660714Y-64904819D01*
X66660714Y-64333390D02*
X66565476Y-64285771D01*
X66565476Y-64285771D02*
X66517857Y-64238152D01*
X66517857Y-64238152D02*
X66470238Y-64142914D01*
X66470238Y-64142914D02*
X66470238Y-64095295D01*
X66470238Y-64095295D02*
X66517857Y-64000057D01*
X66517857Y-64000057D02*
X66565476Y-63952438D01*
X66565476Y-63952438D02*
X66660714Y-63904819D01*
X66660714Y-63904819D02*
X66851190Y-63904819D01*
X66851190Y-63904819D02*
X66946428Y-63952438D01*
X66946428Y-63952438D02*
X66994047Y-64000057D01*
X66994047Y-64000057D02*
X67041666Y-64095295D01*
X67041666Y-64095295D02*
X67041666Y-64142914D01*
X67041666Y-64142914D02*
X66994047Y-64238152D01*
X66994047Y-64238152D02*
X66946428Y-64285771D01*
X66946428Y-64285771D02*
X66851190Y-64333390D01*
X66851190Y-64333390D02*
X66660714Y-64333390D01*
X66660714Y-64333390D02*
X66565476Y-64381009D01*
X66565476Y-64381009D02*
X66517857Y-64428628D01*
X66517857Y-64428628D02*
X66470238Y-64523866D01*
X66470238Y-64523866D02*
X66470238Y-64714342D01*
X66470238Y-64714342D02*
X66517857Y-64809580D01*
X66517857Y-64809580D02*
X66565476Y-64857200D01*
X66565476Y-64857200D02*
X66660714Y-64904819D01*
X66660714Y-64904819D02*
X66851190Y-64904819D01*
X66851190Y-64904819D02*
X66946428Y-64857200D01*
X66946428Y-64857200D02*
X66994047Y-64809580D01*
X66994047Y-64809580D02*
X67041666Y-64714342D01*
X67041666Y-64714342D02*
X67041666Y-64523866D01*
X67041666Y-64523866D02*
X66994047Y-64428628D01*
X66994047Y-64428628D02*
X66946428Y-64381009D01*
X66946428Y-64381009D02*
X66851190Y-64333390D01*
X79054819Y-34617857D02*
X78578628Y-34951190D01*
X79054819Y-35189285D02*
X78054819Y-35189285D01*
X78054819Y-35189285D02*
X78054819Y-34808333D01*
X78054819Y-34808333D02*
X78102438Y-34713095D01*
X78102438Y-34713095D02*
X78150057Y-34665476D01*
X78150057Y-34665476D02*
X78245295Y-34617857D01*
X78245295Y-34617857D02*
X78388152Y-34617857D01*
X78388152Y-34617857D02*
X78483390Y-34665476D01*
X78483390Y-34665476D02*
X78531009Y-34713095D01*
X78531009Y-34713095D02*
X78578628Y-34808333D01*
X78578628Y-34808333D02*
X78578628Y-35189285D01*
X78150057Y-34236904D02*
X78102438Y-34189285D01*
X78102438Y-34189285D02*
X78054819Y-34094047D01*
X78054819Y-34094047D02*
X78054819Y-33855952D01*
X78054819Y-33855952D02*
X78102438Y-33760714D01*
X78102438Y-33760714D02*
X78150057Y-33713095D01*
X78150057Y-33713095D02*
X78245295Y-33665476D01*
X78245295Y-33665476D02*
X78340533Y-33665476D01*
X78340533Y-33665476D02*
X78483390Y-33713095D01*
X78483390Y-33713095D02*
X79054819Y-34284523D01*
X79054819Y-34284523D02*
X79054819Y-33665476D01*
X78054819Y-33332142D02*
X78054819Y-32713095D01*
X78054819Y-32713095D02*
X78435771Y-33046428D01*
X78435771Y-33046428D02*
X78435771Y-32903571D01*
X78435771Y-32903571D02*
X78483390Y-32808333D01*
X78483390Y-32808333D02*
X78531009Y-32760714D01*
X78531009Y-32760714D02*
X78626247Y-32713095D01*
X78626247Y-32713095D02*
X78864342Y-32713095D01*
X78864342Y-32713095D02*
X78959580Y-32760714D01*
X78959580Y-32760714D02*
X79007200Y-32808333D01*
X79007200Y-32808333D02*
X79054819Y-32903571D01*
X79054819Y-32903571D02*
X79054819Y-33189285D01*
X79054819Y-33189285D02*
X79007200Y-33284523D01*
X79007200Y-33284523D02*
X78959580Y-33332142D01*
X117457142Y-69309580D02*
X117409523Y-69357200D01*
X117409523Y-69357200D02*
X117266666Y-69404819D01*
X117266666Y-69404819D02*
X117171428Y-69404819D01*
X117171428Y-69404819D02*
X117028571Y-69357200D01*
X117028571Y-69357200D02*
X116933333Y-69261961D01*
X116933333Y-69261961D02*
X116885714Y-69166723D01*
X116885714Y-69166723D02*
X116838095Y-68976247D01*
X116838095Y-68976247D02*
X116838095Y-68833390D01*
X116838095Y-68833390D02*
X116885714Y-68642914D01*
X116885714Y-68642914D02*
X116933333Y-68547676D01*
X116933333Y-68547676D02*
X117028571Y-68452438D01*
X117028571Y-68452438D02*
X117171428Y-68404819D01*
X117171428Y-68404819D02*
X117266666Y-68404819D01*
X117266666Y-68404819D02*
X117409523Y-68452438D01*
X117409523Y-68452438D02*
X117457142Y-68500057D01*
X118409523Y-69404819D02*
X117838095Y-69404819D01*
X118123809Y-69404819D02*
X118123809Y-68404819D01*
X118123809Y-68404819D02*
X118028571Y-68547676D01*
X118028571Y-68547676D02*
X117933333Y-68642914D01*
X117933333Y-68642914D02*
X117838095Y-68690533D01*
X118790476Y-68500057D02*
X118838095Y-68452438D01*
X118838095Y-68452438D02*
X118933333Y-68404819D01*
X118933333Y-68404819D02*
X119171428Y-68404819D01*
X119171428Y-68404819D02*
X119266666Y-68452438D01*
X119266666Y-68452438D02*
X119314285Y-68500057D01*
X119314285Y-68500057D02*
X119361904Y-68595295D01*
X119361904Y-68595295D02*
X119361904Y-68690533D01*
X119361904Y-68690533D02*
X119314285Y-68833390D01*
X119314285Y-68833390D02*
X118742857Y-69404819D01*
X118742857Y-69404819D02*
X119361904Y-69404819D01*
X91558333Y-55349819D02*
X91082143Y-55349819D01*
X91082143Y-55349819D02*
X91082143Y-54349819D01*
X91844048Y-54445057D02*
X91891667Y-54397438D01*
X91891667Y-54397438D02*
X91986905Y-54349819D01*
X91986905Y-54349819D02*
X92225000Y-54349819D01*
X92225000Y-54349819D02*
X92320238Y-54397438D01*
X92320238Y-54397438D02*
X92367857Y-54445057D01*
X92367857Y-54445057D02*
X92415476Y-54540295D01*
X92415476Y-54540295D02*
X92415476Y-54635533D01*
X92415476Y-54635533D02*
X92367857Y-54778390D01*
X92367857Y-54778390D02*
X91796429Y-55349819D01*
X91796429Y-55349819D02*
X92415476Y-55349819D01*
X68704761Y-71950057D02*
X68609523Y-71902438D01*
X68609523Y-71902438D02*
X68514285Y-71807200D01*
X68514285Y-71807200D02*
X68371428Y-71664342D01*
X68371428Y-71664342D02*
X68276190Y-71616723D01*
X68276190Y-71616723D02*
X68180952Y-71616723D01*
X68228571Y-71854819D02*
X68133333Y-71807200D01*
X68133333Y-71807200D02*
X68038095Y-71711961D01*
X68038095Y-71711961D02*
X67990476Y-71521485D01*
X67990476Y-71521485D02*
X67990476Y-71188152D01*
X67990476Y-71188152D02*
X68038095Y-70997676D01*
X68038095Y-70997676D02*
X68133333Y-70902438D01*
X68133333Y-70902438D02*
X68228571Y-70854819D01*
X68228571Y-70854819D02*
X68419047Y-70854819D01*
X68419047Y-70854819D02*
X68514285Y-70902438D01*
X68514285Y-70902438D02*
X68609523Y-70997676D01*
X68609523Y-70997676D02*
X68657142Y-71188152D01*
X68657142Y-71188152D02*
X68657142Y-71521485D01*
X68657142Y-71521485D02*
X68609523Y-71711961D01*
X68609523Y-71711961D02*
X68514285Y-71807200D01*
X68514285Y-71807200D02*
X68419047Y-71854819D01*
X68419047Y-71854819D02*
X68228571Y-71854819D01*
X69609523Y-71854819D02*
X69038095Y-71854819D01*
X69323809Y-71854819D02*
X69323809Y-70854819D01*
X69323809Y-70854819D02*
X69228571Y-70997676D01*
X69228571Y-70997676D02*
X69133333Y-71092914D01*
X69133333Y-71092914D02*
X69038095Y-71140533D01*
X96757142Y-56159580D02*
X96709523Y-56207200D01*
X96709523Y-56207200D02*
X96566666Y-56254819D01*
X96566666Y-56254819D02*
X96471428Y-56254819D01*
X96471428Y-56254819D02*
X96328571Y-56207200D01*
X96328571Y-56207200D02*
X96233333Y-56111961D01*
X96233333Y-56111961D02*
X96185714Y-56016723D01*
X96185714Y-56016723D02*
X96138095Y-55826247D01*
X96138095Y-55826247D02*
X96138095Y-55683390D01*
X96138095Y-55683390D02*
X96185714Y-55492914D01*
X96185714Y-55492914D02*
X96233333Y-55397676D01*
X96233333Y-55397676D02*
X96328571Y-55302438D01*
X96328571Y-55302438D02*
X96471428Y-55254819D01*
X96471428Y-55254819D02*
X96566666Y-55254819D01*
X96566666Y-55254819D02*
X96709523Y-55302438D01*
X96709523Y-55302438D02*
X96757142Y-55350057D01*
X97709523Y-56254819D02*
X97138095Y-56254819D01*
X97423809Y-56254819D02*
X97423809Y-55254819D01*
X97423809Y-55254819D02*
X97328571Y-55397676D01*
X97328571Y-55397676D02*
X97233333Y-55492914D01*
X97233333Y-55492914D02*
X97138095Y-55540533D01*
X98042857Y-55254819D02*
X98709523Y-55254819D01*
X98709523Y-55254819D02*
X98280952Y-56254819D01*
X90033333Y-64109580D02*
X89985714Y-64157200D01*
X89985714Y-64157200D02*
X89842857Y-64204819D01*
X89842857Y-64204819D02*
X89747619Y-64204819D01*
X89747619Y-64204819D02*
X89604762Y-64157200D01*
X89604762Y-64157200D02*
X89509524Y-64061961D01*
X89509524Y-64061961D02*
X89461905Y-63966723D01*
X89461905Y-63966723D02*
X89414286Y-63776247D01*
X89414286Y-63776247D02*
X89414286Y-63633390D01*
X89414286Y-63633390D02*
X89461905Y-63442914D01*
X89461905Y-63442914D02*
X89509524Y-63347676D01*
X89509524Y-63347676D02*
X89604762Y-63252438D01*
X89604762Y-63252438D02*
X89747619Y-63204819D01*
X89747619Y-63204819D02*
X89842857Y-63204819D01*
X89842857Y-63204819D02*
X89985714Y-63252438D01*
X89985714Y-63252438D02*
X90033333Y-63300057D01*
X90366667Y-63204819D02*
X90985714Y-63204819D01*
X90985714Y-63204819D02*
X90652381Y-63585771D01*
X90652381Y-63585771D02*
X90795238Y-63585771D01*
X90795238Y-63585771D02*
X90890476Y-63633390D01*
X90890476Y-63633390D02*
X90938095Y-63681009D01*
X90938095Y-63681009D02*
X90985714Y-63776247D01*
X90985714Y-63776247D02*
X90985714Y-64014342D01*
X90985714Y-64014342D02*
X90938095Y-64109580D01*
X90938095Y-64109580D02*
X90890476Y-64157200D01*
X90890476Y-64157200D02*
X90795238Y-64204819D01*
X90795238Y-64204819D02*
X90509524Y-64204819D01*
X90509524Y-64204819D02*
X90414286Y-64157200D01*
X90414286Y-64157200D02*
X90366667Y-64109580D01*
X73566666Y-31704819D02*
X73566666Y-32419104D01*
X73566666Y-32419104D02*
X73519047Y-32561961D01*
X73519047Y-32561961D02*
X73423809Y-32657200D01*
X73423809Y-32657200D02*
X73280952Y-32704819D01*
X73280952Y-32704819D02*
X73185714Y-32704819D01*
X74566666Y-32704819D02*
X73995238Y-32704819D01*
X74280952Y-32704819D02*
X74280952Y-31704819D01*
X74280952Y-31704819D02*
X74185714Y-31847676D01*
X74185714Y-31847676D02*
X74090476Y-31942914D01*
X74090476Y-31942914D02*
X73995238Y-31990533D01*
X81054819Y-54842857D02*
X80578628Y-55176190D01*
X81054819Y-55414285D02*
X80054819Y-55414285D01*
X80054819Y-55414285D02*
X80054819Y-55033333D01*
X80054819Y-55033333D02*
X80102438Y-54938095D01*
X80102438Y-54938095D02*
X80150057Y-54890476D01*
X80150057Y-54890476D02*
X80245295Y-54842857D01*
X80245295Y-54842857D02*
X80388152Y-54842857D01*
X80388152Y-54842857D02*
X80483390Y-54890476D01*
X80483390Y-54890476D02*
X80531009Y-54938095D01*
X80531009Y-54938095D02*
X80578628Y-55033333D01*
X80578628Y-55033333D02*
X80578628Y-55414285D01*
X80054819Y-54509523D02*
X80054819Y-53890476D01*
X80054819Y-53890476D02*
X80435771Y-54223809D01*
X80435771Y-54223809D02*
X80435771Y-54080952D01*
X80435771Y-54080952D02*
X80483390Y-53985714D01*
X80483390Y-53985714D02*
X80531009Y-53938095D01*
X80531009Y-53938095D02*
X80626247Y-53890476D01*
X80626247Y-53890476D02*
X80864342Y-53890476D01*
X80864342Y-53890476D02*
X80959580Y-53938095D01*
X80959580Y-53938095D02*
X81007200Y-53985714D01*
X81007200Y-53985714D02*
X81054819Y-54080952D01*
X81054819Y-54080952D02*
X81054819Y-54366666D01*
X81054819Y-54366666D02*
X81007200Y-54461904D01*
X81007200Y-54461904D02*
X80959580Y-54509523D01*
X80054819Y-53271428D02*
X80054819Y-53176190D01*
X80054819Y-53176190D02*
X80102438Y-53080952D01*
X80102438Y-53080952D02*
X80150057Y-53033333D01*
X80150057Y-53033333D02*
X80245295Y-52985714D01*
X80245295Y-52985714D02*
X80435771Y-52938095D01*
X80435771Y-52938095D02*
X80673866Y-52938095D01*
X80673866Y-52938095D02*
X80864342Y-52985714D01*
X80864342Y-52985714D02*
X80959580Y-53033333D01*
X80959580Y-53033333D02*
X81007200Y-53080952D01*
X81007200Y-53080952D02*
X81054819Y-53176190D01*
X81054819Y-53176190D02*
X81054819Y-53271428D01*
X81054819Y-53271428D02*
X81007200Y-53366666D01*
X81007200Y-53366666D02*
X80959580Y-53414285D01*
X80959580Y-53414285D02*
X80864342Y-53461904D01*
X80864342Y-53461904D02*
X80673866Y-53509523D01*
X80673866Y-53509523D02*
X80435771Y-53509523D01*
X80435771Y-53509523D02*
X80245295Y-53461904D01*
X80245295Y-53461904D02*
X80150057Y-53414285D01*
X80150057Y-53414285D02*
X80102438Y-53366666D01*
X80102438Y-53366666D02*
X80054819Y-53271428D01*
X57911905Y-69954819D02*
X57911905Y-68954819D01*
X58483333Y-69954819D02*
X58054762Y-69383390D01*
X58483333Y-68954819D02*
X57911905Y-69526247D01*
X59435714Y-69954819D02*
X58864286Y-69954819D01*
X59150000Y-69954819D02*
X59150000Y-68954819D01*
X59150000Y-68954819D02*
X59054762Y-69097676D01*
X59054762Y-69097676D02*
X58959524Y-69192914D01*
X58959524Y-69192914D02*
X58864286Y-69240533D01*
X69226666Y-63594819D02*
X69226666Y-64309104D01*
X69226666Y-64309104D02*
X69179047Y-64451961D01*
X69179047Y-64451961D02*
X69083809Y-64547200D01*
X69083809Y-64547200D02*
X68940952Y-64594819D01*
X68940952Y-64594819D02*
X68845714Y-64594819D01*
X70179047Y-63594819D02*
X69702857Y-63594819D01*
X69702857Y-63594819D02*
X69655238Y-64071009D01*
X69655238Y-64071009D02*
X69702857Y-64023390D01*
X69702857Y-64023390D02*
X69798095Y-63975771D01*
X69798095Y-63975771D02*
X70036190Y-63975771D01*
X70036190Y-63975771D02*
X70131428Y-64023390D01*
X70131428Y-64023390D02*
X70179047Y-64071009D01*
X70179047Y-64071009D02*
X70226666Y-64166247D01*
X70226666Y-64166247D02*
X70226666Y-64404342D01*
X70226666Y-64404342D02*
X70179047Y-64499580D01*
X70179047Y-64499580D02*
X70131428Y-64547200D01*
X70131428Y-64547200D02*
X70036190Y-64594819D01*
X70036190Y-64594819D02*
X69798095Y-64594819D01*
X69798095Y-64594819D02*
X69702857Y-64547200D01*
X69702857Y-64547200D02*
X69655238Y-64499580D01*
X115633333Y-54304819D02*
X115300000Y-53828628D01*
X115061905Y-54304819D02*
X115061905Y-53304819D01*
X115061905Y-53304819D02*
X115442857Y-53304819D01*
X115442857Y-53304819D02*
X115538095Y-53352438D01*
X115538095Y-53352438D02*
X115585714Y-53400057D01*
X115585714Y-53400057D02*
X115633333Y-53495295D01*
X115633333Y-53495295D02*
X115633333Y-53638152D01*
X115633333Y-53638152D02*
X115585714Y-53733390D01*
X115585714Y-53733390D02*
X115538095Y-53781009D01*
X115538095Y-53781009D02*
X115442857Y-53828628D01*
X115442857Y-53828628D02*
X115061905Y-53828628D01*
X115966667Y-53304819D02*
X116633333Y-53304819D01*
X116633333Y-53304819D02*
X116204762Y-54304819D01*
X75379819Y-68937857D02*
X74903628Y-69271190D01*
X75379819Y-69509285D02*
X74379819Y-69509285D01*
X74379819Y-69509285D02*
X74379819Y-69128333D01*
X74379819Y-69128333D02*
X74427438Y-69033095D01*
X74427438Y-69033095D02*
X74475057Y-68985476D01*
X74475057Y-68985476D02*
X74570295Y-68937857D01*
X74570295Y-68937857D02*
X74713152Y-68937857D01*
X74713152Y-68937857D02*
X74808390Y-68985476D01*
X74808390Y-68985476D02*
X74856009Y-69033095D01*
X74856009Y-69033095D02*
X74903628Y-69128333D01*
X74903628Y-69128333D02*
X74903628Y-69509285D01*
X74379819Y-68604523D02*
X74379819Y-67985476D01*
X74379819Y-67985476D02*
X74760771Y-68318809D01*
X74760771Y-68318809D02*
X74760771Y-68175952D01*
X74760771Y-68175952D02*
X74808390Y-68080714D01*
X74808390Y-68080714D02*
X74856009Y-68033095D01*
X74856009Y-68033095D02*
X74951247Y-67985476D01*
X74951247Y-67985476D02*
X75189342Y-67985476D01*
X75189342Y-67985476D02*
X75284580Y-68033095D01*
X75284580Y-68033095D02*
X75332200Y-68080714D01*
X75332200Y-68080714D02*
X75379819Y-68175952D01*
X75379819Y-68175952D02*
X75379819Y-68461666D01*
X75379819Y-68461666D02*
X75332200Y-68556904D01*
X75332200Y-68556904D02*
X75284580Y-68604523D01*
X74379819Y-67652142D02*
X74379819Y-67033095D01*
X74379819Y-67033095D02*
X74760771Y-67366428D01*
X74760771Y-67366428D02*
X74760771Y-67223571D01*
X74760771Y-67223571D02*
X74808390Y-67128333D01*
X74808390Y-67128333D02*
X74856009Y-67080714D01*
X74856009Y-67080714D02*
X74951247Y-67033095D01*
X74951247Y-67033095D02*
X75189342Y-67033095D01*
X75189342Y-67033095D02*
X75284580Y-67080714D01*
X75284580Y-67080714D02*
X75332200Y-67128333D01*
X75332200Y-67128333D02*
X75379819Y-67223571D01*
X75379819Y-67223571D02*
X75379819Y-67509285D01*
X75379819Y-67509285D02*
X75332200Y-67604523D01*
X75332200Y-67604523D02*
X75284580Y-67652142D01*
X45140476Y-31704819D02*
X45140476Y-32419104D01*
X45140476Y-32419104D02*
X45092857Y-32561961D01*
X45092857Y-32561961D02*
X44997619Y-32657200D01*
X44997619Y-32657200D02*
X44854762Y-32704819D01*
X44854762Y-32704819D02*
X44759524Y-32704819D01*
X46140476Y-32704819D02*
X45569048Y-32704819D01*
X45854762Y-32704819D02*
X45854762Y-31704819D01*
X45854762Y-31704819D02*
X45759524Y-31847676D01*
X45759524Y-31847676D02*
X45664286Y-31942914D01*
X45664286Y-31942914D02*
X45569048Y-31990533D01*
X46997619Y-32038152D02*
X46997619Y-32704819D01*
X46759524Y-31657200D02*
X46521429Y-32371485D01*
X46521429Y-32371485D02*
X47140476Y-32371485D01*
X79954819Y-46172857D02*
X79478628Y-46506190D01*
X79954819Y-46744285D02*
X78954819Y-46744285D01*
X78954819Y-46744285D02*
X78954819Y-46363333D01*
X78954819Y-46363333D02*
X79002438Y-46268095D01*
X79002438Y-46268095D02*
X79050057Y-46220476D01*
X79050057Y-46220476D02*
X79145295Y-46172857D01*
X79145295Y-46172857D02*
X79288152Y-46172857D01*
X79288152Y-46172857D02*
X79383390Y-46220476D01*
X79383390Y-46220476D02*
X79431009Y-46268095D01*
X79431009Y-46268095D02*
X79478628Y-46363333D01*
X79478628Y-46363333D02*
X79478628Y-46744285D01*
X79050057Y-45791904D02*
X79002438Y-45744285D01*
X79002438Y-45744285D02*
X78954819Y-45649047D01*
X78954819Y-45649047D02*
X78954819Y-45410952D01*
X78954819Y-45410952D02*
X79002438Y-45315714D01*
X79002438Y-45315714D02*
X79050057Y-45268095D01*
X79050057Y-45268095D02*
X79145295Y-45220476D01*
X79145295Y-45220476D02*
X79240533Y-45220476D01*
X79240533Y-45220476D02*
X79383390Y-45268095D01*
X79383390Y-45268095D02*
X79954819Y-45839523D01*
X79954819Y-45839523D02*
X79954819Y-45220476D01*
X78954819Y-44363333D02*
X78954819Y-44553809D01*
X78954819Y-44553809D02*
X79002438Y-44649047D01*
X79002438Y-44649047D02*
X79050057Y-44696666D01*
X79050057Y-44696666D02*
X79192914Y-44791904D01*
X79192914Y-44791904D02*
X79383390Y-44839523D01*
X79383390Y-44839523D02*
X79764342Y-44839523D01*
X79764342Y-44839523D02*
X79859580Y-44791904D01*
X79859580Y-44791904D02*
X79907200Y-44744285D01*
X79907200Y-44744285D02*
X79954819Y-44649047D01*
X79954819Y-44649047D02*
X79954819Y-44458571D01*
X79954819Y-44458571D02*
X79907200Y-44363333D01*
X79907200Y-44363333D02*
X79859580Y-44315714D01*
X79859580Y-44315714D02*
X79764342Y-44268095D01*
X79764342Y-44268095D02*
X79526247Y-44268095D01*
X79526247Y-44268095D02*
X79431009Y-44315714D01*
X79431009Y-44315714D02*
X79383390Y-44363333D01*
X79383390Y-44363333D02*
X79335771Y-44458571D01*
X79335771Y-44458571D02*
X79335771Y-44649047D01*
X79335771Y-44649047D02*
X79383390Y-44744285D01*
X79383390Y-44744285D02*
X79431009Y-44791904D01*
X79431009Y-44791904D02*
X79526247Y-44839523D01*
X118457142Y-65654819D02*
X118123809Y-65178628D01*
X117885714Y-65654819D02*
X117885714Y-64654819D01*
X117885714Y-64654819D02*
X118266666Y-64654819D01*
X118266666Y-64654819D02*
X118361904Y-64702438D01*
X118361904Y-64702438D02*
X118409523Y-64750057D01*
X118409523Y-64750057D02*
X118457142Y-64845295D01*
X118457142Y-64845295D02*
X118457142Y-64988152D01*
X118457142Y-64988152D02*
X118409523Y-65083390D01*
X118409523Y-65083390D02*
X118361904Y-65131009D01*
X118361904Y-65131009D02*
X118266666Y-65178628D01*
X118266666Y-65178628D02*
X117885714Y-65178628D01*
X119409523Y-65654819D02*
X118838095Y-65654819D01*
X119123809Y-65654819D02*
X119123809Y-64654819D01*
X119123809Y-64654819D02*
X119028571Y-64797676D01*
X119028571Y-64797676D02*
X118933333Y-64892914D01*
X118933333Y-64892914D02*
X118838095Y-64940533D01*
X120028571Y-64654819D02*
X120123809Y-64654819D01*
X120123809Y-64654819D02*
X120219047Y-64702438D01*
X120219047Y-64702438D02*
X120266666Y-64750057D01*
X120266666Y-64750057D02*
X120314285Y-64845295D01*
X120314285Y-64845295D02*
X120361904Y-65035771D01*
X120361904Y-65035771D02*
X120361904Y-65273866D01*
X120361904Y-65273866D02*
X120314285Y-65464342D01*
X120314285Y-65464342D02*
X120266666Y-65559580D01*
X120266666Y-65559580D02*
X120219047Y-65607200D01*
X120219047Y-65607200D02*
X120123809Y-65654819D01*
X120123809Y-65654819D02*
X120028571Y-65654819D01*
X120028571Y-65654819D02*
X119933333Y-65607200D01*
X119933333Y-65607200D02*
X119885714Y-65559580D01*
X119885714Y-65559580D02*
X119838095Y-65464342D01*
X119838095Y-65464342D02*
X119790476Y-65273866D01*
X119790476Y-65273866D02*
X119790476Y-65035771D01*
X119790476Y-65035771D02*
X119838095Y-64845295D01*
X119838095Y-64845295D02*
X119885714Y-64750057D01*
X119885714Y-64750057D02*
X119933333Y-64702438D01*
X119933333Y-64702438D02*
X120028571Y-64654819D01*
X78754819Y-46172857D02*
X78278628Y-46506190D01*
X78754819Y-46744285D02*
X77754819Y-46744285D01*
X77754819Y-46744285D02*
X77754819Y-46363333D01*
X77754819Y-46363333D02*
X77802438Y-46268095D01*
X77802438Y-46268095D02*
X77850057Y-46220476D01*
X77850057Y-46220476D02*
X77945295Y-46172857D01*
X77945295Y-46172857D02*
X78088152Y-46172857D01*
X78088152Y-46172857D02*
X78183390Y-46220476D01*
X78183390Y-46220476D02*
X78231009Y-46268095D01*
X78231009Y-46268095D02*
X78278628Y-46363333D01*
X78278628Y-46363333D02*
X78278628Y-46744285D01*
X77754819Y-45839523D02*
X77754819Y-45220476D01*
X77754819Y-45220476D02*
X78135771Y-45553809D01*
X78135771Y-45553809D02*
X78135771Y-45410952D01*
X78135771Y-45410952D02*
X78183390Y-45315714D01*
X78183390Y-45315714D02*
X78231009Y-45268095D01*
X78231009Y-45268095D02*
X78326247Y-45220476D01*
X78326247Y-45220476D02*
X78564342Y-45220476D01*
X78564342Y-45220476D02*
X78659580Y-45268095D01*
X78659580Y-45268095D02*
X78707200Y-45315714D01*
X78707200Y-45315714D02*
X78754819Y-45410952D01*
X78754819Y-45410952D02*
X78754819Y-45696666D01*
X78754819Y-45696666D02*
X78707200Y-45791904D01*
X78707200Y-45791904D02*
X78659580Y-45839523D01*
X77754819Y-44887142D02*
X77754819Y-44220476D01*
X77754819Y-44220476D02*
X78754819Y-44649047D01*
X72979819Y-68937857D02*
X72503628Y-69271190D01*
X72979819Y-69509285D02*
X71979819Y-69509285D01*
X71979819Y-69509285D02*
X71979819Y-69128333D01*
X71979819Y-69128333D02*
X72027438Y-69033095D01*
X72027438Y-69033095D02*
X72075057Y-68985476D01*
X72075057Y-68985476D02*
X72170295Y-68937857D01*
X72170295Y-68937857D02*
X72313152Y-68937857D01*
X72313152Y-68937857D02*
X72408390Y-68985476D01*
X72408390Y-68985476D02*
X72456009Y-69033095D01*
X72456009Y-69033095D02*
X72503628Y-69128333D01*
X72503628Y-69128333D02*
X72503628Y-69509285D01*
X71979819Y-68604523D02*
X71979819Y-67985476D01*
X71979819Y-67985476D02*
X72360771Y-68318809D01*
X72360771Y-68318809D02*
X72360771Y-68175952D01*
X72360771Y-68175952D02*
X72408390Y-68080714D01*
X72408390Y-68080714D02*
X72456009Y-68033095D01*
X72456009Y-68033095D02*
X72551247Y-67985476D01*
X72551247Y-67985476D02*
X72789342Y-67985476D01*
X72789342Y-67985476D02*
X72884580Y-68033095D01*
X72884580Y-68033095D02*
X72932200Y-68080714D01*
X72932200Y-68080714D02*
X72979819Y-68175952D01*
X72979819Y-68175952D02*
X72979819Y-68461666D01*
X72979819Y-68461666D02*
X72932200Y-68556904D01*
X72932200Y-68556904D02*
X72884580Y-68604523D01*
X71979819Y-67080714D02*
X71979819Y-67556904D01*
X71979819Y-67556904D02*
X72456009Y-67604523D01*
X72456009Y-67604523D02*
X72408390Y-67556904D01*
X72408390Y-67556904D02*
X72360771Y-67461666D01*
X72360771Y-67461666D02*
X72360771Y-67223571D01*
X72360771Y-67223571D02*
X72408390Y-67128333D01*
X72408390Y-67128333D02*
X72456009Y-67080714D01*
X72456009Y-67080714D02*
X72551247Y-67033095D01*
X72551247Y-67033095D02*
X72789342Y-67033095D01*
X72789342Y-67033095D02*
X72884580Y-67080714D01*
X72884580Y-67080714D02*
X72932200Y-67128333D01*
X72932200Y-67128333D02*
X72979819Y-67223571D01*
X72979819Y-67223571D02*
X72979819Y-67461666D01*
X72979819Y-67461666D02*
X72932200Y-67556904D01*
X72932200Y-67556904D02*
X72884580Y-67604523D01*
X95575595Y-70404819D02*
X95575595Y-71214342D01*
X95575595Y-71214342D02*
X95623214Y-71309580D01*
X95623214Y-71309580D02*
X95670833Y-71357200D01*
X95670833Y-71357200D02*
X95766071Y-71404819D01*
X95766071Y-71404819D02*
X95956547Y-71404819D01*
X95956547Y-71404819D02*
X96051785Y-71357200D01*
X96051785Y-71357200D02*
X96099404Y-71309580D01*
X96099404Y-71309580D02*
X96147023Y-71214342D01*
X96147023Y-71214342D02*
X96147023Y-70404819D01*
X97147023Y-71404819D02*
X96575595Y-71404819D01*
X96861309Y-71404819D02*
X96861309Y-70404819D01*
X96861309Y-70404819D02*
X96766071Y-70547676D01*
X96766071Y-70547676D02*
X96670833Y-70642914D01*
X96670833Y-70642914D02*
X96575595Y-70690533D01*
X69833333Y-38504819D02*
X69500000Y-38028628D01*
X69261905Y-38504819D02*
X69261905Y-37504819D01*
X69261905Y-37504819D02*
X69642857Y-37504819D01*
X69642857Y-37504819D02*
X69738095Y-37552438D01*
X69738095Y-37552438D02*
X69785714Y-37600057D01*
X69785714Y-37600057D02*
X69833333Y-37695295D01*
X69833333Y-37695295D02*
X69833333Y-37838152D01*
X69833333Y-37838152D02*
X69785714Y-37933390D01*
X69785714Y-37933390D02*
X69738095Y-37981009D01*
X69738095Y-37981009D02*
X69642857Y-38028628D01*
X69642857Y-38028628D02*
X69261905Y-38028628D01*
X70166667Y-37504819D02*
X70785714Y-37504819D01*
X70785714Y-37504819D02*
X70452381Y-37885771D01*
X70452381Y-37885771D02*
X70595238Y-37885771D01*
X70595238Y-37885771D02*
X70690476Y-37933390D01*
X70690476Y-37933390D02*
X70738095Y-37981009D01*
X70738095Y-37981009D02*
X70785714Y-38076247D01*
X70785714Y-38076247D02*
X70785714Y-38314342D01*
X70785714Y-38314342D02*
X70738095Y-38409580D01*
X70738095Y-38409580D02*
X70690476Y-38457200D01*
X70690476Y-38457200D02*
X70595238Y-38504819D01*
X70595238Y-38504819D02*
X70309524Y-38504819D01*
X70309524Y-38504819D02*
X70214286Y-38457200D01*
X70214286Y-38457200D02*
X70166667Y-38409580D01*
X88891666Y-59149819D02*
X88891666Y-59864104D01*
X88891666Y-59864104D02*
X88844047Y-60006961D01*
X88844047Y-60006961D02*
X88748809Y-60102200D01*
X88748809Y-60102200D02*
X88605952Y-60149819D01*
X88605952Y-60149819D02*
X88510714Y-60149819D01*
X89415476Y-60149819D02*
X89605952Y-60149819D01*
X89605952Y-60149819D02*
X89701190Y-60102200D01*
X89701190Y-60102200D02*
X89748809Y-60054580D01*
X89748809Y-60054580D02*
X89844047Y-59911723D01*
X89844047Y-59911723D02*
X89891666Y-59721247D01*
X89891666Y-59721247D02*
X89891666Y-59340295D01*
X89891666Y-59340295D02*
X89844047Y-59245057D01*
X89844047Y-59245057D02*
X89796428Y-59197438D01*
X89796428Y-59197438D02*
X89701190Y-59149819D01*
X89701190Y-59149819D02*
X89510714Y-59149819D01*
X89510714Y-59149819D02*
X89415476Y-59197438D01*
X89415476Y-59197438D02*
X89367857Y-59245057D01*
X89367857Y-59245057D02*
X89320238Y-59340295D01*
X89320238Y-59340295D02*
X89320238Y-59578390D01*
X89320238Y-59578390D02*
X89367857Y-59673628D01*
X89367857Y-59673628D02*
X89415476Y-59721247D01*
X89415476Y-59721247D02*
X89510714Y-59768866D01*
X89510714Y-59768866D02*
X89701190Y-59768866D01*
X89701190Y-59768866D02*
X89796428Y-59721247D01*
X89796428Y-59721247D02*
X89844047Y-59673628D01*
X89844047Y-59673628D02*
X89891666Y-59578390D01*
X83032142Y-59854580D02*
X82984523Y-59902200D01*
X82984523Y-59902200D02*
X82841666Y-59949819D01*
X82841666Y-59949819D02*
X82746428Y-59949819D01*
X82746428Y-59949819D02*
X82603571Y-59902200D01*
X82603571Y-59902200D02*
X82508333Y-59806961D01*
X82508333Y-59806961D02*
X82460714Y-59711723D01*
X82460714Y-59711723D02*
X82413095Y-59521247D01*
X82413095Y-59521247D02*
X82413095Y-59378390D01*
X82413095Y-59378390D02*
X82460714Y-59187914D01*
X82460714Y-59187914D02*
X82508333Y-59092676D01*
X82508333Y-59092676D02*
X82603571Y-58997438D01*
X82603571Y-58997438D02*
X82746428Y-58949819D01*
X82746428Y-58949819D02*
X82841666Y-58949819D01*
X82841666Y-58949819D02*
X82984523Y-58997438D01*
X82984523Y-58997438D02*
X83032142Y-59045057D01*
X83413095Y-59045057D02*
X83460714Y-58997438D01*
X83460714Y-58997438D02*
X83555952Y-58949819D01*
X83555952Y-58949819D02*
X83794047Y-58949819D01*
X83794047Y-58949819D02*
X83889285Y-58997438D01*
X83889285Y-58997438D02*
X83936904Y-59045057D01*
X83936904Y-59045057D02*
X83984523Y-59140295D01*
X83984523Y-59140295D02*
X83984523Y-59235533D01*
X83984523Y-59235533D02*
X83936904Y-59378390D01*
X83936904Y-59378390D02*
X83365476Y-59949819D01*
X83365476Y-59949819D02*
X83984523Y-59949819D01*
X84936904Y-59949819D02*
X84365476Y-59949819D01*
X84651190Y-59949819D02*
X84651190Y-58949819D01*
X84651190Y-58949819D02*
X84555952Y-59092676D01*
X84555952Y-59092676D02*
X84460714Y-59187914D01*
X84460714Y-59187914D02*
X84365476Y-59235533D01*
X106933333Y-32859580D02*
X106885714Y-32907200D01*
X106885714Y-32907200D02*
X106742857Y-32954819D01*
X106742857Y-32954819D02*
X106647619Y-32954819D01*
X106647619Y-32954819D02*
X106504762Y-32907200D01*
X106504762Y-32907200D02*
X106409524Y-32811961D01*
X106409524Y-32811961D02*
X106361905Y-32716723D01*
X106361905Y-32716723D02*
X106314286Y-32526247D01*
X106314286Y-32526247D02*
X106314286Y-32383390D01*
X106314286Y-32383390D02*
X106361905Y-32192914D01*
X106361905Y-32192914D02*
X106409524Y-32097676D01*
X106409524Y-32097676D02*
X106504762Y-32002438D01*
X106504762Y-32002438D02*
X106647619Y-31954819D01*
X106647619Y-31954819D02*
X106742857Y-31954819D01*
X106742857Y-31954819D02*
X106885714Y-32002438D01*
X106885714Y-32002438D02*
X106933333Y-32050057D01*
X107885714Y-32954819D02*
X107314286Y-32954819D01*
X107600000Y-32954819D02*
X107600000Y-31954819D01*
X107600000Y-31954819D02*
X107504762Y-32097676D01*
X107504762Y-32097676D02*
X107409524Y-32192914D01*
X107409524Y-32192914D02*
X107314286Y-32240533D01*
X113615713Y-70009580D02*
X113568094Y-70057200D01*
X113568094Y-70057200D02*
X113425237Y-70104819D01*
X113425237Y-70104819D02*
X113329999Y-70104819D01*
X113329999Y-70104819D02*
X113187142Y-70057200D01*
X113187142Y-70057200D02*
X113091904Y-69961961D01*
X113091904Y-69961961D02*
X113044285Y-69866723D01*
X113044285Y-69866723D02*
X112996666Y-69676247D01*
X112996666Y-69676247D02*
X112996666Y-69533390D01*
X112996666Y-69533390D02*
X113044285Y-69342914D01*
X113044285Y-69342914D02*
X113091904Y-69247676D01*
X113091904Y-69247676D02*
X113187142Y-69152438D01*
X113187142Y-69152438D02*
X113329999Y-69104819D01*
X113329999Y-69104819D02*
X113425237Y-69104819D01*
X113425237Y-69104819D02*
X113568094Y-69152438D01*
X113568094Y-69152438D02*
X113615713Y-69200057D01*
X114091904Y-70104819D02*
X114282380Y-70104819D01*
X114282380Y-70104819D02*
X114377618Y-70057200D01*
X114377618Y-70057200D02*
X114425237Y-70009580D01*
X114425237Y-70009580D02*
X114520475Y-69866723D01*
X114520475Y-69866723D02*
X114568094Y-69676247D01*
X114568094Y-69676247D02*
X114568094Y-69295295D01*
X114568094Y-69295295D02*
X114520475Y-69200057D01*
X114520475Y-69200057D02*
X114472856Y-69152438D01*
X114472856Y-69152438D02*
X114377618Y-69104819D01*
X114377618Y-69104819D02*
X114187142Y-69104819D01*
X114187142Y-69104819D02*
X114091904Y-69152438D01*
X114091904Y-69152438D02*
X114044285Y-69200057D01*
X114044285Y-69200057D02*
X113996666Y-69295295D01*
X113996666Y-69295295D02*
X113996666Y-69533390D01*
X113996666Y-69533390D02*
X114044285Y-69628628D01*
X114044285Y-69628628D02*
X114091904Y-69676247D01*
X114091904Y-69676247D02*
X114187142Y-69723866D01*
X114187142Y-69723866D02*
X114377618Y-69723866D01*
X114377618Y-69723866D02*
X114472856Y-69676247D01*
X114472856Y-69676247D02*
X114520475Y-69628628D01*
X114520475Y-69628628D02*
X114568094Y-69533390D01*
X84754819Y-46172857D02*
X84278628Y-46506190D01*
X84754819Y-46744285D02*
X83754819Y-46744285D01*
X83754819Y-46744285D02*
X83754819Y-46363333D01*
X83754819Y-46363333D02*
X83802438Y-46268095D01*
X83802438Y-46268095D02*
X83850057Y-46220476D01*
X83850057Y-46220476D02*
X83945295Y-46172857D01*
X83945295Y-46172857D02*
X84088152Y-46172857D01*
X84088152Y-46172857D02*
X84183390Y-46220476D01*
X84183390Y-46220476D02*
X84231009Y-46268095D01*
X84231009Y-46268095D02*
X84278628Y-46363333D01*
X84278628Y-46363333D02*
X84278628Y-46744285D01*
X84754819Y-45220476D02*
X84754819Y-45791904D01*
X84754819Y-45506190D02*
X83754819Y-45506190D01*
X83754819Y-45506190D02*
X83897676Y-45601428D01*
X83897676Y-45601428D02*
X83992914Y-45696666D01*
X83992914Y-45696666D02*
X84040533Y-45791904D01*
X83754819Y-44315714D02*
X83754819Y-44791904D01*
X83754819Y-44791904D02*
X84231009Y-44839523D01*
X84231009Y-44839523D02*
X84183390Y-44791904D01*
X84183390Y-44791904D02*
X84135771Y-44696666D01*
X84135771Y-44696666D02*
X84135771Y-44458571D01*
X84135771Y-44458571D02*
X84183390Y-44363333D01*
X84183390Y-44363333D02*
X84231009Y-44315714D01*
X84231009Y-44315714D02*
X84326247Y-44268095D01*
X84326247Y-44268095D02*
X84564342Y-44268095D01*
X84564342Y-44268095D02*
X84659580Y-44315714D01*
X84659580Y-44315714D02*
X84707200Y-44363333D01*
X84707200Y-44363333D02*
X84754819Y-44458571D01*
X84754819Y-44458571D02*
X84754819Y-44696666D01*
X84754819Y-44696666D02*
X84707200Y-44791904D01*
X84707200Y-44791904D02*
X84659580Y-44839523D01*
X99854819Y-68266666D02*
X99854819Y-68742856D01*
X99854819Y-68742856D02*
X98854819Y-68742856D01*
X98854819Y-67457142D02*
X98854819Y-67933332D01*
X98854819Y-67933332D02*
X99331009Y-67980951D01*
X99331009Y-67980951D02*
X99283390Y-67933332D01*
X99283390Y-67933332D02*
X99235771Y-67838094D01*
X99235771Y-67838094D02*
X99235771Y-67599999D01*
X99235771Y-67599999D02*
X99283390Y-67504761D01*
X99283390Y-67504761D02*
X99331009Y-67457142D01*
X99331009Y-67457142D02*
X99426247Y-67409523D01*
X99426247Y-67409523D02*
X99664342Y-67409523D01*
X99664342Y-67409523D02*
X99759580Y-67457142D01*
X99759580Y-67457142D02*
X99807200Y-67504761D01*
X99807200Y-67504761D02*
X99854819Y-67599999D01*
X99854819Y-67599999D02*
X99854819Y-67838094D01*
X99854819Y-67838094D02*
X99807200Y-67933332D01*
X99807200Y-67933332D02*
X99759580Y-67980951D01*
X81154819Y-46172857D02*
X80678628Y-46506190D01*
X81154819Y-46744285D02*
X80154819Y-46744285D01*
X80154819Y-46744285D02*
X80154819Y-46363333D01*
X80154819Y-46363333D02*
X80202438Y-46268095D01*
X80202438Y-46268095D02*
X80250057Y-46220476D01*
X80250057Y-46220476D02*
X80345295Y-46172857D01*
X80345295Y-46172857D02*
X80488152Y-46172857D01*
X80488152Y-46172857D02*
X80583390Y-46220476D01*
X80583390Y-46220476D02*
X80631009Y-46268095D01*
X80631009Y-46268095D02*
X80678628Y-46363333D01*
X80678628Y-46363333D02*
X80678628Y-46744285D01*
X80250057Y-45791904D02*
X80202438Y-45744285D01*
X80202438Y-45744285D02*
X80154819Y-45649047D01*
X80154819Y-45649047D02*
X80154819Y-45410952D01*
X80154819Y-45410952D02*
X80202438Y-45315714D01*
X80202438Y-45315714D02*
X80250057Y-45268095D01*
X80250057Y-45268095D02*
X80345295Y-45220476D01*
X80345295Y-45220476D02*
X80440533Y-45220476D01*
X80440533Y-45220476D02*
X80583390Y-45268095D01*
X80583390Y-45268095D02*
X81154819Y-45839523D01*
X81154819Y-45839523D02*
X81154819Y-45220476D01*
X80154819Y-44315714D02*
X80154819Y-44791904D01*
X80154819Y-44791904D02*
X80631009Y-44839523D01*
X80631009Y-44839523D02*
X80583390Y-44791904D01*
X80583390Y-44791904D02*
X80535771Y-44696666D01*
X80535771Y-44696666D02*
X80535771Y-44458571D01*
X80535771Y-44458571D02*
X80583390Y-44363333D01*
X80583390Y-44363333D02*
X80631009Y-44315714D01*
X80631009Y-44315714D02*
X80726247Y-44268095D01*
X80726247Y-44268095D02*
X80964342Y-44268095D01*
X80964342Y-44268095D02*
X81059580Y-44315714D01*
X81059580Y-44315714D02*
X81107200Y-44363333D01*
X81107200Y-44363333D02*
X81154819Y-44458571D01*
X81154819Y-44458571D02*
X81154819Y-44696666D01*
X81154819Y-44696666D02*
X81107200Y-44791904D01*
X81107200Y-44791904D02*
X81059580Y-44839523D01*
X116133333Y-42109580D02*
X116085714Y-42157200D01*
X116085714Y-42157200D02*
X115942857Y-42204819D01*
X115942857Y-42204819D02*
X115847619Y-42204819D01*
X115847619Y-42204819D02*
X115704762Y-42157200D01*
X115704762Y-42157200D02*
X115609524Y-42061961D01*
X115609524Y-42061961D02*
X115561905Y-41966723D01*
X115561905Y-41966723D02*
X115514286Y-41776247D01*
X115514286Y-41776247D02*
X115514286Y-41633390D01*
X115514286Y-41633390D02*
X115561905Y-41442914D01*
X115561905Y-41442914D02*
X115609524Y-41347676D01*
X115609524Y-41347676D02*
X115704762Y-41252438D01*
X115704762Y-41252438D02*
X115847619Y-41204819D01*
X115847619Y-41204819D02*
X115942857Y-41204819D01*
X115942857Y-41204819D02*
X116085714Y-41252438D01*
X116085714Y-41252438D02*
X116133333Y-41300057D01*
X116466667Y-41204819D02*
X117133333Y-41204819D01*
X117133333Y-41204819D02*
X116704762Y-42204819D01*
X74179819Y-68937857D02*
X73703628Y-69271190D01*
X74179819Y-69509285D02*
X73179819Y-69509285D01*
X73179819Y-69509285D02*
X73179819Y-69128333D01*
X73179819Y-69128333D02*
X73227438Y-69033095D01*
X73227438Y-69033095D02*
X73275057Y-68985476D01*
X73275057Y-68985476D02*
X73370295Y-68937857D01*
X73370295Y-68937857D02*
X73513152Y-68937857D01*
X73513152Y-68937857D02*
X73608390Y-68985476D01*
X73608390Y-68985476D02*
X73656009Y-69033095D01*
X73656009Y-69033095D02*
X73703628Y-69128333D01*
X73703628Y-69128333D02*
X73703628Y-69509285D01*
X73179819Y-68604523D02*
X73179819Y-67985476D01*
X73179819Y-67985476D02*
X73560771Y-68318809D01*
X73560771Y-68318809D02*
X73560771Y-68175952D01*
X73560771Y-68175952D02*
X73608390Y-68080714D01*
X73608390Y-68080714D02*
X73656009Y-68033095D01*
X73656009Y-68033095D02*
X73751247Y-67985476D01*
X73751247Y-67985476D02*
X73989342Y-67985476D01*
X73989342Y-67985476D02*
X74084580Y-68033095D01*
X74084580Y-68033095D02*
X74132200Y-68080714D01*
X74132200Y-68080714D02*
X74179819Y-68175952D01*
X74179819Y-68175952D02*
X74179819Y-68461666D01*
X74179819Y-68461666D02*
X74132200Y-68556904D01*
X74132200Y-68556904D02*
X74084580Y-68604523D01*
X73513152Y-67128333D02*
X74179819Y-67128333D01*
X73132200Y-67366428D02*
X73846485Y-67604523D01*
X73846485Y-67604523D02*
X73846485Y-66985476D01*
X63854819Y-67367857D02*
X63378628Y-67701190D01*
X63854819Y-67939285D02*
X62854819Y-67939285D01*
X62854819Y-67939285D02*
X62854819Y-67558333D01*
X62854819Y-67558333D02*
X62902438Y-67463095D01*
X62902438Y-67463095D02*
X62950057Y-67415476D01*
X62950057Y-67415476D02*
X63045295Y-67367857D01*
X63045295Y-67367857D02*
X63188152Y-67367857D01*
X63188152Y-67367857D02*
X63283390Y-67415476D01*
X63283390Y-67415476D02*
X63331009Y-67463095D01*
X63331009Y-67463095D02*
X63378628Y-67558333D01*
X63378628Y-67558333D02*
X63378628Y-67939285D01*
X63854819Y-66415476D02*
X63854819Y-66986904D01*
X63854819Y-66701190D02*
X62854819Y-66701190D01*
X62854819Y-66701190D02*
X62997676Y-66796428D01*
X62997676Y-66796428D02*
X63092914Y-66891666D01*
X63092914Y-66891666D02*
X63140533Y-66986904D01*
X63854819Y-65939285D02*
X63854819Y-65748809D01*
X63854819Y-65748809D02*
X63807200Y-65653571D01*
X63807200Y-65653571D02*
X63759580Y-65605952D01*
X63759580Y-65605952D02*
X63616723Y-65510714D01*
X63616723Y-65510714D02*
X63426247Y-65463095D01*
X63426247Y-65463095D02*
X63045295Y-65463095D01*
X63045295Y-65463095D02*
X62950057Y-65510714D01*
X62950057Y-65510714D02*
X62902438Y-65558333D01*
X62902438Y-65558333D02*
X62854819Y-65653571D01*
X62854819Y-65653571D02*
X62854819Y-65844047D01*
X62854819Y-65844047D02*
X62902438Y-65939285D01*
X62902438Y-65939285D02*
X62950057Y-65986904D01*
X62950057Y-65986904D02*
X63045295Y-66034523D01*
X63045295Y-66034523D02*
X63283390Y-66034523D01*
X63283390Y-66034523D02*
X63378628Y-65986904D01*
X63378628Y-65986904D02*
X63426247Y-65939285D01*
X63426247Y-65939285D02*
X63473866Y-65844047D01*
X63473866Y-65844047D02*
X63473866Y-65653571D01*
X63473866Y-65653571D02*
X63426247Y-65558333D01*
X63426247Y-65558333D02*
X63378628Y-65510714D01*
X63378628Y-65510714D02*
X63283390Y-65463095D01*
X73032142Y-65329580D02*
X72984523Y-65377200D01*
X72984523Y-65377200D02*
X72841666Y-65424819D01*
X72841666Y-65424819D02*
X72746428Y-65424819D01*
X72746428Y-65424819D02*
X72603571Y-65377200D01*
X72603571Y-65377200D02*
X72508333Y-65281961D01*
X72508333Y-65281961D02*
X72460714Y-65186723D01*
X72460714Y-65186723D02*
X72413095Y-64996247D01*
X72413095Y-64996247D02*
X72413095Y-64853390D01*
X72413095Y-64853390D02*
X72460714Y-64662914D01*
X72460714Y-64662914D02*
X72508333Y-64567676D01*
X72508333Y-64567676D02*
X72603571Y-64472438D01*
X72603571Y-64472438D02*
X72746428Y-64424819D01*
X72746428Y-64424819D02*
X72841666Y-64424819D01*
X72841666Y-64424819D02*
X72984523Y-64472438D01*
X72984523Y-64472438D02*
X73032142Y-64520057D01*
X73984523Y-65424819D02*
X73413095Y-65424819D01*
X73698809Y-65424819D02*
X73698809Y-64424819D01*
X73698809Y-64424819D02*
X73603571Y-64567676D01*
X73603571Y-64567676D02*
X73508333Y-64662914D01*
X73508333Y-64662914D02*
X73413095Y-64710533D01*
X74460714Y-65424819D02*
X74651190Y-65424819D01*
X74651190Y-65424819D02*
X74746428Y-65377200D01*
X74746428Y-65377200D02*
X74794047Y-65329580D01*
X74794047Y-65329580D02*
X74889285Y-65186723D01*
X74889285Y-65186723D02*
X74936904Y-64996247D01*
X74936904Y-64996247D02*
X74936904Y-64615295D01*
X74936904Y-64615295D02*
X74889285Y-64520057D01*
X74889285Y-64520057D02*
X74841666Y-64472438D01*
X74841666Y-64472438D02*
X74746428Y-64424819D01*
X74746428Y-64424819D02*
X74555952Y-64424819D01*
X74555952Y-64424819D02*
X74460714Y-64472438D01*
X74460714Y-64472438D02*
X74413095Y-64520057D01*
X74413095Y-64520057D02*
X74365476Y-64615295D01*
X74365476Y-64615295D02*
X74365476Y-64853390D01*
X74365476Y-64853390D02*
X74413095Y-64948628D01*
X74413095Y-64948628D02*
X74460714Y-64996247D01*
X74460714Y-64996247D02*
X74555952Y-65043866D01*
X74555952Y-65043866D02*
X74746428Y-65043866D01*
X74746428Y-65043866D02*
X74841666Y-64996247D01*
X74841666Y-64996247D02*
X74889285Y-64948628D01*
X74889285Y-64948628D02*
X74936904Y-64853390D01*
X84454819Y-34617857D02*
X83978628Y-34951190D01*
X84454819Y-35189285D02*
X83454819Y-35189285D01*
X83454819Y-35189285D02*
X83454819Y-34808333D01*
X83454819Y-34808333D02*
X83502438Y-34713095D01*
X83502438Y-34713095D02*
X83550057Y-34665476D01*
X83550057Y-34665476D02*
X83645295Y-34617857D01*
X83645295Y-34617857D02*
X83788152Y-34617857D01*
X83788152Y-34617857D02*
X83883390Y-34665476D01*
X83883390Y-34665476D02*
X83931009Y-34713095D01*
X83931009Y-34713095D02*
X83978628Y-34808333D01*
X83978628Y-34808333D02*
X83978628Y-35189285D01*
X84454819Y-33665476D02*
X84454819Y-34236904D01*
X84454819Y-33951190D02*
X83454819Y-33951190D01*
X83454819Y-33951190D02*
X83597676Y-34046428D01*
X83597676Y-34046428D02*
X83692914Y-34141666D01*
X83692914Y-34141666D02*
X83740533Y-34236904D01*
X83788152Y-32808333D02*
X84454819Y-32808333D01*
X83407200Y-33046428D02*
X84121485Y-33284523D01*
X84121485Y-33284523D02*
X84121485Y-32665476D01*
X91657142Y-76059580D02*
X91609523Y-76107200D01*
X91609523Y-76107200D02*
X91466666Y-76154819D01*
X91466666Y-76154819D02*
X91371428Y-76154819D01*
X91371428Y-76154819D02*
X91228571Y-76107200D01*
X91228571Y-76107200D02*
X91133333Y-76011961D01*
X91133333Y-76011961D02*
X91085714Y-75916723D01*
X91085714Y-75916723D02*
X91038095Y-75726247D01*
X91038095Y-75726247D02*
X91038095Y-75583390D01*
X91038095Y-75583390D02*
X91085714Y-75392914D01*
X91085714Y-75392914D02*
X91133333Y-75297676D01*
X91133333Y-75297676D02*
X91228571Y-75202438D01*
X91228571Y-75202438D02*
X91371428Y-75154819D01*
X91371428Y-75154819D02*
X91466666Y-75154819D01*
X91466666Y-75154819D02*
X91609523Y-75202438D01*
X91609523Y-75202438D02*
X91657142Y-75250057D01*
X92038095Y-75250057D02*
X92085714Y-75202438D01*
X92085714Y-75202438D02*
X92180952Y-75154819D01*
X92180952Y-75154819D02*
X92419047Y-75154819D01*
X92419047Y-75154819D02*
X92514285Y-75202438D01*
X92514285Y-75202438D02*
X92561904Y-75250057D01*
X92561904Y-75250057D02*
X92609523Y-75345295D01*
X92609523Y-75345295D02*
X92609523Y-75440533D01*
X92609523Y-75440533D02*
X92561904Y-75583390D01*
X92561904Y-75583390D02*
X91990476Y-76154819D01*
X91990476Y-76154819D02*
X92609523Y-76154819D01*
X93228571Y-75154819D02*
X93323809Y-75154819D01*
X93323809Y-75154819D02*
X93419047Y-75202438D01*
X93419047Y-75202438D02*
X93466666Y-75250057D01*
X93466666Y-75250057D02*
X93514285Y-75345295D01*
X93514285Y-75345295D02*
X93561904Y-75535771D01*
X93561904Y-75535771D02*
X93561904Y-75773866D01*
X93561904Y-75773866D02*
X93514285Y-75964342D01*
X93514285Y-75964342D02*
X93466666Y-76059580D01*
X93466666Y-76059580D02*
X93419047Y-76107200D01*
X93419047Y-76107200D02*
X93323809Y-76154819D01*
X93323809Y-76154819D02*
X93228571Y-76154819D01*
X93228571Y-76154819D02*
X93133333Y-76107200D01*
X93133333Y-76107200D02*
X93085714Y-76059580D01*
X93085714Y-76059580D02*
X93038095Y-75964342D01*
X93038095Y-75964342D02*
X92990476Y-75773866D01*
X92990476Y-75773866D02*
X92990476Y-75535771D01*
X92990476Y-75535771D02*
X93038095Y-75345295D01*
X93038095Y-75345295D02*
X93085714Y-75250057D01*
X93085714Y-75250057D02*
X93133333Y-75202438D01*
X93133333Y-75202438D02*
X93228571Y-75154819D01*
X79654819Y-54842857D02*
X79178628Y-55176190D01*
X79654819Y-55414285D02*
X78654819Y-55414285D01*
X78654819Y-55414285D02*
X78654819Y-55033333D01*
X78654819Y-55033333D02*
X78702438Y-54938095D01*
X78702438Y-54938095D02*
X78750057Y-54890476D01*
X78750057Y-54890476D02*
X78845295Y-54842857D01*
X78845295Y-54842857D02*
X78988152Y-54842857D01*
X78988152Y-54842857D02*
X79083390Y-54890476D01*
X79083390Y-54890476D02*
X79131009Y-54938095D01*
X79131009Y-54938095D02*
X79178628Y-55033333D01*
X79178628Y-55033333D02*
X79178628Y-55414285D01*
X78654819Y-54509523D02*
X78654819Y-53890476D01*
X78654819Y-53890476D02*
X79035771Y-54223809D01*
X79035771Y-54223809D02*
X79035771Y-54080952D01*
X79035771Y-54080952D02*
X79083390Y-53985714D01*
X79083390Y-53985714D02*
X79131009Y-53938095D01*
X79131009Y-53938095D02*
X79226247Y-53890476D01*
X79226247Y-53890476D02*
X79464342Y-53890476D01*
X79464342Y-53890476D02*
X79559580Y-53938095D01*
X79559580Y-53938095D02*
X79607200Y-53985714D01*
X79607200Y-53985714D02*
X79654819Y-54080952D01*
X79654819Y-54080952D02*
X79654819Y-54366666D01*
X79654819Y-54366666D02*
X79607200Y-54461904D01*
X79607200Y-54461904D02*
X79559580Y-54509523D01*
X79654819Y-52938095D02*
X79654819Y-53509523D01*
X79654819Y-53223809D02*
X78654819Y-53223809D01*
X78654819Y-53223809D02*
X78797676Y-53319047D01*
X78797676Y-53319047D02*
X78892914Y-53414285D01*
X78892914Y-53414285D02*
X78940533Y-53509523D01*
X81159580Y-50642857D02*
X81207200Y-50690476D01*
X81207200Y-50690476D02*
X81254819Y-50833333D01*
X81254819Y-50833333D02*
X81254819Y-50928571D01*
X81254819Y-50928571D02*
X81207200Y-51071428D01*
X81207200Y-51071428D02*
X81111961Y-51166666D01*
X81111961Y-51166666D02*
X81016723Y-51214285D01*
X81016723Y-51214285D02*
X80826247Y-51261904D01*
X80826247Y-51261904D02*
X80683390Y-51261904D01*
X80683390Y-51261904D02*
X80492914Y-51214285D01*
X80492914Y-51214285D02*
X80397676Y-51166666D01*
X80397676Y-51166666D02*
X80302438Y-51071428D01*
X80302438Y-51071428D02*
X80254819Y-50928571D01*
X80254819Y-50928571D02*
X80254819Y-50833333D01*
X80254819Y-50833333D02*
X80302438Y-50690476D01*
X80302438Y-50690476D02*
X80350057Y-50642857D01*
X81254819Y-49690476D02*
X81254819Y-50261904D01*
X81254819Y-49976190D02*
X80254819Y-49976190D01*
X80254819Y-49976190D02*
X80397676Y-50071428D01*
X80397676Y-50071428D02*
X80492914Y-50166666D01*
X80492914Y-50166666D02*
X80540533Y-50261904D01*
X80254819Y-48833333D02*
X80254819Y-49023809D01*
X80254819Y-49023809D02*
X80302438Y-49119047D01*
X80302438Y-49119047D02*
X80350057Y-49166666D01*
X80350057Y-49166666D02*
X80492914Y-49261904D01*
X80492914Y-49261904D02*
X80683390Y-49309523D01*
X80683390Y-49309523D02*
X81064342Y-49309523D01*
X81064342Y-49309523D02*
X81159580Y-49261904D01*
X81159580Y-49261904D02*
X81207200Y-49214285D01*
X81207200Y-49214285D02*
X81254819Y-49119047D01*
X81254819Y-49119047D02*
X81254819Y-48928571D01*
X81254819Y-48928571D02*
X81207200Y-48833333D01*
X81207200Y-48833333D02*
X81159580Y-48785714D01*
X81159580Y-48785714D02*
X81064342Y-48738095D01*
X81064342Y-48738095D02*
X80826247Y-48738095D01*
X80826247Y-48738095D02*
X80731009Y-48785714D01*
X80731009Y-48785714D02*
X80683390Y-48833333D01*
X80683390Y-48833333D02*
X80635771Y-48928571D01*
X80635771Y-48928571D02*
X80635771Y-49119047D01*
X80635771Y-49119047D02*
X80683390Y-49214285D01*
X80683390Y-49214285D02*
X80731009Y-49261904D01*
X80731009Y-49261904D02*
X80826247Y-49309523D01*
X116933333Y-64404819D02*
X116600000Y-63928628D01*
X116361905Y-64404819D02*
X116361905Y-63404819D01*
X116361905Y-63404819D02*
X116742857Y-63404819D01*
X116742857Y-63404819D02*
X116838095Y-63452438D01*
X116838095Y-63452438D02*
X116885714Y-63500057D01*
X116885714Y-63500057D02*
X116933333Y-63595295D01*
X116933333Y-63595295D02*
X116933333Y-63738152D01*
X116933333Y-63738152D02*
X116885714Y-63833390D01*
X116885714Y-63833390D02*
X116838095Y-63881009D01*
X116838095Y-63881009D02*
X116742857Y-63928628D01*
X116742857Y-63928628D02*
X116361905Y-63928628D01*
X117409524Y-64404819D02*
X117600000Y-64404819D01*
X117600000Y-64404819D02*
X117695238Y-64357200D01*
X117695238Y-64357200D02*
X117742857Y-64309580D01*
X117742857Y-64309580D02*
X117838095Y-64166723D01*
X117838095Y-64166723D02*
X117885714Y-63976247D01*
X117885714Y-63976247D02*
X117885714Y-63595295D01*
X117885714Y-63595295D02*
X117838095Y-63500057D01*
X117838095Y-63500057D02*
X117790476Y-63452438D01*
X117790476Y-63452438D02*
X117695238Y-63404819D01*
X117695238Y-63404819D02*
X117504762Y-63404819D01*
X117504762Y-63404819D02*
X117409524Y-63452438D01*
X117409524Y-63452438D02*
X117361905Y-63500057D01*
X117361905Y-63500057D02*
X117314286Y-63595295D01*
X117314286Y-63595295D02*
X117314286Y-63833390D01*
X117314286Y-63833390D02*
X117361905Y-63928628D01*
X117361905Y-63928628D02*
X117409524Y-63976247D01*
X117409524Y-63976247D02*
X117504762Y-64023866D01*
X117504762Y-64023866D02*
X117695238Y-64023866D01*
X117695238Y-64023866D02*
X117790476Y-63976247D01*
X117790476Y-63976247D02*
X117838095Y-63928628D01*
X117838095Y-63928628D02*
X117885714Y-63833390D01*
X69883333Y-37104819D02*
X69550000Y-36628628D01*
X69311905Y-37104819D02*
X69311905Y-36104819D01*
X69311905Y-36104819D02*
X69692857Y-36104819D01*
X69692857Y-36104819D02*
X69788095Y-36152438D01*
X69788095Y-36152438D02*
X69835714Y-36200057D01*
X69835714Y-36200057D02*
X69883333Y-36295295D01*
X69883333Y-36295295D02*
X69883333Y-36438152D01*
X69883333Y-36438152D02*
X69835714Y-36533390D01*
X69835714Y-36533390D02*
X69788095Y-36581009D01*
X69788095Y-36581009D02*
X69692857Y-36628628D01*
X69692857Y-36628628D02*
X69311905Y-36628628D01*
X70740476Y-36104819D02*
X70550000Y-36104819D01*
X70550000Y-36104819D02*
X70454762Y-36152438D01*
X70454762Y-36152438D02*
X70407143Y-36200057D01*
X70407143Y-36200057D02*
X70311905Y-36342914D01*
X70311905Y-36342914D02*
X70264286Y-36533390D01*
X70264286Y-36533390D02*
X70264286Y-36914342D01*
X70264286Y-36914342D02*
X70311905Y-37009580D01*
X70311905Y-37009580D02*
X70359524Y-37057200D01*
X70359524Y-37057200D02*
X70454762Y-37104819D01*
X70454762Y-37104819D02*
X70645238Y-37104819D01*
X70645238Y-37104819D02*
X70740476Y-37057200D01*
X70740476Y-37057200D02*
X70788095Y-37009580D01*
X70788095Y-37009580D02*
X70835714Y-36914342D01*
X70835714Y-36914342D02*
X70835714Y-36676247D01*
X70835714Y-36676247D02*
X70788095Y-36581009D01*
X70788095Y-36581009D02*
X70740476Y-36533390D01*
X70740476Y-36533390D02*
X70645238Y-36485771D01*
X70645238Y-36485771D02*
X70454762Y-36485771D01*
X70454762Y-36485771D02*
X70359524Y-36533390D01*
X70359524Y-36533390D02*
X70311905Y-36581009D01*
X70311905Y-36581009D02*
X70264286Y-36676247D01*
X102133333Y-47404819D02*
X101800000Y-46928628D01*
X101561905Y-47404819D02*
X101561905Y-46404819D01*
X101561905Y-46404819D02*
X101942857Y-46404819D01*
X101942857Y-46404819D02*
X102038095Y-46452438D01*
X102038095Y-46452438D02*
X102085714Y-46500057D01*
X102085714Y-46500057D02*
X102133333Y-46595295D01*
X102133333Y-46595295D02*
X102133333Y-46738152D01*
X102133333Y-46738152D02*
X102085714Y-46833390D01*
X102085714Y-46833390D02*
X102038095Y-46881009D01*
X102038095Y-46881009D02*
X101942857Y-46928628D01*
X101942857Y-46928628D02*
X101561905Y-46928628D01*
X103085714Y-47404819D02*
X102514286Y-47404819D01*
X102800000Y-47404819D02*
X102800000Y-46404819D01*
X102800000Y-46404819D02*
X102704762Y-46547676D01*
X102704762Y-46547676D02*
X102609524Y-46642914D01*
X102609524Y-46642914D02*
X102514286Y-46690533D01*
X103133333Y-50254819D02*
X102800000Y-49778628D01*
X102561905Y-50254819D02*
X102561905Y-49254819D01*
X102561905Y-49254819D02*
X102942857Y-49254819D01*
X102942857Y-49254819D02*
X103038095Y-49302438D01*
X103038095Y-49302438D02*
X103085714Y-49350057D01*
X103085714Y-49350057D02*
X103133333Y-49445295D01*
X103133333Y-49445295D02*
X103133333Y-49588152D01*
X103133333Y-49588152D02*
X103085714Y-49683390D01*
X103085714Y-49683390D02*
X103038095Y-49731009D01*
X103038095Y-49731009D02*
X102942857Y-49778628D01*
X102942857Y-49778628D02*
X102561905Y-49778628D01*
X103990476Y-49588152D02*
X103990476Y-50254819D01*
X103752381Y-49207200D02*
X103514286Y-49921485D01*
X103514286Y-49921485D02*
X104133333Y-49921485D01*
X44444819Y-68508333D02*
X45159104Y-68508333D01*
X45159104Y-68508333D02*
X45301961Y-68555952D01*
X45301961Y-68555952D02*
X45397200Y-68651190D01*
X45397200Y-68651190D02*
X45444819Y-68794047D01*
X45444819Y-68794047D02*
X45444819Y-68889285D01*
X44444819Y-68127380D02*
X44444819Y-67508333D01*
X44444819Y-67508333D02*
X44825771Y-67841666D01*
X44825771Y-67841666D02*
X44825771Y-67698809D01*
X44825771Y-67698809D02*
X44873390Y-67603571D01*
X44873390Y-67603571D02*
X44921009Y-67555952D01*
X44921009Y-67555952D02*
X45016247Y-67508333D01*
X45016247Y-67508333D02*
X45254342Y-67508333D01*
X45254342Y-67508333D02*
X45349580Y-67555952D01*
X45349580Y-67555952D02*
X45397200Y-67603571D01*
X45397200Y-67603571D02*
X45444819Y-67698809D01*
X45444819Y-67698809D02*
X45444819Y-67984523D01*
X45444819Y-67984523D02*
X45397200Y-68079761D01*
X45397200Y-68079761D02*
X45349580Y-68127380D01*
X102883333Y-52804819D02*
X102550000Y-52328628D01*
X102311905Y-52804819D02*
X102311905Y-51804819D01*
X102311905Y-51804819D02*
X102692857Y-51804819D01*
X102692857Y-51804819D02*
X102788095Y-51852438D01*
X102788095Y-51852438D02*
X102835714Y-51900057D01*
X102835714Y-51900057D02*
X102883333Y-51995295D01*
X102883333Y-51995295D02*
X102883333Y-52138152D01*
X102883333Y-52138152D02*
X102835714Y-52233390D01*
X102835714Y-52233390D02*
X102788095Y-52281009D01*
X102788095Y-52281009D02*
X102692857Y-52328628D01*
X102692857Y-52328628D02*
X102311905Y-52328628D01*
X103264286Y-51900057D02*
X103311905Y-51852438D01*
X103311905Y-51852438D02*
X103407143Y-51804819D01*
X103407143Y-51804819D02*
X103645238Y-51804819D01*
X103645238Y-51804819D02*
X103740476Y-51852438D01*
X103740476Y-51852438D02*
X103788095Y-51900057D01*
X103788095Y-51900057D02*
X103835714Y-51995295D01*
X103835714Y-51995295D02*
X103835714Y-52090533D01*
X103835714Y-52090533D02*
X103788095Y-52233390D01*
X103788095Y-52233390D02*
X103216667Y-52804819D01*
X103216667Y-52804819D02*
X103835714Y-52804819D01*
X49564819Y-59209523D02*
X50279104Y-59209523D01*
X50279104Y-59209523D02*
X50421961Y-59257142D01*
X50421961Y-59257142D02*
X50517200Y-59352380D01*
X50517200Y-59352380D02*
X50564819Y-59495237D01*
X50564819Y-59495237D02*
X50564819Y-59590475D01*
X50564819Y-58209523D02*
X50564819Y-58780951D01*
X50564819Y-58495237D02*
X49564819Y-58495237D01*
X49564819Y-58495237D02*
X49707676Y-58590475D01*
X49707676Y-58590475D02*
X49802914Y-58685713D01*
X49802914Y-58685713D02*
X49850533Y-58780951D01*
X49564819Y-57876189D02*
X49564819Y-57209523D01*
X49564819Y-57209523D02*
X50564819Y-57638094D01*
X109583333Y-38809580D02*
X109535714Y-38857200D01*
X109535714Y-38857200D02*
X109392857Y-38904819D01*
X109392857Y-38904819D02*
X109297619Y-38904819D01*
X109297619Y-38904819D02*
X109154762Y-38857200D01*
X109154762Y-38857200D02*
X109059524Y-38761961D01*
X109059524Y-38761961D02*
X109011905Y-38666723D01*
X109011905Y-38666723D02*
X108964286Y-38476247D01*
X108964286Y-38476247D02*
X108964286Y-38333390D01*
X108964286Y-38333390D02*
X109011905Y-38142914D01*
X109011905Y-38142914D02*
X109059524Y-38047676D01*
X109059524Y-38047676D02*
X109154762Y-37952438D01*
X109154762Y-37952438D02*
X109297619Y-37904819D01*
X109297619Y-37904819D02*
X109392857Y-37904819D01*
X109392857Y-37904819D02*
X109535714Y-37952438D01*
X109535714Y-37952438D02*
X109583333Y-38000057D01*
X110488095Y-37904819D02*
X110011905Y-37904819D01*
X110011905Y-37904819D02*
X109964286Y-38381009D01*
X109964286Y-38381009D02*
X110011905Y-38333390D01*
X110011905Y-38333390D02*
X110107143Y-38285771D01*
X110107143Y-38285771D02*
X110345238Y-38285771D01*
X110345238Y-38285771D02*
X110440476Y-38333390D01*
X110440476Y-38333390D02*
X110488095Y-38381009D01*
X110488095Y-38381009D02*
X110535714Y-38476247D01*
X110535714Y-38476247D02*
X110535714Y-38714342D01*
X110535714Y-38714342D02*
X110488095Y-38809580D01*
X110488095Y-38809580D02*
X110440476Y-38857200D01*
X110440476Y-38857200D02*
X110345238Y-38904819D01*
X110345238Y-38904819D02*
X110107143Y-38904819D01*
X110107143Y-38904819D02*
X110011905Y-38857200D01*
X110011905Y-38857200D02*
X109964286Y-38809580D01*
X89790476Y-69654819D02*
X89790476Y-70369104D01*
X89790476Y-70369104D02*
X89742857Y-70511961D01*
X89742857Y-70511961D02*
X89647619Y-70607200D01*
X89647619Y-70607200D02*
X89504762Y-70654819D01*
X89504762Y-70654819D02*
X89409524Y-70654819D01*
X90790476Y-70654819D02*
X90219048Y-70654819D01*
X90504762Y-70654819D02*
X90504762Y-69654819D01*
X90504762Y-69654819D02*
X90409524Y-69797676D01*
X90409524Y-69797676D02*
X90314286Y-69892914D01*
X90314286Y-69892914D02*
X90219048Y-69940533D01*
X91171429Y-69750057D02*
X91219048Y-69702438D01*
X91219048Y-69702438D02*
X91314286Y-69654819D01*
X91314286Y-69654819D02*
X91552381Y-69654819D01*
X91552381Y-69654819D02*
X91647619Y-69702438D01*
X91647619Y-69702438D02*
X91695238Y-69750057D01*
X91695238Y-69750057D02*
X91742857Y-69845295D01*
X91742857Y-69845295D02*
X91742857Y-69940533D01*
X91742857Y-69940533D02*
X91695238Y-70083390D01*
X91695238Y-70083390D02*
X91123810Y-70654819D01*
X91123810Y-70654819D02*
X91742857Y-70654819D01*
X98266666Y-35454819D02*
X98266666Y-36169104D01*
X98266666Y-36169104D02*
X98219047Y-36311961D01*
X98219047Y-36311961D02*
X98123809Y-36407200D01*
X98123809Y-36407200D02*
X97980952Y-36454819D01*
X97980952Y-36454819D02*
X97885714Y-36454819D01*
X98647619Y-35454819D02*
X99314285Y-35454819D01*
X99314285Y-35454819D02*
X98885714Y-36454819D01*
X107657142Y-69409580D02*
X107609523Y-69457200D01*
X107609523Y-69457200D02*
X107466666Y-69504819D01*
X107466666Y-69504819D02*
X107371428Y-69504819D01*
X107371428Y-69504819D02*
X107228571Y-69457200D01*
X107228571Y-69457200D02*
X107133333Y-69361961D01*
X107133333Y-69361961D02*
X107085714Y-69266723D01*
X107085714Y-69266723D02*
X107038095Y-69076247D01*
X107038095Y-69076247D02*
X107038095Y-68933390D01*
X107038095Y-68933390D02*
X107085714Y-68742914D01*
X107085714Y-68742914D02*
X107133333Y-68647676D01*
X107133333Y-68647676D02*
X107228571Y-68552438D01*
X107228571Y-68552438D02*
X107371428Y-68504819D01*
X107371428Y-68504819D02*
X107466666Y-68504819D01*
X107466666Y-68504819D02*
X107609523Y-68552438D01*
X107609523Y-68552438D02*
X107657142Y-68600057D01*
X108609523Y-69504819D02*
X108038095Y-69504819D01*
X108323809Y-69504819D02*
X108323809Y-68504819D01*
X108323809Y-68504819D02*
X108228571Y-68647676D01*
X108228571Y-68647676D02*
X108133333Y-68742914D01*
X108133333Y-68742914D02*
X108038095Y-68790533D01*
X109561904Y-69504819D02*
X108990476Y-69504819D01*
X109276190Y-69504819D02*
X109276190Y-68504819D01*
X109276190Y-68504819D02*
X109180952Y-68647676D01*
X109180952Y-68647676D02*
X109085714Y-68742914D01*
X109085714Y-68742914D02*
X108990476Y-68790533D01*
X83554819Y-46172857D02*
X83078628Y-46506190D01*
X83554819Y-46744285D02*
X82554819Y-46744285D01*
X82554819Y-46744285D02*
X82554819Y-46363333D01*
X82554819Y-46363333D02*
X82602438Y-46268095D01*
X82602438Y-46268095D02*
X82650057Y-46220476D01*
X82650057Y-46220476D02*
X82745295Y-46172857D01*
X82745295Y-46172857D02*
X82888152Y-46172857D01*
X82888152Y-46172857D02*
X82983390Y-46220476D01*
X82983390Y-46220476D02*
X83031009Y-46268095D01*
X83031009Y-46268095D02*
X83078628Y-46363333D01*
X83078628Y-46363333D02*
X83078628Y-46744285D01*
X83554819Y-45220476D02*
X83554819Y-45791904D01*
X83554819Y-45506190D02*
X82554819Y-45506190D01*
X82554819Y-45506190D02*
X82697676Y-45601428D01*
X82697676Y-45601428D02*
X82792914Y-45696666D01*
X82792914Y-45696666D02*
X82840533Y-45791904D01*
X82554819Y-44363333D02*
X82554819Y-44553809D01*
X82554819Y-44553809D02*
X82602438Y-44649047D01*
X82602438Y-44649047D02*
X82650057Y-44696666D01*
X82650057Y-44696666D02*
X82792914Y-44791904D01*
X82792914Y-44791904D02*
X82983390Y-44839523D01*
X82983390Y-44839523D02*
X83364342Y-44839523D01*
X83364342Y-44839523D02*
X83459580Y-44791904D01*
X83459580Y-44791904D02*
X83507200Y-44744285D01*
X83507200Y-44744285D02*
X83554819Y-44649047D01*
X83554819Y-44649047D02*
X83554819Y-44458571D01*
X83554819Y-44458571D02*
X83507200Y-44363333D01*
X83507200Y-44363333D02*
X83459580Y-44315714D01*
X83459580Y-44315714D02*
X83364342Y-44268095D01*
X83364342Y-44268095D02*
X83126247Y-44268095D01*
X83126247Y-44268095D02*
X83031009Y-44315714D01*
X83031009Y-44315714D02*
X82983390Y-44363333D01*
X82983390Y-44363333D02*
X82935771Y-44458571D01*
X82935771Y-44458571D02*
X82935771Y-44649047D01*
X82935771Y-44649047D02*
X82983390Y-44744285D01*
X82983390Y-44744285D02*
X83031009Y-44791904D01*
X83031009Y-44791904D02*
X83126247Y-44839523D01*
X71607142Y-76159580D02*
X71559523Y-76207200D01*
X71559523Y-76207200D02*
X71416666Y-76254819D01*
X71416666Y-76254819D02*
X71321428Y-76254819D01*
X71321428Y-76254819D02*
X71178571Y-76207200D01*
X71178571Y-76207200D02*
X71083333Y-76111961D01*
X71083333Y-76111961D02*
X71035714Y-76016723D01*
X71035714Y-76016723D02*
X70988095Y-75826247D01*
X70988095Y-75826247D02*
X70988095Y-75683390D01*
X70988095Y-75683390D02*
X71035714Y-75492914D01*
X71035714Y-75492914D02*
X71083333Y-75397676D01*
X71083333Y-75397676D02*
X71178571Y-75302438D01*
X71178571Y-75302438D02*
X71321428Y-75254819D01*
X71321428Y-75254819D02*
X71416666Y-75254819D01*
X71416666Y-75254819D02*
X71559523Y-75302438D01*
X71559523Y-75302438D02*
X71607142Y-75350057D01*
X71988095Y-75350057D02*
X72035714Y-75302438D01*
X72035714Y-75302438D02*
X72130952Y-75254819D01*
X72130952Y-75254819D02*
X72369047Y-75254819D01*
X72369047Y-75254819D02*
X72464285Y-75302438D01*
X72464285Y-75302438D02*
X72511904Y-75350057D01*
X72511904Y-75350057D02*
X72559523Y-75445295D01*
X72559523Y-75445295D02*
X72559523Y-75540533D01*
X72559523Y-75540533D02*
X72511904Y-75683390D01*
X72511904Y-75683390D02*
X71940476Y-76254819D01*
X71940476Y-76254819D02*
X72559523Y-76254819D01*
X72940476Y-75350057D02*
X72988095Y-75302438D01*
X72988095Y-75302438D02*
X73083333Y-75254819D01*
X73083333Y-75254819D02*
X73321428Y-75254819D01*
X73321428Y-75254819D02*
X73416666Y-75302438D01*
X73416666Y-75302438D02*
X73464285Y-75350057D01*
X73464285Y-75350057D02*
X73511904Y-75445295D01*
X73511904Y-75445295D02*
X73511904Y-75540533D01*
X73511904Y-75540533D02*
X73464285Y-75683390D01*
X73464285Y-75683390D02*
X72892857Y-76254819D01*
X72892857Y-76254819D02*
X73511904Y-76254819D01*
X50461905Y-65754819D02*
X50461905Y-64754819D01*
X50461905Y-64754819D02*
X50700000Y-64754819D01*
X50700000Y-64754819D02*
X50842857Y-64802438D01*
X50842857Y-64802438D02*
X50938095Y-64897676D01*
X50938095Y-64897676D02*
X50985714Y-64992914D01*
X50985714Y-64992914D02*
X51033333Y-65183390D01*
X51033333Y-65183390D02*
X51033333Y-65326247D01*
X51033333Y-65326247D02*
X50985714Y-65516723D01*
X50985714Y-65516723D02*
X50938095Y-65611961D01*
X50938095Y-65611961D02*
X50842857Y-65707200D01*
X50842857Y-65707200D02*
X50700000Y-65754819D01*
X50700000Y-65754819D02*
X50461905Y-65754819D01*
X51604762Y-65183390D02*
X51509524Y-65135771D01*
X51509524Y-65135771D02*
X51461905Y-65088152D01*
X51461905Y-65088152D02*
X51414286Y-64992914D01*
X51414286Y-64992914D02*
X51414286Y-64945295D01*
X51414286Y-64945295D02*
X51461905Y-64850057D01*
X51461905Y-64850057D02*
X51509524Y-64802438D01*
X51509524Y-64802438D02*
X51604762Y-64754819D01*
X51604762Y-64754819D02*
X51795238Y-64754819D01*
X51795238Y-64754819D02*
X51890476Y-64802438D01*
X51890476Y-64802438D02*
X51938095Y-64850057D01*
X51938095Y-64850057D02*
X51985714Y-64945295D01*
X51985714Y-64945295D02*
X51985714Y-64992914D01*
X51985714Y-64992914D02*
X51938095Y-65088152D01*
X51938095Y-65088152D02*
X51890476Y-65135771D01*
X51890476Y-65135771D02*
X51795238Y-65183390D01*
X51795238Y-65183390D02*
X51604762Y-65183390D01*
X51604762Y-65183390D02*
X51509524Y-65231009D01*
X51509524Y-65231009D02*
X51461905Y-65278628D01*
X51461905Y-65278628D02*
X51414286Y-65373866D01*
X51414286Y-65373866D02*
X51414286Y-65564342D01*
X51414286Y-65564342D02*
X51461905Y-65659580D01*
X51461905Y-65659580D02*
X51509524Y-65707200D01*
X51509524Y-65707200D02*
X51604762Y-65754819D01*
X51604762Y-65754819D02*
X51795238Y-65754819D01*
X51795238Y-65754819D02*
X51890476Y-65707200D01*
X51890476Y-65707200D02*
X51938095Y-65659580D01*
X51938095Y-65659580D02*
X51985714Y-65564342D01*
X51985714Y-65564342D02*
X51985714Y-65373866D01*
X51985714Y-65373866D02*
X51938095Y-65278628D01*
X51938095Y-65278628D02*
X51890476Y-65231009D01*
X51890476Y-65231009D02*
X51795238Y-65183390D01*
X81854819Y-34642857D02*
X81378628Y-34976190D01*
X81854819Y-35214285D02*
X80854819Y-35214285D01*
X80854819Y-35214285D02*
X80854819Y-34833333D01*
X80854819Y-34833333D02*
X80902438Y-34738095D01*
X80902438Y-34738095D02*
X80950057Y-34690476D01*
X80950057Y-34690476D02*
X81045295Y-34642857D01*
X81045295Y-34642857D02*
X81188152Y-34642857D01*
X81188152Y-34642857D02*
X81283390Y-34690476D01*
X81283390Y-34690476D02*
X81331009Y-34738095D01*
X81331009Y-34738095D02*
X81378628Y-34833333D01*
X81378628Y-34833333D02*
X81378628Y-35214285D01*
X80950057Y-34261904D02*
X80902438Y-34214285D01*
X80902438Y-34214285D02*
X80854819Y-34119047D01*
X80854819Y-34119047D02*
X80854819Y-33880952D01*
X80854819Y-33880952D02*
X80902438Y-33785714D01*
X80902438Y-33785714D02*
X80950057Y-33738095D01*
X80950057Y-33738095D02*
X81045295Y-33690476D01*
X81045295Y-33690476D02*
X81140533Y-33690476D01*
X81140533Y-33690476D02*
X81283390Y-33738095D01*
X81283390Y-33738095D02*
X81854819Y-34309523D01*
X81854819Y-34309523D02*
X81854819Y-33690476D01*
X81854819Y-32738095D02*
X81854819Y-33309523D01*
X81854819Y-33023809D02*
X80854819Y-33023809D01*
X80854819Y-33023809D02*
X80997676Y-33119047D01*
X80997676Y-33119047D02*
X81092914Y-33214285D01*
X81092914Y-33214285D02*
X81140533Y-33309523D01*
X106457142Y-59404819D02*
X106123809Y-58928628D01*
X105885714Y-59404819D02*
X105885714Y-58404819D01*
X105885714Y-58404819D02*
X106266666Y-58404819D01*
X106266666Y-58404819D02*
X106361904Y-58452438D01*
X106361904Y-58452438D02*
X106409523Y-58500057D01*
X106409523Y-58500057D02*
X106457142Y-58595295D01*
X106457142Y-58595295D02*
X106457142Y-58738152D01*
X106457142Y-58738152D02*
X106409523Y-58833390D01*
X106409523Y-58833390D02*
X106361904Y-58881009D01*
X106361904Y-58881009D02*
X106266666Y-58928628D01*
X106266666Y-58928628D02*
X105885714Y-58928628D01*
X107409523Y-59404819D02*
X106838095Y-59404819D01*
X107123809Y-59404819D02*
X107123809Y-58404819D01*
X107123809Y-58404819D02*
X107028571Y-58547676D01*
X107028571Y-58547676D02*
X106933333Y-58642914D01*
X106933333Y-58642914D02*
X106838095Y-58690533D01*
X107790476Y-58500057D02*
X107838095Y-58452438D01*
X107838095Y-58452438D02*
X107933333Y-58404819D01*
X107933333Y-58404819D02*
X108171428Y-58404819D01*
X108171428Y-58404819D02*
X108266666Y-58452438D01*
X108266666Y-58452438D02*
X108314285Y-58500057D01*
X108314285Y-58500057D02*
X108361904Y-58595295D01*
X108361904Y-58595295D02*
X108361904Y-58690533D01*
X108361904Y-58690533D02*
X108314285Y-58833390D01*
X108314285Y-58833390D02*
X107742857Y-59404819D01*
X107742857Y-59404819D02*
X108361904Y-59404819D01*
X83307142Y-70809580D02*
X83259523Y-70857200D01*
X83259523Y-70857200D02*
X83116666Y-70904819D01*
X83116666Y-70904819D02*
X83021428Y-70904819D01*
X83021428Y-70904819D02*
X82878571Y-70857200D01*
X82878571Y-70857200D02*
X82783333Y-70761961D01*
X82783333Y-70761961D02*
X82735714Y-70666723D01*
X82735714Y-70666723D02*
X82688095Y-70476247D01*
X82688095Y-70476247D02*
X82688095Y-70333390D01*
X82688095Y-70333390D02*
X82735714Y-70142914D01*
X82735714Y-70142914D02*
X82783333Y-70047676D01*
X82783333Y-70047676D02*
X82878571Y-69952438D01*
X82878571Y-69952438D02*
X83021428Y-69904819D01*
X83021428Y-69904819D02*
X83116666Y-69904819D01*
X83116666Y-69904819D02*
X83259523Y-69952438D01*
X83259523Y-69952438D02*
X83307142Y-70000057D01*
X83688095Y-70000057D02*
X83735714Y-69952438D01*
X83735714Y-69952438D02*
X83830952Y-69904819D01*
X83830952Y-69904819D02*
X84069047Y-69904819D01*
X84069047Y-69904819D02*
X84164285Y-69952438D01*
X84164285Y-69952438D02*
X84211904Y-70000057D01*
X84211904Y-70000057D02*
X84259523Y-70095295D01*
X84259523Y-70095295D02*
X84259523Y-70190533D01*
X84259523Y-70190533D02*
X84211904Y-70333390D01*
X84211904Y-70333390D02*
X83640476Y-70904819D01*
X83640476Y-70904819D02*
X84259523Y-70904819D01*
X85116666Y-70238152D02*
X85116666Y-70904819D01*
X84878571Y-69857200D02*
X84640476Y-70571485D01*
X84640476Y-70571485D02*
X85259523Y-70571485D01*
X43961905Y-77154819D02*
X43961905Y-76154819D01*
X43961905Y-76154819D02*
X44200000Y-76154819D01*
X44200000Y-76154819D02*
X44342857Y-76202438D01*
X44342857Y-76202438D02*
X44438095Y-76297676D01*
X44438095Y-76297676D02*
X44485714Y-76392914D01*
X44485714Y-76392914D02*
X44533333Y-76583390D01*
X44533333Y-76583390D02*
X44533333Y-76726247D01*
X44533333Y-76726247D02*
X44485714Y-76916723D01*
X44485714Y-76916723D02*
X44438095Y-77011961D01*
X44438095Y-77011961D02*
X44342857Y-77107200D01*
X44342857Y-77107200D02*
X44200000Y-77154819D01*
X44200000Y-77154819D02*
X43961905Y-77154819D01*
X44866667Y-76154819D02*
X45533333Y-76154819D01*
X45533333Y-76154819D02*
X45104762Y-77154819D01*
X102533333Y-44804819D02*
X102200000Y-44328628D01*
X101961905Y-44804819D02*
X101961905Y-43804819D01*
X101961905Y-43804819D02*
X102342857Y-43804819D01*
X102342857Y-43804819D02*
X102438095Y-43852438D01*
X102438095Y-43852438D02*
X102485714Y-43900057D01*
X102485714Y-43900057D02*
X102533333Y-43995295D01*
X102533333Y-43995295D02*
X102533333Y-44138152D01*
X102533333Y-44138152D02*
X102485714Y-44233390D01*
X102485714Y-44233390D02*
X102438095Y-44281009D01*
X102438095Y-44281009D02*
X102342857Y-44328628D01*
X102342857Y-44328628D02*
X101961905Y-44328628D01*
X103104762Y-44233390D02*
X103009524Y-44185771D01*
X103009524Y-44185771D02*
X102961905Y-44138152D01*
X102961905Y-44138152D02*
X102914286Y-44042914D01*
X102914286Y-44042914D02*
X102914286Y-43995295D01*
X102914286Y-43995295D02*
X102961905Y-43900057D01*
X102961905Y-43900057D02*
X103009524Y-43852438D01*
X103009524Y-43852438D02*
X103104762Y-43804819D01*
X103104762Y-43804819D02*
X103295238Y-43804819D01*
X103295238Y-43804819D02*
X103390476Y-43852438D01*
X103390476Y-43852438D02*
X103438095Y-43900057D01*
X103438095Y-43900057D02*
X103485714Y-43995295D01*
X103485714Y-43995295D02*
X103485714Y-44042914D01*
X103485714Y-44042914D02*
X103438095Y-44138152D01*
X103438095Y-44138152D02*
X103390476Y-44185771D01*
X103390476Y-44185771D02*
X103295238Y-44233390D01*
X103295238Y-44233390D02*
X103104762Y-44233390D01*
X103104762Y-44233390D02*
X103009524Y-44281009D01*
X103009524Y-44281009D02*
X102961905Y-44328628D01*
X102961905Y-44328628D02*
X102914286Y-44423866D01*
X102914286Y-44423866D02*
X102914286Y-44614342D01*
X102914286Y-44614342D02*
X102961905Y-44709580D01*
X102961905Y-44709580D02*
X103009524Y-44757200D01*
X103009524Y-44757200D02*
X103104762Y-44804819D01*
X103104762Y-44804819D02*
X103295238Y-44804819D01*
X103295238Y-44804819D02*
X103390476Y-44757200D01*
X103390476Y-44757200D02*
X103438095Y-44709580D01*
X103438095Y-44709580D02*
X103485714Y-44614342D01*
X103485714Y-44614342D02*
X103485714Y-44423866D01*
X103485714Y-44423866D02*
X103438095Y-44328628D01*
X103438095Y-44328628D02*
X103390476Y-44281009D01*
X103390476Y-44281009D02*
X103295238Y-44233390D01*
X109333333Y-54554819D02*
X109000000Y-54078628D01*
X108761905Y-54554819D02*
X108761905Y-53554819D01*
X108761905Y-53554819D02*
X109142857Y-53554819D01*
X109142857Y-53554819D02*
X109238095Y-53602438D01*
X109238095Y-53602438D02*
X109285714Y-53650057D01*
X109285714Y-53650057D02*
X109333333Y-53745295D01*
X109333333Y-53745295D02*
X109333333Y-53888152D01*
X109333333Y-53888152D02*
X109285714Y-53983390D01*
X109285714Y-53983390D02*
X109238095Y-54031009D01*
X109238095Y-54031009D02*
X109142857Y-54078628D01*
X109142857Y-54078628D02*
X108761905Y-54078628D01*
X110238095Y-53554819D02*
X109761905Y-53554819D01*
X109761905Y-53554819D02*
X109714286Y-54031009D01*
X109714286Y-54031009D02*
X109761905Y-53983390D01*
X109761905Y-53983390D02*
X109857143Y-53935771D01*
X109857143Y-53935771D02*
X110095238Y-53935771D01*
X110095238Y-53935771D02*
X110190476Y-53983390D01*
X110190476Y-53983390D02*
X110238095Y-54031009D01*
X110238095Y-54031009D02*
X110285714Y-54126247D01*
X110285714Y-54126247D02*
X110285714Y-54364342D01*
X110285714Y-54364342D02*
X110238095Y-54459580D01*
X110238095Y-54459580D02*
X110190476Y-54507200D01*
X110190476Y-54507200D02*
X110095238Y-54554819D01*
X110095238Y-54554819D02*
X109857143Y-54554819D01*
X109857143Y-54554819D02*
X109761905Y-54507200D01*
X109761905Y-54507200D02*
X109714286Y-54459580D01*
X84054819Y-54937857D02*
X83578628Y-55271190D01*
X84054819Y-55509285D02*
X83054819Y-55509285D01*
X83054819Y-55509285D02*
X83054819Y-55128333D01*
X83054819Y-55128333D02*
X83102438Y-55033095D01*
X83102438Y-55033095D02*
X83150057Y-54985476D01*
X83150057Y-54985476D02*
X83245295Y-54937857D01*
X83245295Y-54937857D02*
X83388152Y-54937857D01*
X83388152Y-54937857D02*
X83483390Y-54985476D01*
X83483390Y-54985476D02*
X83531009Y-55033095D01*
X83531009Y-55033095D02*
X83578628Y-55128333D01*
X83578628Y-55128333D02*
X83578628Y-55509285D01*
X83150057Y-54556904D02*
X83102438Y-54509285D01*
X83102438Y-54509285D02*
X83054819Y-54414047D01*
X83054819Y-54414047D02*
X83054819Y-54175952D01*
X83054819Y-54175952D02*
X83102438Y-54080714D01*
X83102438Y-54080714D02*
X83150057Y-54033095D01*
X83150057Y-54033095D02*
X83245295Y-53985476D01*
X83245295Y-53985476D02*
X83340533Y-53985476D01*
X83340533Y-53985476D02*
X83483390Y-54033095D01*
X83483390Y-54033095D02*
X84054819Y-54604523D01*
X84054819Y-54604523D02*
X84054819Y-53985476D01*
X83483390Y-53414047D02*
X83435771Y-53509285D01*
X83435771Y-53509285D02*
X83388152Y-53556904D01*
X83388152Y-53556904D02*
X83292914Y-53604523D01*
X83292914Y-53604523D02*
X83245295Y-53604523D01*
X83245295Y-53604523D02*
X83150057Y-53556904D01*
X83150057Y-53556904D02*
X83102438Y-53509285D01*
X83102438Y-53509285D02*
X83054819Y-53414047D01*
X83054819Y-53414047D02*
X83054819Y-53223571D01*
X83054819Y-53223571D02*
X83102438Y-53128333D01*
X83102438Y-53128333D02*
X83150057Y-53080714D01*
X83150057Y-53080714D02*
X83245295Y-53033095D01*
X83245295Y-53033095D02*
X83292914Y-53033095D01*
X83292914Y-53033095D02*
X83388152Y-53080714D01*
X83388152Y-53080714D02*
X83435771Y-53128333D01*
X83435771Y-53128333D02*
X83483390Y-53223571D01*
X83483390Y-53223571D02*
X83483390Y-53414047D01*
X83483390Y-53414047D02*
X83531009Y-53509285D01*
X83531009Y-53509285D02*
X83578628Y-53556904D01*
X83578628Y-53556904D02*
X83673866Y-53604523D01*
X83673866Y-53604523D02*
X83864342Y-53604523D01*
X83864342Y-53604523D02*
X83959580Y-53556904D01*
X83959580Y-53556904D02*
X84007200Y-53509285D01*
X84007200Y-53509285D02*
X84054819Y-53414047D01*
X84054819Y-53414047D02*
X84054819Y-53223571D01*
X84054819Y-53223571D02*
X84007200Y-53128333D01*
X84007200Y-53128333D02*
X83959580Y-53080714D01*
X83959580Y-53080714D02*
X83864342Y-53033095D01*
X83864342Y-53033095D02*
X83673866Y-53033095D01*
X83673866Y-53033095D02*
X83578628Y-53080714D01*
X83578628Y-53080714D02*
X83531009Y-53128333D01*
X83531009Y-53128333D02*
X83483390Y-53223571D01*
X77113095Y-64649819D02*
X77113095Y-65459342D01*
X77113095Y-65459342D02*
X77160714Y-65554580D01*
X77160714Y-65554580D02*
X77208333Y-65602200D01*
X77208333Y-65602200D02*
X77303571Y-65649819D01*
X77303571Y-65649819D02*
X77494047Y-65649819D01*
X77494047Y-65649819D02*
X77589285Y-65602200D01*
X77589285Y-65602200D02*
X77636904Y-65554580D01*
X77636904Y-65554580D02*
X77684523Y-65459342D01*
X77684523Y-65459342D02*
X77684523Y-64649819D01*
X78303571Y-65078390D02*
X78208333Y-65030771D01*
X78208333Y-65030771D02*
X78160714Y-64983152D01*
X78160714Y-64983152D02*
X78113095Y-64887914D01*
X78113095Y-64887914D02*
X78113095Y-64840295D01*
X78113095Y-64840295D02*
X78160714Y-64745057D01*
X78160714Y-64745057D02*
X78208333Y-64697438D01*
X78208333Y-64697438D02*
X78303571Y-64649819D01*
X78303571Y-64649819D02*
X78494047Y-64649819D01*
X78494047Y-64649819D02*
X78589285Y-64697438D01*
X78589285Y-64697438D02*
X78636904Y-64745057D01*
X78636904Y-64745057D02*
X78684523Y-64840295D01*
X78684523Y-64840295D02*
X78684523Y-64887914D01*
X78684523Y-64887914D02*
X78636904Y-64983152D01*
X78636904Y-64983152D02*
X78589285Y-65030771D01*
X78589285Y-65030771D02*
X78494047Y-65078390D01*
X78494047Y-65078390D02*
X78303571Y-65078390D01*
X78303571Y-65078390D02*
X78208333Y-65126009D01*
X78208333Y-65126009D02*
X78160714Y-65173628D01*
X78160714Y-65173628D02*
X78113095Y-65268866D01*
X78113095Y-65268866D02*
X78113095Y-65459342D01*
X78113095Y-65459342D02*
X78160714Y-65554580D01*
X78160714Y-65554580D02*
X78208333Y-65602200D01*
X78208333Y-65602200D02*
X78303571Y-65649819D01*
X78303571Y-65649819D02*
X78494047Y-65649819D01*
X78494047Y-65649819D02*
X78589285Y-65602200D01*
X78589285Y-65602200D02*
X78636904Y-65554580D01*
X78636904Y-65554580D02*
X78684523Y-65459342D01*
X78684523Y-65459342D02*
X78684523Y-65268866D01*
X78684523Y-65268866D02*
X78636904Y-65173628D01*
X78636904Y-65173628D02*
X78589285Y-65126009D01*
X78589285Y-65126009D02*
X78494047Y-65078390D01*
X76579819Y-68937857D02*
X76103628Y-69271190D01*
X76579819Y-69509285D02*
X75579819Y-69509285D01*
X75579819Y-69509285D02*
X75579819Y-69128333D01*
X75579819Y-69128333D02*
X75627438Y-69033095D01*
X75627438Y-69033095D02*
X75675057Y-68985476D01*
X75675057Y-68985476D02*
X75770295Y-68937857D01*
X75770295Y-68937857D02*
X75913152Y-68937857D01*
X75913152Y-68937857D02*
X76008390Y-68985476D01*
X76008390Y-68985476D02*
X76056009Y-69033095D01*
X76056009Y-69033095D02*
X76103628Y-69128333D01*
X76103628Y-69128333D02*
X76103628Y-69509285D01*
X75579819Y-68604523D02*
X75579819Y-67985476D01*
X75579819Y-67985476D02*
X75960771Y-68318809D01*
X75960771Y-68318809D02*
X75960771Y-68175952D01*
X75960771Y-68175952D02*
X76008390Y-68080714D01*
X76008390Y-68080714D02*
X76056009Y-68033095D01*
X76056009Y-68033095D02*
X76151247Y-67985476D01*
X76151247Y-67985476D02*
X76389342Y-67985476D01*
X76389342Y-67985476D02*
X76484580Y-68033095D01*
X76484580Y-68033095D02*
X76532200Y-68080714D01*
X76532200Y-68080714D02*
X76579819Y-68175952D01*
X76579819Y-68175952D02*
X76579819Y-68461666D01*
X76579819Y-68461666D02*
X76532200Y-68556904D01*
X76532200Y-68556904D02*
X76484580Y-68604523D01*
X75675057Y-67604523D02*
X75627438Y-67556904D01*
X75627438Y-67556904D02*
X75579819Y-67461666D01*
X75579819Y-67461666D02*
X75579819Y-67223571D01*
X75579819Y-67223571D02*
X75627438Y-67128333D01*
X75627438Y-67128333D02*
X75675057Y-67080714D01*
X75675057Y-67080714D02*
X75770295Y-67033095D01*
X75770295Y-67033095D02*
X75865533Y-67033095D01*
X75865533Y-67033095D02*
X76008390Y-67080714D01*
X76008390Y-67080714D02*
X76579819Y-67652142D01*
X76579819Y-67652142D02*
X76579819Y-67033095D01*
X77854819Y-34642857D02*
X77378628Y-34976190D01*
X77854819Y-35214285D02*
X76854819Y-35214285D01*
X76854819Y-35214285D02*
X76854819Y-34833333D01*
X76854819Y-34833333D02*
X76902438Y-34738095D01*
X76902438Y-34738095D02*
X76950057Y-34690476D01*
X76950057Y-34690476D02*
X77045295Y-34642857D01*
X77045295Y-34642857D02*
X77188152Y-34642857D01*
X77188152Y-34642857D02*
X77283390Y-34690476D01*
X77283390Y-34690476D02*
X77331009Y-34738095D01*
X77331009Y-34738095D02*
X77378628Y-34833333D01*
X77378628Y-34833333D02*
X77378628Y-35214285D01*
X76950057Y-34261904D02*
X76902438Y-34214285D01*
X76902438Y-34214285D02*
X76854819Y-34119047D01*
X76854819Y-34119047D02*
X76854819Y-33880952D01*
X76854819Y-33880952D02*
X76902438Y-33785714D01*
X76902438Y-33785714D02*
X76950057Y-33738095D01*
X76950057Y-33738095D02*
X77045295Y-33690476D01*
X77045295Y-33690476D02*
X77140533Y-33690476D01*
X77140533Y-33690476D02*
X77283390Y-33738095D01*
X77283390Y-33738095D02*
X77854819Y-34309523D01*
X77854819Y-34309523D02*
X77854819Y-33690476D01*
X77188152Y-32833333D02*
X77854819Y-32833333D01*
X76807200Y-33071428D02*
X77521485Y-33309523D01*
X77521485Y-33309523D02*
X77521485Y-32690476D01*
X116657142Y-72109580D02*
X116609523Y-72157200D01*
X116609523Y-72157200D02*
X116466666Y-72204819D01*
X116466666Y-72204819D02*
X116371428Y-72204819D01*
X116371428Y-72204819D02*
X116228571Y-72157200D01*
X116228571Y-72157200D02*
X116133333Y-72061961D01*
X116133333Y-72061961D02*
X116085714Y-71966723D01*
X116085714Y-71966723D02*
X116038095Y-71776247D01*
X116038095Y-71776247D02*
X116038095Y-71633390D01*
X116038095Y-71633390D02*
X116085714Y-71442914D01*
X116085714Y-71442914D02*
X116133333Y-71347676D01*
X116133333Y-71347676D02*
X116228571Y-71252438D01*
X116228571Y-71252438D02*
X116371428Y-71204819D01*
X116371428Y-71204819D02*
X116466666Y-71204819D01*
X116466666Y-71204819D02*
X116609523Y-71252438D01*
X116609523Y-71252438D02*
X116657142Y-71300057D01*
X117609523Y-72204819D02*
X117038095Y-72204819D01*
X117323809Y-72204819D02*
X117323809Y-71204819D01*
X117323809Y-71204819D02*
X117228571Y-71347676D01*
X117228571Y-71347676D02*
X117133333Y-71442914D01*
X117133333Y-71442914D02*
X117038095Y-71490533D01*
X118228571Y-71204819D02*
X118323809Y-71204819D01*
X118323809Y-71204819D02*
X118419047Y-71252438D01*
X118419047Y-71252438D02*
X118466666Y-71300057D01*
X118466666Y-71300057D02*
X118514285Y-71395295D01*
X118514285Y-71395295D02*
X118561904Y-71585771D01*
X118561904Y-71585771D02*
X118561904Y-71823866D01*
X118561904Y-71823866D02*
X118514285Y-72014342D01*
X118514285Y-72014342D02*
X118466666Y-72109580D01*
X118466666Y-72109580D02*
X118419047Y-72157200D01*
X118419047Y-72157200D02*
X118323809Y-72204819D01*
X118323809Y-72204819D02*
X118228571Y-72204819D01*
X118228571Y-72204819D02*
X118133333Y-72157200D01*
X118133333Y-72157200D02*
X118085714Y-72109580D01*
X118085714Y-72109580D02*
X118038095Y-72014342D01*
X118038095Y-72014342D02*
X117990476Y-71823866D01*
X117990476Y-71823866D02*
X117990476Y-71585771D01*
X117990476Y-71585771D02*
X118038095Y-71395295D01*
X118038095Y-71395295D02*
X118085714Y-71300057D01*
X118085714Y-71300057D02*
X118133333Y-71252438D01*
X118133333Y-71252438D02*
X118228571Y-71204819D01*
X41761905Y-47854819D02*
X41761905Y-48664342D01*
X41761905Y-48664342D02*
X41809524Y-48759580D01*
X41809524Y-48759580D02*
X41857143Y-48807200D01*
X41857143Y-48807200D02*
X41952381Y-48854819D01*
X41952381Y-48854819D02*
X42142857Y-48854819D01*
X42142857Y-48854819D02*
X42238095Y-48807200D01*
X42238095Y-48807200D02*
X42285714Y-48759580D01*
X42285714Y-48759580D02*
X42333333Y-48664342D01*
X42333333Y-48664342D02*
X42333333Y-47854819D01*
X43333333Y-48854819D02*
X42761905Y-48854819D01*
X43047619Y-48854819D02*
X43047619Y-47854819D01*
X43047619Y-47854819D02*
X42952381Y-47997676D01*
X42952381Y-47997676D02*
X42857143Y-48092914D01*
X42857143Y-48092914D02*
X42761905Y-48140533D01*
X43952381Y-47854819D02*
X44047619Y-47854819D01*
X44047619Y-47854819D02*
X44142857Y-47902438D01*
X44142857Y-47902438D02*
X44190476Y-47950057D01*
X44190476Y-47950057D02*
X44238095Y-48045295D01*
X44238095Y-48045295D02*
X44285714Y-48235771D01*
X44285714Y-48235771D02*
X44285714Y-48473866D01*
X44285714Y-48473866D02*
X44238095Y-48664342D01*
X44238095Y-48664342D02*
X44190476Y-48759580D01*
X44190476Y-48759580D02*
X44142857Y-48807200D01*
X44142857Y-48807200D02*
X44047619Y-48854819D01*
X44047619Y-48854819D02*
X43952381Y-48854819D01*
X43952381Y-48854819D02*
X43857143Y-48807200D01*
X43857143Y-48807200D02*
X43809524Y-48759580D01*
X43809524Y-48759580D02*
X43761905Y-48664342D01*
X43761905Y-48664342D02*
X43714286Y-48473866D01*
X43714286Y-48473866D02*
X43714286Y-48235771D01*
X43714286Y-48235771D02*
X43761905Y-48045295D01*
X43761905Y-48045295D02*
X43809524Y-47950057D01*
X43809524Y-47950057D02*
X43857143Y-47902438D01*
X43857143Y-47902438D02*
X43952381Y-47854819D01*
X91957142Y-36759580D02*
X91909523Y-36807200D01*
X91909523Y-36807200D02*
X91766666Y-36854819D01*
X91766666Y-36854819D02*
X91671428Y-36854819D01*
X91671428Y-36854819D02*
X91528571Y-36807200D01*
X91528571Y-36807200D02*
X91433333Y-36711961D01*
X91433333Y-36711961D02*
X91385714Y-36616723D01*
X91385714Y-36616723D02*
X91338095Y-36426247D01*
X91338095Y-36426247D02*
X91338095Y-36283390D01*
X91338095Y-36283390D02*
X91385714Y-36092914D01*
X91385714Y-36092914D02*
X91433333Y-35997676D01*
X91433333Y-35997676D02*
X91528571Y-35902438D01*
X91528571Y-35902438D02*
X91671428Y-35854819D01*
X91671428Y-35854819D02*
X91766666Y-35854819D01*
X91766666Y-35854819D02*
X91909523Y-35902438D01*
X91909523Y-35902438D02*
X91957142Y-35950057D01*
X92909523Y-36854819D02*
X92338095Y-36854819D01*
X92623809Y-36854819D02*
X92623809Y-35854819D01*
X92623809Y-35854819D02*
X92528571Y-35997676D01*
X92528571Y-35997676D02*
X92433333Y-36092914D01*
X92433333Y-36092914D02*
X92338095Y-36140533D01*
X93766666Y-36188152D02*
X93766666Y-36854819D01*
X93528571Y-35807200D02*
X93290476Y-36521485D01*
X93290476Y-36521485D02*
X93909523Y-36521485D01*
X98059580Y-62116666D02*
X98107200Y-62164285D01*
X98107200Y-62164285D02*
X98154819Y-62307142D01*
X98154819Y-62307142D02*
X98154819Y-62402380D01*
X98154819Y-62402380D02*
X98107200Y-62545237D01*
X98107200Y-62545237D02*
X98011961Y-62640475D01*
X98011961Y-62640475D02*
X97916723Y-62688094D01*
X97916723Y-62688094D02*
X97726247Y-62735713D01*
X97726247Y-62735713D02*
X97583390Y-62735713D01*
X97583390Y-62735713D02*
X97392914Y-62688094D01*
X97392914Y-62688094D02*
X97297676Y-62640475D01*
X97297676Y-62640475D02*
X97202438Y-62545237D01*
X97202438Y-62545237D02*
X97154819Y-62402380D01*
X97154819Y-62402380D02*
X97154819Y-62307142D01*
X97154819Y-62307142D02*
X97202438Y-62164285D01*
X97202438Y-62164285D02*
X97250057Y-62116666D01*
X97154819Y-61259523D02*
X97154819Y-61449999D01*
X97154819Y-61449999D02*
X97202438Y-61545237D01*
X97202438Y-61545237D02*
X97250057Y-61592856D01*
X97250057Y-61592856D02*
X97392914Y-61688094D01*
X97392914Y-61688094D02*
X97583390Y-61735713D01*
X97583390Y-61735713D02*
X97964342Y-61735713D01*
X97964342Y-61735713D02*
X98059580Y-61688094D01*
X98059580Y-61688094D02*
X98107200Y-61640475D01*
X98107200Y-61640475D02*
X98154819Y-61545237D01*
X98154819Y-61545237D02*
X98154819Y-61354761D01*
X98154819Y-61354761D02*
X98107200Y-61259523D01*
X98107200Y-61259523D02*
X98059580Y-61211904D01*
X98059580Y-61211904D02*
X97964342Y-61164285D01*
X97964342Y-61164285D02*
X97726247Y-61164285D01*
X97726247Y-61164285D02*
X97631009Y-61211904D01*
X97631009Y-61211904D02*
X97583390Y-61259523D01*
X97583390Y-61259523D02*
X97535771Y-61354761D01*
X97535771Y-61354761D02*
X97535771Y-61545237D01*
X97535771Y-61545237D02*
X97583390Y-61640475D01*
X97583390Y-61640475D02*
X97631009Y-61688094D01*
X97631009Y-61688094D02*
X97726247Y-61735713D01*
X57236666Y-64669819D02*
X57236666Y-65384104D01*
X57236666Y-65384104D02*
X57189047Y-65526961D01*
X57189047Y-65526961D02*
X57093809Y-65622200D01*
X57093809Y-65622200D02*
X56950952Y-65669819D01*
X56950952Y-65669819D02*
X56855714Y-65669819D01*
X58141428Y-65003152D02*
X58141428Y-65669819D01*
X57903333Y-64622200D02*
X57665238Y-65336485D01*
X57665238Y-65336485D02*
X58284285Y-65336485D01*
X41940476Y-37244819D02*
X41940476Y-37959104D01*
X41940476Y-37959104D02*
X41892857Y-38101961D01*
X41892857Y-38101961D02*
X41797619Y-38197200D01*
X41797619Y-38197200D02*
X41654762Y-38244819D01*
X41654762Y-38244819D02*
X41559524Y-38244819D01*
X42940476Y-38244819D02*
X42369048Y-38244819D01*
X42654762Y-38244819D02*
X42654762Y-37244819D01*
X42654762Y-37244819D02*
X42559524Y-37387676D01*
X42559524Y-37387676D02*
X42464286Y-37482914D01*
X42464286Y-37482914D02*
X42369048Y-37530533D01*
X43845238Y-37244819D02*
X43369048Y-37244819D01*
X43369048Y-37244819D02*
X43321429Y-37721009D01*
X43321429Y-37721009D02*
X43369048Y-37673390D01*
X43369048Y-37673390D02*
X43464286Y-37625771D01*
X43464286Y-37625771D02*
X43702381Y-37625771D01*
X43702381Y-37625771D02*
X43797619Y-37673390D01*
X43797619Y-37673390D02*
X43845238Y-37721009D01*
X43845238Y-37721009D02*
X43892857Y-37816247D01*
X43892857Y-37816247D02*
X43892857Y-38054342D01*
X43892857Y-38054342D02*
X43845238Y-38149580D01*
X43845238Y-38149580D02*
X43797619Y-38197200D01*
X43797619Y-38197200D02*
X43702381Y-38244819D01*
X43702381Y-38244819D02*
X43464286Y-38244819D01*
X43464286Y-38244819D02*
X43369048Y-38197200D01*
X43369048Y-38197200D02*
X43321429Y-38149580D01*
X91907142Y-48309580D02*
X91859523Y-48357200D01*
X91859523Y-48357200D02*
X91716666Y-48404819D01*
X91716666Y-48404819D02*
X91621428Y-48404819D01*
X91621428Y-48404819D02*
X91478571Y-48357200D01*
X91478571Y-48357200D02*
X91383333Y-48261961D01*
X91383333Y-48261961D02*
X91335714Y-48166723D01*
X91335714Y-48166723D02*
X91288095Y-47976247D01*
X91288095Y-47976247D02*
X91288095Y-47833390D01*
X91288095Y-47833390D02*
X91335714Y-47642914D01*
X91335714Y-47642914D02*
X91383333Y-47547676D01*
X91383333Y-47547676D02*
X91478571Y-47452438D01*
X91478571Y-47452438D02*
X91621428Y-47404819D01*
X91621428Y-47404819D02*
X91716666Y-47404819D01*
X91716666Y-47404819D02*
X91859523Y-47452438D01*
X91859523Y-47452438D02*
X91907142Y-47500057D01*
X92859523Y-48404819D02*
X92288095Y-48404819D01*
X92573809Y-48404819D02*
X92573809Y-47404819D01*
X92573809Y-47404819D02*
X92478571Y-47547676D01*
X92478571Y-47547676D02*
X92383333Y-47642914D01*
X92383333Y-47642914D02*
X92288095Y-47690533D01*
X93430952Y-47833390D02*
X93335714Y-47785771D01*
X93335714Y-47785771D02*
X93288095Y-47738152D01*
X93288095Y-47738152D02*
X93240476Y-47642914D01*
X93240476Y-47642914D02*
X93240476Y-47595295D01*
X93240476Y-47595295D02*
X93288095Y-47500057D01*
X93288095Y-47500057D02*
X93335714Y-47452438D01*
X93335714Y-47452438D02*
X93430952Y-47404819D01*
X93430952Y-47404819D02*
X93621428Y-47404819D01*
X93621428Y-47404819D02*
X93716666Y-47452438D01*
X93716666Y-47452438D02*
X93764285Y-47500057D01*
X93764285Y-47500057D02*
X93811904Y-47595295D01*
X93811904Y-47595295D02*
X93811904Y-47642914D01*
X93811904Y-47642914D02*
X93764285Y-47738152D01*
X93764285Y-47738152D02*
X93716666Y-47785771D01*
X93716666Y-47785771D02*
X93621428Y-47833390D01*
X93621428Y-47833390D02*
X93430952Y-47833390D01*
X93430952Y-47833390D02*
X93335714Y-47881009D01*
X93335714Y-47881009D02*
X93288095Y-47928628D01*
X93288095Y-47928628D02*
X93240476Y-48023866D01*
X93240476Y-48023866D02*
X93240476Y-48214342D01*
X93240476Y-48214342D02*
X93288095Y-48309580D01*
X93288095Y-48309580D02*
X93335714Y-48357200D01*
X93335714Y-48357200D02*
X93430952Y-48404819D01*
X93430952Y-48404819D02*
X93621428Y-48404819D01*
X93621428Y-48404819D02*
X93716666Y-48357200D01*
X93716666Y-48357200D02*
X93764285Y-48309580D01*
X93764285Y-48309580D02*
X93811904Y-48214342D01*
X93811904Y-48214342D02*
X93811904Y-48023866D01*
X93811904Y-48023866D02*
X93764285Y-47928628D01*
X93764285Y-47928628D02*
X93716666Y-47881009D01*
X93716666Y-47881009D02*
X93621428Y-47833390D01*
X71779819Y-68937857D02*
X71303628Y-69271190D01*
X71779819Y-69509285D02*
X70779819Y-69509285D01*
X70779819Y-69509285D02*
X70779819Y-69128333D01*
X70779819Y-69128333D02*
X70827438Y-69033095D01*
X70827438Y-69033095D02*
X70875057Y-68985476D01*
X70875057Y-68985476D02*
X70970295Y-68937857D01*
X70970295Y-68937857D02*
X71113152Y-68937857D01*
X71113152Y-68937857D02*
X71208390Y-68985476D01*
X71208390Y-68985476D02*
X71256009Y-69033095D01*
X71256009Y-69033095D02*
X71303628Y-69128333D01*
X71303628Y-69128333D02*
X71303628Y-69509285D01*
X70779819Y-68604523D02*
X70779819Y-67985476D01*
X70779819Y-67985476D02*
X71160771Y-68318809D01*
X71160771Y-68318809D02*
X71160771Y-68175952D01*
X71160771Y-68175952D02*
X71208390Y-68080714D01*
X71208390Y-68080714D02*
X71256009Y-68033095D01*
X71256009Y-68033095D02*
X71351247Y-67985476D01*
X71351247Y-67985476D02*
X71589342Y-67985476D01*
X71589342Y-67985476D02*
X71684580Y-68033095D01*
X71684580Y-68033095D02*
X71732200Y-68080714D01*
X71732200Y-68080714D02*
X71779819Y-68175952D01*
X71779819Y-68175952D02*
X71779819Y-68461666D01*
X71779819Y-68461666D02*
X71732200Y-68556904D01*
X71732200Y-68556904D02*
X71684580Y-68604523D01*
X70779819Y-67128333D02*
X70779819Y-67318809D01*
X70779819Y-67318809D02*
X70827438Y-67414047D01*
X70827438Y-67414047D02*
X70875057Y-67461666D01*
X70875057Y-67461666D02*
X71017914Y-67556904D01*
X71017914Y-67556904D02*
X71208390Y-67604523D01*
X71208390Y-67604523D02*
X71589342Y-67604523D01*
X71589342Y-67604523D02*
X71684580Y-67556904D01*
X71684580Y-67556904D02*
X71732200Y-67509285D01*
X71732200Y-67509285D02*
X71779819Y-67414047D01*
X71779819Y-67414047D02*
X71779819Y-67223571D01*
X71779819Y-67223571D02*
X71732200Y-67128333D01*
X71732200Y-67128333D02*
X71684580Y-67080714D01*
X71684580Y-67080714D02*
X71589342Y-67033095D01*
X71589342Y-67033095D02*
X71351247Y-67033095D01*
X71351247Y-67033095D02*
X71256009Y-67080714D01*
X71256009Y-67080714D02*
X71208390Y-67128333D01*
X71208390Y-67128333D02*
X71160771Y-67223571D01*
X71160771Y-67223571D02*
X71160771Y-67414047D01*
X71160771Y-67414047D02*
X71208390Y-67509285D01*
X71208390Y-67509285D02*
X71256009Y-67556904D01*
X71256009Y-67556904D02*
X71351247Y-67604523D01*
X85854819Y-54842857D02*
X85378628Y-55176190D01*
X85854819Y-55414285D02*
X84854819Y-55414285D01*
X84854819Y-55414285D02*
X84854819Y-55033333D01*
X84854819Y-55033333D02*
X84902438Y-54938095D01*
X84902438Y-54938095D02*
X84950057Y-54890476D01*
X84950057Y-54890476D02*
X85045295Y-54842857D01*
X85045295Y-54842857D02*
X85188152Y-54842857D01*
X85188152Y-54842857D02*
X85283390Y-54890476D01*
X85283390Y-54890476D02*
X85331009Y-54938095D01*
X85331009Y-54938095D02*
X85378628Y-55033333D01*
X85378628Y-55033333D02*
X85378628Y-55414285D01*
X84950057Y-54461904D02*
X84902438Y-54414285D01*
X84902438Y-54414285D02*
X84854819Y-54319047D01*
X84854819Y-54319047D02*
X84854819Y-54080952D01*
X84854819Y-54080952D02*
X84902438Y-53985714D01*
X84902438Y-53985714D02*
X84950057Y-53938095D01*
X84950057Y-53938095D02*
X85045295Y-53890476D01*
X85045295Y-53890476D02*
X85140533Y-53890476D01*
X85140533Y-53890476D02*
X85283390Y-53938095D01*
X85283390Y-53938095D02*
X85854819Y-54509523D01*
X85854819Y-54509523D02*
X85854819Y-53890476D01*
X84854819Y-53557142D02*
X84854819Y-52890476D01*
X84854819Y-52890476D02*
X85854819Y-53319047D01*
X97557142Y-43359580D02*
X97509523Y-43407200D01*
X97509523Y-43407200D02*
X97366666Y-43454819D01*
X97366666Y-43454819D02*
X97271428Y-43454819D01*
X97271428Y-43454819D02*
X97128571Y-43407200D01*
X97128571Y-43407200D02*
X97033333Y-43311961D01*
X97033333Y-43311961D02*
X96985714Y-43216723D01*
X96985714Y-43216723D02*
X96938095Y-43026247D01*
X96938095Y-43026247D02*
X96938095Y-42883390D01*
X96938095Y-42883390D02*
X96985714Y-42692914D01*
X96985714Y-42692914D02*
X97033333Y-42597676D01*
X97033333Y-42597676D02*
X97128571Y-42502438D01*
X97128571Y-42502438D02*
X97271428Y-42454819D01*
X97271428Y-42454819D02*
X97366666Y-42454819D01*
X97366666Y-42454819D02*
X97509523Y-42502438D01*
X97509523Y-42502438D02*
X97557142Y-42550057D01*
X98509523Y-43454819D02*
X97938095Y-43454819D01*
X98223809Y-43454819D02*
X98223809Y-42454819D01*
X98223809Y-42454819D02*
X98128571Y-42597676D01*
X98128571Y-42597676D02*
X98033333Y-42692914D01*
X98033333Y-42692914D02*
X97938095Y-42740533D01*
X98842857Y-42454819D02*
X99461904Y-42454819D01*
X99461904Y-42454819D02*
X99128571Y-42835771D01*
X99128571Y-42835771D02*
X99271428Y-42835771D01*
X99271428Y-42835771D02*
X99366666Y-42883390D01*
X99366666Y-42883390D02*
X99414285Y-42931009D01*
X99414285Y-42931009D02*
X99461904Y-43026247D01*
X99461904Y-43026247D02*
X99461904Y-43264342D01*
X99461904Y-43264342D02*
X99414285Y-43359580D01*
X99414285Y-43359580D02*
X99366666Y-43407200D01*
X99366666Y-43407200D02*
X99271428Y-43454819D01*
X99271428Y-43454819D02*
X98985714Y-43454819D01*
X98985714Y-43454819D02*
X98890476Y-43407200D01*
X98890476Y-43407200D02*
X98842857Y-43359580D01*
X80908333Y-66349819D02*
X80432143Y-66349819D01*
X80432143Y-66349819D02*
X80432143Y-65349819D01*
X81146429Y-65349819D02*
X81765476Y-65349819D01*
X81765476Y-65349819D02*
X81432143Y-65730771D01*
X81432143Y-65730771D02*
X81575000Y-65730771D01*
X81575000Y-65730771D02*
X81670238Y-65778390D01*
X81670238Y-65778390D02*
X81717857Y-65826009D01*
X81717857Y-65826009D02*
X81765476Y-65921247D01*
X81765476Y-65921247D02*
X81765476Y-66159342D01*
X81765476Y-66159342D02*
X81717857Y-66254580D01*
X81717857Y-66254580D02*
X81670238Y-66302200D01*
X81670238Y-66302200D02*
X81575000Y-66349819D01*
X81575000Y-66349819D02*
X81289286Y-66349819D01*
X81289286Y-66349819D02*
X81194048Y-66302200D01*
X81194048Y-66302200D02*
X81146429Y-66254580D01*
X69740476Y-31804819D02*
X69740476Y-32519104D01*
X69740476Y-32519104D02*
X69692857Y-32661961D01*
X69692857Y-32661961D02*
X69597619Y-32757200D01*
X69597619Y-32757200D02*
X69454762Y-32804819D01*
X69454762Y-32804819D02*
X69359524Y-32804819D01*
X70740476Y-32804819D02*
X70169048Y-32804819D01*
X70454762Y-32804819D02*
X70454762Y-31804819D01*
X70454762Y-31804819D02*
X70359524Y-31947676D01*
X70359524Y-31947676D02*
X70264286Y-32042914D01*
X70264286Y-32042914D02*
X70169048Y-32090533D01*
X71073810Y-31804819D02*
X71692857Y-31804819D01*
X71692857Y-31804819D02*
X71359524Y-32185771D01*
X71359524Y-32185771D02*
X71502381Y-32185771D01*
X71502381Y-32185771D02*
X71597619Y-32233390D01*
X71597619Y-32233390D02*
X71645238Y-32281009D01*
X71645238Y-32281009D02*
X71692857Y-32376247D01*
X71692857Y-32376247D02*
X71692857Y-32614342D01*
X71692857Y-32614342D02*
X71645238Y-32709580D01*
X71645238Y-32709580D02*
X71597619Y-32757200D01*
X71597619Y-32757200D02*
X71502381Y-32804819D01*
X71502381Y-32804819D02*
X71216667Y-32804819D01*
X71216667Y-32804819D02*
X71121429Y-32757200D01*
X71121429Y-32757200D02*
X71073810Y-32709580D01*
X86038095Y-41554819D02*
X86038095Y-42364342D01*
X86038095Y-42364342D02*
X86085714Y-42459580D01*
X86085714Y-42459580D02*
X86133333Y-42507200D01*
X86133333Y-42507200D02*
X86228571Y-42554819D01*
X86228571Y-42554819D02*
X86419047Y-42554819D01*
X86419047Y-42554819D02*
X86514285Y-42507200D01*
X86514285Y-42507200D02*
X86561904Y-42459580D01*
X86561904Y-42459580D02*
X86609523Y-42364342D01*
X86609523Y-42364342D02*
X86609523Y-41554819D01*
X87514285Y-41554819D02*
X87323809Y-41554819D01*
X87323809Y-41554819D02*
X87228571Y-41602438D01*
X87228571Y-41602438D02*
X87180952Y-41650057D01*
X87180952Y-41650057D02*
X87085714Y-41792914D01*
X87085714Y-41792914D02*
X87038095Y-41983390D01*
X87038095Y-41983390D02*
X87038095Y-42364342D01*
X87038095Y-42364342D02*
X87085714Y-42459580D01*
X87085714Y-42459580D02*
X87133333Y-42507200D01*
X87133333Y-42507200D02*
X87228571Y-42554819D01*
X87228571Y-42554819D02*
X87419047Y-42554819D01*
X87419047Y-42554819D02*
X87514285Y-42507200D01*
X87514285Y-42507200D02*
X87561904Y-42459580D01*
X87561904Y-42459580D02*
X87609523Y-42364342D01*
X87609523Y-42364342D02*
X87609523Y-42126247D01*
X87609523Y-42126247D02*
X87561904Y-42031009D01*
X87561904Y-42031009D02*
X87514285Y-41983390D01*
X87514285Y-41983390D02*
X87419047Y-41935771D01*
X87419047Y-41935771D02*
X87228571Y-41935771D01*
X87228571Y-41935771D02*
X87133333Y-41983390D01*
X87133333Y-41983390D02*
X87085714Y-42031009D01*
X87085714Y-42031009D02*
X87038095Y-42126247D01*
X116857142Y-59404819D02*
X116523809Y-58928628D01*
X116285714Y-59404819D02*
X116285714Y-58404819D01*
X116285714Y-58404819D02*
X116666666Y-58404819D01*
X116666666Y-58404819D02*
X116761904Y-58452438D01*
X116761904Y-58452438D02*
X116809523Y-58500057D01*
X116809523Y-58500057D02*
X116857142Y-58595295D01*
X116857142Y-58595295D02*
X116857142Y-58738152D01*
X116857142Y-58738152D02*
X116809523Y-58833390D01*
X116809523Y-58833390D02*
X116761904Y-58881009D01*
X116761904Y-58881009D02*
X116666666Y-58928628D01*
X116666666Y-58928628D02*
X116285714Y-58928628D01*
X117809523Y-59404819D02*
X117238095Y-59404819D01*
X117523809Y-59404819D02*
X117523809Y-58404819D01*
X117523809Y-58404819D02*
X117428571Y-58547676D01*
X117428571Y-58547676D02*
X117333333Y-58642914D01*
X117333333Y-58642914D02*
X117238095Y-58690533D01*
X118761904Y-59404819D02*
X118190476Y-59404819D01*
X118476190Y-59404819D02*
X118476190Y-58404819D01*
X118476190Y-58404819D02*
X118380952Y-58547676D01*
X118380952Y-58547676D02*
X118285714Y-58642914D01*
X118285714Y-58642914D02*
X118190476Y-58690533D01*
X98188095Y-47454819D02*
X98188095Y-48169104D01*
X98188095Y-48169104D02*
X98140476Y-48311961D01*
X98140476Y-48311961D02*
X98045238Y-48407200D01*
X98045238Y-48407200D02*
X97902381Y-48454819D01*
X97902381Y-48454819D02*
X97807143Y-48454819D01*
X99045238Y-48407200D02*
X98950000Y-48454819D01*
X98950000Y-48454819D02*
X98759524Y-48454819D01*
X98759524Y-48454819D02*
X98664286Y-48407200D01*
X98664286Y-48407200D02*
X98616667Y-48311961D01*
X98616667Y-48311961D02*
X98616667Y-47931009D01*
X98616667Y-47931009D02*
X98664286Y-47835771D01*
X98664286Y-47835771D02*
X98759524Y-47788152D01*
X98759524Y-47788152D02*
X98950000Y-47788152D01*
X98950000Y-47788152D02*
X99045238Y-47835771D01*
X99045238Y-47835771D02*
X99092857Y-47931009D01*
X99092857Y-47931009D02*
X99092857Y-48026247D01*
X99092857Y-48026247D02*
X98616667Y-48121485D01*
X100045238Y-48454819D02*
X99473810Y-48454819D01*
X99759524Y-48454819D02*
X99759524Y-47454819D01*
X99759524Y-47454819D02*
X99664286Y-47597676D01*
X99664286Y-47597676D02*
X99569048Y-47692914D01*
X99569048Y-47692914D02*
X99473810Y-47740533D01*
X77963095Y-76049819D02*
X77963095Y-76859342D01*
X77963095Y-76859342D02*
X78010714Y-76954580D01*
X78010714Y-76954580D02*
X78058333Y-77002200D01*
X78058333Y-77002200D02*
X78153571Y-77049819D01*
X78153571Y-77049819D02*
X78344047Y-77049819D01*
X78344047Y-77049819D02*
X78439285Y-77002200D01*
X78439285Y-77002200D02*
X78486904Y-76954580D01*
X78486904Y-76954580D02*
X78534523Y-76859342D01*
X78534523Y-76859342D02*
X78534523Y-76049819D01*
X79058333Y-77049819D02*
X79248809Y-77049819D01*
X79248809Y-77049819D02*
X79344047Y-77002200D01*
X79344047Y-77002200D02*
X79391666Y-76954580D01*
X79391666Y-76954580D02*
X79486904Y-76811723D01*
X79486904Y-76811723D02*
X79534523Y-76621247D01*
X79534523Y-76621247D02*
X79534523Y-76240295D01*
X79534523Y-76240295D02*
X79486904Y-76145057D01*
X79486904Y-76145057D02*
X79439285Y-76097438D01*
X79439285Y-76097438D02*
X79344047Y-76049819D01*
X79344047Y-76049819D02*
X79153571Y-76049819D01*
X79153571Y-76049819D02*
X79058333Y-76097438D01*
X79058333Y-76097438D02*
X79010714Y-76145057D01*
X79010714Y-76145057D02*
X78963095Y-76240295D01*
X78963095Y-76240295D02*
X78963095Y-76478390D01*
X78963095Y-76478390D02*
X79010714Y-76573628D01*
X79010714Y-76573628D02*
X79058333Y-76621247D01*
X79058333Y-76621247D02*
X79153571Y-76668866D01*
X79153571Y-76668866D02*
X79344047Y-76668866D01*
X79344047Y-76668866D02*
X79439285Y-76621247D01*
X79439285Y-76621247D02*
X79486904Y-76573628D01*
X79486904Y-76573628D02*
X79534523Y-76478390D01*
X70579819Y-68937857D02*
X70103628Y-69271190D01*
X70579819Y-69509285D02*
X69579819Y-69509285D01*
X69579819Y-69509285D02*
X69579819Y-69128333D01*
X69579819Y-69128333D02*
X69627438Y-69033095D01*
X69627438Y-69033095D02*
X69675057Y-68985476D01*
X69675057Y-68985476D02*
X69770295Y-68937857D01*
X69770295Y-68937857D02*
X69913152Y-68937857D01*
X69913152Y-68937857D02*
X70008390Y-68985476D01*
X70008390Y-68985476D02*
X70056009Y-69033095D01*
X70056009Y-69033095D02*
X70103628Y-69128333D01*
X70103628Y-69128333D02*
X70103628Y-69509285D01*
X69579819Y-68604523D02*
X69579819Y-67985476D01*
X69579819Y-67985476D02*
X69960771Y-68318809D01*
X69960771Y-68318809D02*
X69960771Y-68175952D01*
X69960771Y-68175952D02*
X70008390Y-68080714D01*
X70008390Y-68080714D02*
X70056009Y-68033095D01*
X70056009Y-68033095D02*
X70151247Y-67985476D01*
X70151247Y-67985476D02*
X70389342Y-67985476D01*
X70389342Y-67985476D02*
X70484580Y-68033095D01*
X70484580Y-68033095D02*
X70532200Y-68080714D01*
X70532200Y-68080714D02*
X70579819Y-68175952D01*
X70579819Y-68175952D02*
X70579819Y-68461666D01*
X70579819Y-68461666D02*
X70532200Y-68556904D01*
X70532200Y-68556904D02*
X70484580Y-68604523D01*
X70579819Y-67509285D02*
X70579819Y-67318809D01*
X70579819Y-67318809D02*
X70532200Y-67223571D01*
X70532200Y-67223571D02*
X70484580Y-67175952D01*
X70484580Y-67175952D02*
X70341723Y-67080714D01*
X70341723Y-67080714D02*
X70151247Y-67033095D01*
X70151247Y-67033095D02*
X69770295Y-67033095D01*
X69770295Y-67033095D02*
X69675057Y-67080714D01*
X69675057Y-67080714D02*
X69627438Y-67128333D01*
X69627438Y-67128333D02*
X69579819Y-67223571D01*
X69579819Y-67223571D02*
X69579819Y-67414047D01*
X69579819Y-67414047D02*
X69627438Y-67509285D01*
X69627438Y-67509285D02*
X69675057Y-67556904D01*
X69675057Y-67556904D02*
X69770295Y-67604523D01*
X69770295Y-67604523D02*
X70008390Y-67604523D01*
X70008390Y-67604523D02*
X70103628Y-67556904D01*
X70103628Y-67556904D02*
X70151247Y-67509285D01*
X70151247Y-67509285D02*
X70198866Y-67414047D01*
X70198866Y-67414047D02*
X70198866Y-67223571D01*
X70198866Y-67223571D02*
X70151247Y-67128333D01*
X70151247Y-67128333D02*
X70103628Y-67080714D01*
X70103628Y-67080714D02*
X70008390Y-67033095D01*
X94754819Y-60238094D02*
X93754819Y-60238094D01*
X93754819Y-60238094D02*
X93754819Y-59999999D01*
X93754819Y-59999999D02*
X93802438Y-59857142D01*
X93802438Y-59857142D02*
X93897676Y-59761904D01*
X93897676Y-59761904D02*
X93992914Y-59714285D01*
X93992914Y-59714285D02*
X94183390Y-59666666D01*
X94183390Y-59666666D02*
X94326247Y-59666666D01*
X94326247Y-59666666D02*
X94516723Y-59714285D01*
X94516723Y-59714285D02*
X94611961Y-59761904D01*
X94611961Y-59761904D02*
X94707200Y-59857142D01*
X94707200Y-59857142D02*
X94754819Y-59999999D01*
X94754819Y-59999999D02*
X94754819Y-60238094D01*
X93850057Y-59285713D02*
X93802438Y-59238094D01*
X93802438Y-59238094D02*
X93754819Y-59142856D01*
X93754819Y-59142856D02*
X93754819Y-58904761D01*
X93754819Y-58904761D02*
X93802438Y-58809523D01*
X93802438Y-58809523D02*
X93850057Y-58761904D01*
X93850057Y-58761904D02*
X93945295Y-58714285D01*
X93945295Y-58714285D02*
X94040533Y-58714285D01*
X94040533Y-58714285D02*
X94183390Y-58761904D01*
X94183390Y-58761904D02*
X94754819Y-59333332D01*
X94754819Y-59333332D02*
X94754819Y-58714285D01*
X87638095Y-53684819D02*
X87638095Y-54494342D01*
X87638095Y-54494342D02*
X87685714Y-54589580D01*
X87685714Y-54589580D02*
X87733333Y-54637200D01*
X87733333Y-54637200D02*
X87828571Y-54684819D01*
X87828571Y-54684819D02*
X88019047Y-54684819D01*
X88019047Y-54684819D02*
X88114285Y-54637200D01*
X88114285Y-54637200D02*
X88161904Y-54589580D01*
X88161904Y-54589580D02*
X88209523Y-54494342D01*
X88209523Y-54494342D02*
X88209523Y-53684819D01*
X88590476Y-53684819D02*
X89257142Y-53684819D01*
X89257142Y-53684819D02*
X88828571Y-54684819D01*
X80454819Y-34642857D02*
X79978628Y-34976190D01*
X80454819Y-35214285D02*
X79454819Y-35214285D01*
X79454819Y-35214285D02*
X79454819Y-34833333D01*
X79454819Y-34833333D02*
X79502438Y-34738095D01*
X79502438Y-34738095D02*
X79550057Y-34690476D01*
X79550057Y-34690476D02*
X79645295Y-34642857D01*
X79645295Y-34642857D02*
X79788152Y-34642857D01*
X79788152Y-34642857D02*
X79883390Y-34690476D01*
X79883390Y-34690476D02*
X79931009Y-34738095D01*
X79931009Y-34738095D02*
X79978628Y-34833333D01*
X79978628Y-34833333D02*
X79978628Y-35214285D01*
X79550057Y-34261904D02*
X79502438Y-34214285D01*
X79502438Y-34214285D02*
X79454819Y-34119047D01*
X79454819Y-34119047D02*
X79454819Y-33880952D01*
X79454819Y-33880952D02*
X79502438Y-33785714D01*
X79502438Y-33785714D02*
X79550057Y-33738095D01*
X79550057Y-33738095D02*
X79645295Y-33690476D01*
X79645295Y-33690476D02*
X79740533Y-33690476D01*
X79740533Y-33690476D02*
X79883390Y-33738095D01*
X79883390Y-33738095D02*
X80454819Y-34309523D01*
X80454819Y-34309523D02*
X80454819Y-33690476D01*
X79550057Y-33309523D02*
X79502438Y-33261904D01*
X79502438Y-33261904D02*
X79454819Y-33166666D01*
X79454819Y-33166666D02*
X79454819Y-32928571D01*
X79454819Y-32928571D02*
X79502438Y-32833333D01*
X79502438Y-32833333D02*
X79550057Y-32785714D01*
X79550057Y-32785714D02*
X79645295Y-32738095D01*
X79645295Y-32738095D02*
X79740533Y-32738095D01*
X79740533Y-32738095D02*
X79883390Y-32785714D01*
X79883390Y-32785714D02*
X80454819Y-33357142D01*
X80454819Y-33357142D02*
X80454819Y-32738095D01*
X116238095Y-43704819D02*
X116238095Y-44514342D01*
X116238095Y-44514342D02*
X116285714Y-44609580D01*
X116285714Y-44609580D02*
X116333333Y-44657200D01*
X116333333Y-44657200D02*
X116428571Y-44704819D01*
X116428571Y-44704819D02*
X116619047Y-44704819D01*
X116619047Y-44704819D02*
X116714285Y-44657200D01*
X116714285Y-44657200D02*
X116761904Y-44609580D01*
X116761904Y-44609580D02*
X116809523Y-44514342D01*
X116809523Y-44514342D02*
X116809523Y-43704819D01*
X117714285Y-44038152D02*
X117714285Y-44704819D01*
X117476190Y-43657200D02*
X117238095Y-44371485D01*
X117238095Y-44371485D02*
X117857142Y-44371485D01*
X78657142Y-41059580D02*
X78609523Y-41107200D01*
X78609523Y-41107200D02*
X78466666Y-41154819D01*
X78466666Y-41154819D02*
X78371428Y-41154819D01*
X78371428Y-41154819D02*
X78228571Y-41107200D01*
X78228571Y-41107200D02*
X78133333Y-41011961D01*
X78133333Y-41011961D02*
X78085714Y-40916723D01*
X78085714Y-40916723D02*
X78038095Y-40726247D01*
X78038095Y-40726247D02*
X78038095Y-40583390D01*
X78038095Y-40583390D02*
X78085714Y-40392914D01*
X78085714Y-40392914D02*
X78133333Y-40297676D01*
X78133333Y-40297676D02*
X78228571Y-40202438D01*
X78228571Y-40202438D02*
X78371428Y-40154819D01*
X78371428Y-40154819D02*
X78466666Y-40154819D01*
X78466666Y-40154819D02*
X78609523Y-40202438D01*
X78609523Y-40202438D02*
X78657142Y-40250057D01*
X79609523Y-41154819D02*
X79038095Y-41154819D01*
X79323809Y-41154819D02*
X79323809Y-40154819D01*
X79323809Y-40154819D02*
X79228571Y-40297676D01*
X79228571Y-40297676D02*
X79133333Y-40392914D01*
X79133333Y-40392914D02*
X79038095Y-40440533D01*
X80514285Y-40154819D02*
X80038095Y-40154819D01*
X80038095Y-40154819D02*
X79990476Y-40631009D01*
X79990476Y-40631009D02*
X80038095Y-40583390D01*
X80038095Y-40583390D02*
X80133333Y-40535771D01*
X80133333Y-40535771D02*
X80371428Y-40535771D01*
X80371428Y-40535771D02*
X80466666Y-40583390D01*
X80466666Y-40583390D02*
X80514285Y-40631009D01*
X80514285Y-40631009D02*
X80561904Y-40726247D01*
X80561904Y-40726247D02*
X80561904Y-40964342D01*
X80561904Y-40964342D02*
X80514285Y-41059580D01*
X80514285Y-41059580D02*
X80466666Y-41107200D01*
X80466666Y-41107200D02*
X80371428Y-41154819D01*
X80371428Y-41154819D02*
X80133333Y-41154819D01*
X80133333Y-41154819D02*
X80038095Y-41107200D01*
X80038095Y-41107200D02*
X79990476Y-41059580D01*
X82454819Y-54842857D02*
X81978628Y-55176190D01*
X82454819Y-55414285D02*
X81454819Y-55414285D01*
X81454819Y-55414285D02*
X81454819Y-55033333D01*
X81454819Y-55033333D02*
X81502438Y-54938095D01*
X81502438Y-54938095D02*
X81550057Y-54890476D01*
X81550057Y-54890476D02*
X81645295Y-54842857D01*
X81645295Y-54842857D02*
X81788152Y-54842857D01*
X81788152Y-54842857D02*
X81883390Y-54890476D01*
X81883390Y-54890476D02*
X81931009Y-54938095D01*
X81931009Y-54938095D02*
X81978628Y-55033333D01*
X81978628Y-55033333D02*
X81978628Y-55414285D01*
X81550057Y-54461904D02*
X81502438Y-54414285D01*
X81502438Y-54414285D02*
X81454819Y-54319047D01*
X81454819Y-54319047D02*
X81454819Y-54080952D01*
X81454819Y-54080952D02*
X81502438Y-53985714D01*
X81502438Y-53985714D02*
X81550057Y-53938095D01*
X81550057Y-53938095D02*
X81645295Y-53890476D01*
X81645295Y-53890476D02*
X81740533Y-53890476D01*
X81740533Y-53890476D02*
X81883390Y-53938095D01*
X81883390Y-53938095D02*
X82454819Y-54509523D01*
X82454819Y-54509523D02*
X82454819Y-53890476D01*
X82454819Y-53414285D02*
X82454819Y-53223809D01*
X82454819Y-53223809D02*
X82407200Y-53128571D01*
X82407200Y-53128571D02*
X82359580Y-53080952D01*
X82359580Y-53080952D02*
X82216723Y-52985714D01*
X82216723Y-52985714D02*
X82026247Y-52938095D01*
X82026247Y-52938095D02*
X81645295Y-52938095D01*
X81645295Y-52938095D02*
X81550057Y-52985714D01*
X81550057Y-52985714D02*
X81502438Y-53033333D01*
X81502438Y-53033333D02*
X81454819Y-53128571D01*
X81454819Y-53128571D02*
X81454819Y-53319047D01*
X81454819Y-53319047D02*
X81502438Y-53414285D01*
X81502438Y-53414285D02*
X81550057Y-53461904D01*
X81550057Y-53461904D02*
X81645295Y-53509523D01*
X81645295Y-53509523D02*
X81883390Y-53509523D01*
X81883390Y-53509523D02*
X81978628Y-53461904D01*
X81978628Y-53461904D02*
X82026247Y-53414285D01*
X82026247Y-53414285D02*
X82073866Y-53319047D01*
X82073866Y-53319047D02*
X82073866Y-53128571D01*
X82073866Y-53128571D02*
X82026247Y-53033333D01*
X82026247Y-53033333D02*
X81978628Y-52985714D01*
X81978628Y-52985714D02*
X81883390Y-52938095D01*
X108954819Y-66492857D02*
X108478628Y-66826190D01*
X108954819Y-67064285D02*
X107954819Y-67064285D01*
X107954819Y-67064285D02*
X107954819Y-66683333D01*
X107954819Y-66683333D02*
X108002438Y-66588095D01*
X108002438Y-66588095D02*
X108050057Y-66540476D01*
X108050057Y-66540476D02*
X108145295Y-66492857D01*
X108145295Y-66492857D02*
X108288152Y-66492857D01*
X108288152Y-66492857D02*
X108383390Y-66540476D01*
X108383390Y-66540476D02*
X108431009Y-66588095D01*
X108431009Y-66588095D02*
X108478628Y-66683333D01*
X108478628Y-66683333D02*
X108478628Y-67064285D01*
X108954819Y-65540476D02*
X108954819Y-66111904D01*
X108954819Y-65826190D02*
X107954819Y-65826190D01*
X107954819Y-65826190D02*
X108097676Y-65921428D01*
X108097676Y-65921428D02*
X108192914Y-66016666D01*
X108192914Y-66016666D02*
X108240533Y-66111904D01*
X107954819Y-65207142D02*
X107954819Y-64588095D01*
X107954819Y-64588095D02*
X108335771Y-64921428D01*
X108335771Y-64921428D02*
X108335771Y-64778571D01*
X108335771Y-64778571D02*
X108383390Y-64683333D01*
X108383390Y-64683333D02*
X108431009Y-64635714D01*
X108431009Y-64635714D02*
X108526247Y-64588095D01*
X108526247Y-64588095D02*
X108764342Y-64588095D01*
X108764342Y-64588095D02*
X108859580Y-64635714D01*
X108859580Y-64635714D02*
X108907200Y-64683333D01*
X108907200Y-64683333D02*
X108954819Y-64778571D01*
X108954819Y-64778571D02*
X108954819Y-65064285D01*
X108954819Y-65064285D02*
X108907200Y-65159523D01*
X108907200Y-65159523D02*
X108859580Y-65207142D01*
X95183333Y-44654819D02*
X94707143Y-44654819D01*
X94707143Y-44654819D02*
X94707143Y-43654819D01*
X96040476Y-44654819D02*
X95469048Y-44654819D01*
X95754762Y-44654819D02*
X95754762Y-43654819D01*
X95754762Y-43654819D02*
X95659524Y-43797676D01*
X95659524Y-43797676D02*
X95564286Y-43892914D01*
X95564286Y-43892914D02*
X95469048Y-43940533D01*
X41990476Y-61454819D02*
X41990476Y-62169104D01*
X41990476Y-62169104D02*
X41942857Y-62311961D01*
X41942857Y-62311961D02*
X41847619Y-62407200D01*
X41847619Y-62407200D02*
X41704762Y-62454819D01*
X41704762Y-62454819D02*
X41609524Y-62454819D01*
X42990476Y-62454819D02*
X42419048Y-62454819D01*
X42704762Y-62454819D02*
X42704762Y-61454819D01*
X42704762Y-61454819D02*
X42609524Y-61597676D01*
X42609524Y-61597676D02*
X42514286Y-61692914D01*
X42514286Y-61692914D02*
X42419048Y-61740533D01*
X43847619Y-61454819D02*
X43657143Y-61454819D01*
X43657143Y-61454819D02*
X43561905Y-61502438D01*
X43561905Y-61502438D02*
X43514286Y-61550057D01*
X43514286Y-61550057D02*
X43419048Y-61692914D01*
X43419048Y-61692914D02*
X43371429Y-61883390D01*
X43371429Y-61883390D02*
X43371429Y-62264342D01*
X43371429Y-62264342D02*
X43419048Y-62359580D01*
X43419048Y-62359580D02*
X43466667Y-62407200D01*
X43466667Y-62407200D02*
X43561905Y-62454819D01*
X43561905Y-62454819D02*
X43752381Y-62454819D01*
X43752381Y-62454819D02*
X43847619Y-62407200D01*
X43847619Y-62407200D02*
X43895238Y-62359580D01*
X43895238Y-62359580D02*
X43942857Y-62264342D01*
X43942857Y-62264342D02*
X43942857Y-62026247D01*
X43942857Y-62026247D02*
X43895238Y-61931009D01*
X43895238Y-61931009D02*
X43847619Y-61883390D01*
X43847619Y-61883390D02*
X43752381Y-61835771D01*
X43752381Y-61835771D02*
X43561905Y-61835771D01*
X43561905Y-61835771D02*
X43466667Y-61883390D01*
X43466667Y-61883390D02*
X43419048Y-61931009D01*
X43419048Y-61931009D02*
X43371429Y-62026247D01*
X105938095Y-66204819D02*
X105938095Y-67014342D01*
X105938095Y-67014342D02*
X105985714Y-67109580D01*
X105985714Y-67109580D02*
X106033333Y-67157200D01*
X106033333Y-67157200D02*
X106128571Y-67204819D01*
X106128571Y-67204819D02*
X106319047Y-67204819D01*
X106319047Y-67204819D02*
X106414285Y-67157200D01*
X106414285Y-67157200D02*
X106461904Y-67109580D01*
X106461904Y-67109580D02*
X106509523Y-67014342D01*
X106509523Y-67014342D02*
X106509523Y-66204819D01*
X107461904Y-66204819D02*
X106985714Y-66204819D01*
X106985714Y-66204819D02*
X106938095Y-66681009D01*
X106938095Y-66681009D02*
X106985714Y-66633390D01*
X106985714Y-66633390D02*
X107080952Y-66585771D01*
X107080952Y-66585771D02*
X107319047Y-66585771D01*
X107319047Y-66585771D02*
X107414285Y-66633390D01*
X107414285Y-66633390D02*
X107461904Y-66681009D01*
X107461904Y-66681009D02*
X107509523Y-66776247D01*
X107509523Y-66776247D02*
X107509523Y-67014342D01*
X107509523Y-67014342D02*
X107461904Y-67109580D01*
X107461904Y-67109580D02*
X107414285Y-67157200D01*
X107414285Y-67157200D02*
X107319047Y-67204819D01*
X107319047Y-67204819D02*
X107080952Y-67204819D01*
X107080952Y-67204819D02*
X106985714Y-67157200D01*
X106985714Y-67157200D02*
X106938095Y-67109580D01*
X82354819Y-46172857D02*
X81878628Y-46506190D01*
X82354819Y-46744285D02*
X81354819Y-46744285D01*
X81354819Y-46744285D02*
X81354819Y-46363333D01*
X81354819Y-46363333D02*
X81402438Y-46268095D01*
X81402438Y-46268095D02*
X81450057Y-46220476D01*
X81450057Y-46220476D02*
X81545295Y-46172857D01*
X81545295Y-46172857D02*
X81688152Y-46172857D01*
X81688152Y-46172857D02*
X81783390Y-46220476D01*
X81783390Y-46220476D02*
X81831009Y-46268095D01*
X81831009Y-46268095D02*
X81878628Y-46363333D01*
X81878628Y-46363333D02*
X81878628Y-46744285D01*
X82354819Y-45220476D02*
X82354819Y-45791904D01*
X82354819Y-45506190D02*
X81354819Y-45506190D01*
X81354819Y-45506190D02*
X81497676Y-45601428D01*
X81497676Y-45601428D02*
X81592914Y-45696666D01*
X81592914Y-45696666D02*
X81640533Y-45791904D01*
X81783390Y-44649047D02*
X81735771Y-44744285D01*
X81735771Y-44744285D02*
X81688152Y-44791904D01*
X81688152Y-44791904D02*
X81592914Y-44839523D01*
X81592914Y-44839523D02*
X81545295Y-44839523D01*
X81545295Y-44839523D02*
X81450057Y-44791904D01*
X81450057Y-44791904D02*
X81402438Y-44744285D01*
X81402438Y-44744285D02*
X81354819Y-44649047D01*
X81354819Y-44649047D02*
X81354819Y-44458571D01*
X81354819Y-44458571D02*
X81402438Y-44363333D01*
X81402438Y-44363333D02*
X81450057Y-44315714D01*
X81450057Y-44315714D02*
X81545295Y-44268095D01*
X81545295Y-44268095D02*
X81592914Y-44268095D01*
X81592914Y-44268095D02*
X81688152Y-44315714D01*
X81688152Y-44315714D02*
X81735771Y-44363333D01*
X81735771Y-44363333D02*
X81783390Y-44458571D01*
X81783390Y-44458571D02*
X81783390Y-44649047D01*
X81783390Y-44649047D02*
X81831009Y-44744285D01*
X81831009Y-44744285D02*
X81878628Y-44791904D01*
X81878628Y-44791904D02*
X81973866Y-44839523D01*
X81973866Y-44839523D02*
X82164342Y-44839523D01*
X82164342Y-44839523D02*
X82259580Y-44791904D01*
X82259580Y-44791904D02*
X82307200Y-44744285D01*
X82307200Y-44744285D02*
X82354819Y-44649047D01*
X82354819Y-44649047D02*
X82354819Y-44458571D01*
X82354819Y-44458571D02*
X82307200Y-44363333D01*
X82307200Y-44363333D02*
X82259580Y-44315714D01*
X82259580Y-44315714D02*
X82164342Y-44268095D01*
X82164342Y-44268095D02*
X81973866Y-44268095D01*
X81973866Y-44268095D02*
X81878628Y-44315714D01*
X81878628Y-44315714D02*
X81831009Y-44363333D01*
X81831009Y-44363333D02*
X81783390Y-44458571D01*
X106083333Y-39109580D02*
X106035714Y-39157200D01*
X106035714Y-39157200D02*
X105892857Y-39204819D01*
X105892857Y-39204819D02*
X105797619Y-39204819D01*
X105797619Y-39204819D02*
X105654762Y-39157200D01*
X105654762Y-39157200D02*
X105559524Y-39061961D01*
X105559524Y-39061961D02*
X105511905Y-38966723D01*
X105511905Y-38966723D02*
X105464286Y-38776247D01*
X105464286Y-38776247D02*
X105464286Y-38633390D01*
X105464286Y-38633390D02*
X105511905Y-38442914D01*
X105511905Y-38442914D02*
X105559524Y-38347676D01*
X105559524Y-38347676D02*
X105654762Y-38252438D01*
X105654762Y-38252438D02*
X105797619Y-38204819D01*
X105797619Y-38204819D02*
X105892857Y-38204819D01*
X105892857Y-38204819D02*
X106035714Y-38252438D01*
X106035714Y-38252438D02*
X106083333Y-38300057D01*
X106654762Y-38633390D02*
X106559524Y-38585771D01*
X106559524Y-38585771D02*
X106511905Y-38538152D01*
X106511905Y-38538152D02*
X106464286Y-38442914D01*
X106464286Y-38442914D02*
X106464286Y-38395295D01*
X106464286Y-38395295D02*
X106511905Y-38300057D01*
X106511905Y-38300057D02*
X106559524Y-38252438D01*
X106559524Y-38252438D02*
X106654762Y-38204819D01*
X106654762Y-38204819D02*
X106845238Y-38204819D01*
X106845238Y-38204819D02*
X106940476Y-38252438D01*
X106940476Y-38252438D02*
X106988095Y-38300057D01*
X106988095Y-38300057D02*
X107035714Y-38395295D01*
X107035714Y-38395295D02*
X107035714Y-38442914D01*
X107035714Y-38442914D02*
X106988095Y-38538152D01*
X106988095Y-38538152D02*
X106940476Y-38585771D01*
X106940476Y-38585771D02*
X106845238Y-38633390D01*
X106845238Y-38633390D02*
X106654762Y-38633390D01*
X106654762Y-38633390D02*
X106559524Y-38681009D01*
X106559524Y-38681009D02*
X106511905Y-38728628D01*
X106511905Y-38728628D02*
X106464286Y-38823866D01*
X106464286Y-38823866D02*
X106464286Y-39014342D01*
X106464286Y-39014342D02*
X106511905Y-39109580D01*
X106511905Y-39109580D02*
X106559524Y-39157200D01*
X106559524Y-39157200D02*
X106654762Y-39204819D01*
X106654762Y-39204819D02*
X106845238Y-39204819D01*
X106845238Y-39204819D02*
X106940476Y-39157200D01*
X106940476Y-39157200D02*
X106988095Y-39109580D01*
X106988095Y-39109580D02*
X107035714Y-39014342D01*
X107035714Y-39014342D02*
X107035714Y-38823866D01*
X107035714Y-38823866D02*
X106988095Y-38728628D01*
X106988095Y-38728628D02*
X106940476Y-38681009D01*
X106940476Y-38681009D02*
X106845238Y-38633390D01*
X81758333Y-77254819D02*
X81282143Y-77254819D01*
X81282143Y-77254819D02*
X81282143Y-76254819D01*
X82520238Y-76588152D02*
X82520238Y-77254819D01*
X82282143Y-76207200D02*
X82044048Y-76921485D01*
X82044048Y-76921485D02*
X82663095Y-76921485D01*
X83054819Y-34642857D02*
X82578628Y-34976190D01*
X83054819Y-35214285D02*
X82054819Y-35214285D01*
X82054819Y-35214285D02*
X82054819Y-34833333D01*
X82054819Y-34833333D02*
X82102438Y-34738095D01*
X82102438Y-34738095D02*
X82150057Y-34690476D01*
X82150057Y-34690476D02*
X82245295Y-34642857D01*
X82245295Y-34642857D02*
X82388152Y-34642857D01*
X82388152Y-34642857D02*
X82483390Y-34690476D01*
X82483390Y-34690476D02*
X82531009Y-34738095D01*
X82531009Y-34738095D02*
X82578628Y-34833333D01*
X82578628Y-34833333D02*
X82578628Y-35214285D01*
X82150057Y-34261904D02*
X82102438Y-34214285D01*
X82102438Y-34214285D02*
X82054819Y-34119047D01*
X82054819Y-34119047D02*
X82054819Y-33880952D01*
X82054819Y-33880952D02*
X82102438Y-33785714D01*
X82102438Y-33785714D02*
X82150057Y-33738095D01*
X82150057Y-33738095D02*
X82245295Y-33690476D01*
X82245295Y-33690476D02*
X82340533Y-33690476D01*
X82340533Y-33690476D02*
X82483390Y-33738095D01*
X82483390Y-33738095D02*
X83054819Y-34309523D01*
X83054819Y-34309523D02*
X83054819Y-33690476D01*
X82054819Y-33071428D02*
X82054819Y-32976190D01*
X82054819Y-32976190D02*
X82102438Y-32880952D01*
X82102438Y-32880952D02*
X82150057Y-32833333D01*
X82150057Y-32833333D02*
X82245295Y-32785714D01*
X82245295Y-32785714D02*
X82435771Y-32738095D01*
X82435771Y-32738095D02*
X82673866Y-32738095D01*
X82673866Y-32738095D02*
X82864342Y-32785714D01*
X82864342Y-32785714D02*
X82959580Y-32833333D01*
X82959580Y-32833333D02*
X83007200Y-32880952D01*
X83007200Y-32880952D02*
X83054819Y-32976190D01*
X83054819Y-32976190D02*
X83054819Y-33071428D01*
X83054819Y-33071428D02*
X83007200Y-33166666D01*
X83007200Y-33166666D02*
X82959580Y-33214285D01*
X82959580Y-33214285D02*
X82864342Y-33261904D01*
X82864342Y-33261904D02*
X82673866Y-33309523D01*
X82673866Y-33309523D02*
X82435771Y-33309523D01*
X82435771Y-33309523D02*
X82245295Y-33261904D01*
X82245295Y-33261904D02*
X82150057Y-33214285D01*
X82150057Y-33214285D02*
X82102438Y-33166666D01*
X82102438Y-33166666D02*
X82054819Y-33071428D01*
X61090476Y-76389819D02*
X61090476Y-77104104D01*
X61090476Y-77104104D02*
X61042857Y-77246961D01*
X61042857Y-77246961D02*
X60947619Y-77342200D01*
X60947619Y-77342200D02*
X60804762Y-77389819D01*
X60804762Y-77389819D02*
X60709524Y-77389819D01*
X62090476Y-77389819D02*
X61519048Y-77389819D01*
X61804762Y-77389819D02*
X61804762Y-76389819D01*
X61804762Y-76389819D02*
X61709524Y-76532676D01*
X61709524Y-76532676D02*
X61614286Y-76627914D01*
X61614286Y-76627914D02*
X61519048Y-76675533D01*
X63042857Y-77389819D02*
X62471429Y-77389819D01*
X62757143Y-77389819D02*
X62757143Y-76389819D01*
X62757143Y-76389819D02*
X62661905Y-76532676D01*
X62661905Y-76532676D02*
X62566667Y-76627914D01*
X62566667Y-76627914D02*
X62471429Y-76675533D01*
X60554819Y-66967857D02*
X60078628Y-67301190D01*
X60554819Y-67539285D02*
X59554819Y-67539285D01*
X59554819Y-67539285D02*
X59554819Y-67158333D01*
X59554819Y-67158333D02*
X59602438Y-67063095D01*
X59602438Y-67063095D02*
X59650057Y-67015476D01*
X59650057Y-67015476D02*
X59745295Y-66967857D01*
X59745295Y-66967857D02*
X59888152Y-66967857D01*
X59888152Y-66967857D02*
X59983390Y-67015476D01*
X59983390Y-67015476D02*
X60031009Y-67063095D01*
X60031009Y-67063095D02*
X60078628Y-67158333D01*
X60078628Y-67158333D02*
X60078628Y-67539285D01*
X60554819Y-66015476D02*
X60554819Y-66586904D01*
X60554819Y-66301190D02*
X59554819Y-66301190D01*
X59554819Y-66301190D02*
X59697676Y-66396428D01*
X59697676Y-66396428D02*
X59792914Y-66491666D01*
X59792914Y-66491666D02*
X59840533Y-66586904D01*
X59554819Y-65682142D02*
X59554819Y-65015476D01*
X59554819Y-65015476D02*
X60554819Y-65444047D01*
X47640476Y-37504819D02*
X47640476Y-38219104D01*
X47640476Y-38219104D02*
X47592857Y-38361961D01*
X47592857Y-38361961D02*
X47497619Y-38457200D01*
X47497619Y-38457200D02*
X47354762Y-38504819D01*
X47354762Y-38504819D02*
X47259524Y-38504819D01*
X48640476Y-38504819D02*
X48069048Y-38504819D01*
X48354762Y-38504819D02*
X48354762Y-37504819D01*
X48354762Y-37504819D02*
X48259524Y-37647676D01*
X48259524Y-37647676D02*
X48164286Y-37742914D01*
X48164286Y-37742914D02*
X48069048Y-37790533D01*
X49259524Y-37504819D02*
X49354762Y-37504819D01*
X49354762Y-37504819D02*
X49450000Y-37552438D01*
X49450000Y-37552438D02*
X49497619Y-37600057D01*
X49497619Y-37600057D02*
X49545238Y-37695295D01*
X49545238Y-37695295D02*
X49592857Y-37885771D01*
X49592857Y-37885771D02*
X49592857Y-38123866D01*
X49592857Y-38123866D02*
X49545238Y-38314342D01*
X49545238Y-38314342D02*
X49497619Y-38409580D01*
X49497619Y-38409580D02*
X49450000Y-38457200D01*
X49450000Y-38457200D02*
X49354762Y-38504819D01*
X49354762Y-38504819D02*
X49259524Y-38504819D01*
X49259524Y-38504819D02*
X49164286Y-38457200D01*
X49164286Y-38457200D02*
X49116667Y-38409580D01*
X49116667Y-38409580D02*
X49069048Y-38314342D01*
X49069048Y-38314342D02*
X49021429Y-38123866D01*
X49021429Y-38123866D02*
X49021429Y-37885771D01*
X49021429Y-37885771D02*
X49069048Y-37695295D01*
X49069048Y-37695295D02*
X49116667Y-37600057D01*
X49116667Y-37600057D02*
X49164286Y-37552438D01*
X49164286Y-37552438D02*
X49259524Y-37504819D01*
X67326666Y-58754819D02*
X67326666Y-59469104D01*
X67326666Y-59469104D02*
X67279047Y-59611961D01*
X67279047Y-59611961D02*
X67183809Y-59707200D01*
X67183809Y-59707200D02*
X67040952Y-59754819D01*
X67040952Y-59754819D02*
X66945714Y-59754819D01*
X68231428Y-58754819D02*
X68040952Y-58754819D01*
X68040952Y-58754819D02*
X67945714Y-58802438D01*
X67945714Y-58802438D02*
X67898095Y-58850057D01*
X67898095Y-58850057D02*
X67802857Y-58992914D01*
X67802857Y-58992914D02*
X67755238Y-59183390D01*
X67755238Y-59183390D02*
X67755238Y-59564342D01*
X67755238Y-59564342D02*
X67802857Y-59659580D01*
X67802857Y-59659580D02*
X67850476Y-59707200D01*
X67850476Y-59707200D02*
X67945714Y-59754819D01*
X67945714Y-59754819D02*
X68136190Y-59754819D01*
X68136190Y-59754819D02*
X68231428Y-59707200D01*
X68231428Y-59707200D02*
X68279047Y-59659580D01*
X68279047Y-59659580D02*
X68326666Y-59564342D01*
X68326666Y-59564342D02*
X68326666Y-59326247D01*
X68326666Y-59326247D02*
X68279047Y-59231009D01*
X68279047Y-59231009D02*
X68231428Y-59183390D01*
X68231428Y-59183390D02*
X68136190Y-59135771D01*
X68136190Y-59135771D02*
X67945714Y-59135771D01*
X67945714Y-59135771D02*
X67850476Y-59183390D01*
X67850476Y-59183390D02*
X67802857Y-59231009D01*
X67802857Y-59231009D02*
X67755238Y-59326247D01*
X54007618Y-59954819D02*
X54007618Y-60669104D01*
X54007618Y-60669104D02*
X53959999Y-60811961D01*
X53959999Y-60811961D02*
X53864761Y-60907200D01*
X53864761Y-60907200D02*
X53721904Y-60954819D01*
X53721904Y-60954819D02*
X53626666Y-60954819D01*
X54626666Y-60954819D02*
X54531428Y-60907200D01*
X54531428Y-60907200D02*
X54483809Y-60859580D01*
X54483809Y-60859580D02*
X54436190Y-60764342D01*
X54436190Y-60764342D02*
X54436190Y-60478628D01*
X54436190Y-60478628D02*
X54483809Y-60383390D01*
X54483809Y-60383390D02*
X54531428Y-60335771D01*
X54531428Y-60335771D02*
X54626666Y-60288152D01*
X54626666Y-60288152D02*
X54769523Y-60288152D01*
X54769523Y-60288152D02*
X54864761Y-60335771D01*
X54864761Y-60335771D02*
X54912380Y-60383390D01*
X54912380Y-60383390D02*
X54959999Y-60478628D01*
X54959999Y-60478628D02*
X54959999Y-60764342D01*
X54959999Y-60764342D02*
X54912380Y-60859580D01*
X54912380Y-60859580D02*
X54864761Y-60907200D01*
X54864761Y-60907200D02*
X54769523Y-60954819D01*
X54769523Y-60954819D02*
X54626666Y-60954819D01*
X55293333Y-60288152D02*
X55531428Y-60954819D01*
X55769523Y-60288152D02*
X55531428Y-60954819D01*
X55531428Y-60954819D02*
X55436190Y-61192914D01*
X55436190Y-61192914D02*
X55388571Y-61240533D01*
X55388571Y-61240533D02*
X55293333Y-61288152D01*
X56102857Y-60907200D02*
X56198095Y-60954819D01*
X56198095Y-60954819D02*
X56388571Y-60954819D01*
X56388571Y-60954819D02*
X56483809Y-60907200D01*
X56483809Y-60907200D02*
X56531428Y-60811961D01*
X56531428Y-60811961D02*
X56531428Y-60764342D01*
X56531428Y-60764342D02*
X56483809Y-60669104D01*
X56483809Y-60669104D02*
X56388571Y-60621485D01*
X56388571Y-60621485D02*
X56245714Y-60621485D01*
X56245714Y-60621485D02*
X56150476Y-60573866D01*
X56150476Y-60573866D02*
X56102857Y-60478628D01*
X56102857Y-60478628D02*
X56102857Y-60431009D01*
X56102857Y-60431009D02*
X56150476Y-60335771D01*
X56150476Y-60335771D02*
X56245714Y-60288152D01*
X56245714Y-60288152D02*
X56388571Y-60288152D01*
X56388571Y-60288152D02*
X56483809Y-60335771D01*
X56817143Y-60288152D02*
X57198095Y-60288152D01*
X56960000Y-59954819D02*
X56960000Y-60811961D01*
X56960000Y-60811961D02*
X57007619Y-60907200D01*
X57007619Y-60907200D02*
X57102857Y-60954819D01*
X57102857Y-60954819D02*
X57198095Y-60954819D01*
X57531429Y-60954819D02*
X57531429Y-60288152D01*
X57531429Y-59954819D02*
X57483810Y-60002438D01*
X57483810Y-60002438D02*
X57531429Y-60050057D01*
X57531429Y-60050057D02*
X57579048Y-60002438D01*
X57579048Y-60002438D02*
X57531429Y-59954819D01*
X57531429Y-59954819D02*
X57531429Y-60050057D01*
X58436190Y-60907200D02*
X58340952Y-60954819D01*
X58340952Y-60954819D02*
X58150476Y-60954819D01*
X58150476Y-60954819D02*
X58055238Y-60907200D01*
X58055238Y-60907200D02*
X58007619Y-60859580D01*
X58007619Y-60859580D02*
X57960000Y-60764342D01*
X57960000Y-60764342D02*
X57960000Y-60478628D01*
X57960000Y-60478628D02*
X58007619Y-60383390D01*
X58007619Y-60383390D02*
X58055238Y-60335771D01*
X58055238Y-60335771D02*
X58150476Y-60288152D01*
X58150476Y-60288152D02*
X58340952Y-60288152D01*
X58340952Y-60288152D02*
X58436190Y-60335771D01*
X58864762Y-60954819D02*
X58864762Y-59954819D01*
X58960000Y-60573866D02*
X59245714Y-60954819D01*
X59245714Y-60288152D02*
X58864762Y-60669104D01*
X78054819Y-54842857D02*
X77578628Y-55176190D01*
X78054819Y-55414285D02*
X77054819Y-55414285D01*
X77054819Y-55414285D02*
X77054819Y-55033333D01*
X77054819Y-55033333D02*
X77102438Y-54938095D01*
X77102438Y-54938095D02*
X77150057Y-54890476D01*
X77150057Y-54890476D02*
X77245295Y-54842857D01*
X77245295Y-54842857D02*
X77388152Y-54842857D01*
X77388152Y-54842857D02*
X77483390Y-54890476D01*
X77483390Y-54890476D02*
X77531009Y-54938095D01*
X77531009Y-54938095D02*
X77578628Y-55033333D01*
X77578628Y-55033333D02*
X77578628Y-55414285D01*
X77054819Y-54509523D02*
X77054819Y-53890476D01*
X77054819Y-53890476D02*
X77435771Y-54223809D01*
X77435771Y-54223809D02*
X77435771Y-54080952D01*
X77435771Y-54080952D02*
X77483390Y-53985714D01*
X77483390Y-53985714D02*
X77531009Y-53938095D01*
X77531009Y-53938095D02*
X77626247Y-53890476D01*
X77626247Y-53890476D02*
X77864342Y-53890476D01*
X77864342Y-53890476D02*
X77959580Y-53938095D01*
X77959580Y-53938095D02*
X78007200Y-53985714D01*
X78007200Y-53985714D02*
X78054819Y-54080952D01*
X78054819Y-54080952D02*
X78054819Y-54366666D01*
X78054819Y-54366666D02*
X78007200Y-54461904D01*
X78007200Y-54461904D02*
X77959580Y-54509523D01*
X77483390Y-53319047D02*
X77435771Y-53414285D01*
X77435771Y-53414285D02*
X77388152Y-53461904D01*
X77388152Y-53461904D02*
X77292914Y-53509523D01*
X77292914Y-53509523D02*
X77245295Y-53509523D01*
X77245295Y-53509523D02*
X77150057Y-53461904D01*
X77150057Y-53461904D02*
X77102438Y-53414285D01*
X77102438Y-53414285D02*
X77054819Y-53319047D01*
X77054819Y-53319047D02*
X77054819Y-53128571D01*
X77054819Y-53128571D02*
X77102438Y-53033333D01*
X77102438Y-53033333D02*
X77150057Y-52985714D01*
X77150057Y-52985714D02*
X77245295Y-52938095D01*
X77245295Y-52938095D02*
X77292914Y-52938095D01*
X77292914Y-52938095D02*
X77388152Y-52985714D01*
X77388152Y-52985714D02*
X77435771Y-53033333D01*
X77435771Y-53033333D02*
X77483390Y-53128571D01*
X77483390Y-53128571D02*
X77483390Y-53319047D01*
X77483390Y-53319047D02*
X77531009Y-53414285D01*
X77531009Y-53414285D02*
X77578628Y-53461904D01*
X77578628Y-53461904D02*
X77673866Y-53509523D01*
X77673866Y-53509523D02*
X77864342Y-53509523D01*
X77864342Y-53509523D02*
X77959580Y-53461904D01*
X77959580Y-53461904D02*
X78007200Y-53414285D01*
X78007200Y-53414285D02*
X78054819Y-53319047D01*
X78054819Y-53319047D02*
X78054819Y-53128571D01*
X78054819Y-53128571D02*
X78007200Y-53033333D01*
X78007200Y-53033333D02*
X77959580Y-52985714D01*
X77959580Y-52985714D02*
X77864342Y-52938095D01*
X77864342Y-52938095D02*
X77673866Y-52938095D01*
X77673866Y-52938095D02*
X77578628Y-52985714D01*
X77578628Y-52985714D02*
X77531009Y-53033333D01*
X77531009Y-53033333D02*
X77483390Y-53128571D01*
X102083333Y-69859580D02*
X102035714Y-69907200D01*
X102035714Y-69907200D02*
X101892857Y-69954819D01*
X101892857Y-69954819D02*
X101797619Y-69954819D01*
X101797619Y-69954819D02*
X101654762Y-69907200D01*
X101654762Y-69907200D02*
X101559524Y-69811961D01*
X101559524Y-69811961D02*
X101511905Y-69716723D01*
X101511905Y-69716723D02*
X101464286Y-69526247D01*
X101464286Y-69526247D02*
X101464286Y-69383390D01*
X101464286Y-69383390D02*
X101511905Y-69192914D01*
X101511905Y-69192914D02*
X101559524Y-69097676D01*
X101559524Y-69097676D02*
X101654762Y-69002438D01*
X101654762Y-69002438D02*
X101797619Y-68954819D01*
X101797619Y-68954819D02*
X101892857Y-68954819D01*
X101892857Y-68954819D02*
X102035714Y-69002438D01*
X102035714Y-69002438D02*
X102083333Y-69050057D01*
X102940476Y-69288152D02*
X102940476Y-69954819D01*
X102702381Y-68907200D02*
X102464286Y-69621485D01*
X102464286Y-69621485D02*
X103083333Y-69621485D01*
X99189580Y-72904166D02*
X99237200Y-72951785D01*
X99237200Y-72951785D02*
X99284819Y-73094642D01*
X99284819Y-73094642D02*
X99284819Y-73189880D01*
X99284819Y-73189880D02*
X99237200Y-73332737D01*
X99237200Y-73332737D02*
X99141961Y-73427975D01*
X99141961Y-73427975D02*
X99046723Y-73475594D01*
X99046723Y-73475594D02*
X98856247Y-73523213D01*
X98856247Y-73523213D02*
X98713390Y-73523213D01*
X98713390Y-73523213D02*
X98522914Y-73475594D01*
X98522914Y-73475594D02*
X98427676Y-73427975D01*
X98427676Y-73427975D02*
X98332438Y-73332737D01*
X98332438Y-73332737D02*
X98284819Y-73189880D01*
X98284819Y-73189880D02*
X98284819Y-73094642D01*
X98284819Y-73094642D02*
X98332438Y-72951785D01*
X98332438Y-72951785D02*
X98380057Y-72904166D01*
X98380057Y-72523213D02*
X98332438Y-72475594D01*
X98332438Y-72475594D02*
X98284819Y-72380356D01*
X98284819Y-72380356D02*
X98284819Y-72142261D01*
X98284819Y-72142261D02*
X98332438Y-72047023D01*
X98332438Y-72047023D02*
X98380057Y-71999404D01*
X98380057Y-71999404D02*
X98475295Y-71951785D01*
X98475295Y-71951785D02*
X98570533Y-71951785D01*
X98570533Y-71951785D02*
X98713390Y-71999404D01*
X98713390Y-71999404D02*
X99284819Y-72570832D01*
X99284819Y-72570832D02*
X99284819Y-71951785D01*
X111773809Y-56204819D02*
X111964285Y-56204819D01*
X111964285Y-56204819D02*
X112059523Y-56252438D01*
X112059523Y-56252438D02*
X112154761Y-56347676D01*
X112154761Y-56347676D02*
X112202380Y-56538152D01*
X112202380Y-56538152D02*
X112202380Y-56871485D01*
X112202380Y-56871485D02*
X112154761Y-57061961D01*
X112154761Y-57061961D02*
X112059523Y-57157200D01*
X112059523Y-57157200D02*
X111964285Y-57204819D01*
X111964285Y-57204819D02*
X111773809Y-57204819D01*
X111773809Y-57204819D02*
X111678571Y-57157200D01*
X111678571Y-57157200D02*
X111583333Y-57061961D01*
X111583333Y-57061961D02*
X111535714Y-56871485D01*
X111535714Y-56871485D02*
X111535714Y-56538152D01*
X111535714Y-56538152D02*
X111583333Y-56347676D01*
X111583333Y-56347676D02*
X111678571Y-56252438D01*
X111678571Y-56252438D02*
X111773809Y-56204819D01*
X112630952Y-57204819D02*
X112630952Y-56204819D01*
X112630952Y-56585771D02*
X112726190Y-56538152D01*
X112726190Y-56538152D02*
X112916666Y-56538152D01*
X112916666Y-56538152D02*
X113011904Y-56585771D01*
X113011904Y-56585771D02*
X113059523Y-56633390D01*
X113059523Y-56633390D02*
X113107142Y-56728628D01*
X113107142Y-56728628D02*
X113107142Y-57014342D01*
X113107142Y-57014342D02*
X113059523Y-57109580D01*
X113059523Y-57109580D02*
X113011904Y-57157200D01*
X113011904Y-57157200D02*
X112916666Y-57204819D01*
X112916666Y-57204819D02*
X112726190Y-57204819D01*
X112726190Y-57204819D02*
X112630952Y-57157200D01*
X113535714Y-56538152D02*
X113535714Y-57395295D01*
X113535714Y-57395295D02*
X113488095Y-57490533D01*
X113488095Y-57490533D02*
X113392857Y-57538152D01*
X113392857Y-57538152D02*
X113345238Y-57538152D01*
X113535714Y-56204819D02*
X113488095Y-56252438D01*
X113488095Y-56252438D02*
X113535714Y-56300057D01*
X113535714Y-56300057D02*
X113583333Y-56252438D01*
X113583333Y-56252438D02*
X113535714Y-56204819D01*
X113535714Y-56204819D02*
X113535714Y-56300057D01*
X114392856Y-57157200D02*
X114297618Y-57204819D01*
X114297618Y-57204819D02*
X114107142Y-57204819D01*
X114107142Y-57204819D02*
X114011904Y-57157200D01*
X114011904Y-57157200D02*
X113964285Y-57061961D01*
X113964285Y-57061961D02*
X113964285Y-56681009D01*
X113964285Y-56681009D02*
X114011904Y-56585771D01*
X114011904Y-56585771D02*
X114107142Y-56538152D01*
X114107142Y-56538152D02*
X114297618Y-56538152D01*
X114297618Y-56538152D02*
X114392856Y-56585771D01*
X114392856Y-56585771D02*
X114440475Y-56681009D01*
X114440475Y-56681009D02*
X114440475Y-56776247D01*
X114440475Y-56776247D02*
X113964285Y-56871485D01*
X115297618Y-57157200D02*
X115202380Y-57204819D01*
X115202380Y-57204819D02*
X115011904Y-57204819D01*
X115011904Y-57204819D02*
X114916666Y-57157200D01*
X114916666Y-57157200D02*
X114869047Y-57109580D01*
X114869047Y-57109580D02*
X114821428Y-57014342D01*
X114821428Y-57014342D02*
X114821428Y-56728628D01*
X114821428Y-56728628D02*
X114869047Y-56633390D01*
X114869047Y-56633390D02*
X114916666Y-56585771D01*
X114916666Y-56585771D02*
X115011904Y-56538152D01*
X115011904Y-56538152D02*
X115202380Y-56538152D01*
X115202380Y-56538152D02*
X115297618Y-56585771D01*
X115583333Y-56538152D02*
X115964285Y-56538152D01*
X115726190Y-56204819D02*
X115726190Y-57061961D01*
X115726190Y-57061961D02*
X115773809Y-57157200D01*
X115773809Y-57157200D02*
X115869047Y-57204819D01*
X115869047Y-57204819D02*
X115964285Y-57204819D01*
X116297619Y-57204819D02*
X116297619Y-56538152D01*
X116297619Y-56204819D02*
X116250000Y-56252438D01*
X116250000Y-56252438D02*
X116297619Y-56300057D01*
X116297619Y-56300057D02*
X116345238Y-56252438D01*
X116345238Y-56252438D02*
X116297619Y-56204819D01*
X116297619Y-56204819D02*
X116297619Y-56300057D01*
X116678571Y-56538152D02*
X116916666Y-57204819D01*
X116916666Y-57204819D02*
X117154761Y-56538152D01*
X117916666Y-57157200D02*
X117821428Y-57204819D01*
X117821428Y-57204819D02*
X117630952Y-57204819D01*
X117630952Y-57204819D02*
X117535714Y-57157200D01*
X117535714Y-57157200D02*
X117488095Y-57061961D01*
X117488095Y-57061961D02*
X117488095Y-56681009D01*
X117488095Y-56681009D02*
X117535714Y-56585771D01*
X117535714Y-56585771D02*
X117630952Y-56538152D01*
X117630952Y-56538152D02*
X117821428Y-56538152D01*
X117821428Y-56538152D02*
X117916666Y-56585771D01*
X117916666Y-56585771D02*
X117964285Y-56681009D01*
X117964285Y-56681009D02*
X117964285Y-56776247D01*
X117964285Y-56776247D02*
X117488095Y-56871485D01*
D10*
%TO.C,J8*%
X64270000Y-67870000D02*
X64270000Y-70470000D01*
X64270000Y-67870000D02*
X66930000Y-67870000D01*
X64270000Y-70470000D02*
X66930000Y-70470000D01*
X65600000Y-65270000D02*
X66930000Y-65270000D01*
X66930000Y-65270000D02*
X66930000Y-66600000D01*
X66930000Y-67870000D02*
X66930000Y-70470000D01*
%TO.C,R23*%
X86477500Y-34342224D02*
X86477500Y-33832776D01*
X87522500Y-34342224D02*
X87522500Y-33832776D01*
%TO.C,C12*%
X114566233Y-68440000D02*
X114858767Y-68440000D01*
X114566233Y-69460000D02*
X114858767Y-69460000D01*
%TO.C,L2*%
X91590000Y-50290000D02*
X91590000Y-51090000D01*
X91590000Y-50290000D02*
X96710000Y-50290000D01*
X91590000Y-54910000D02*
X91590000Y-54110000D01*
X91590000Y-54910000D02*
X96710000Y-54910000D01*
X96710000Y-50290000D02*
X96710000Y-51090000D01*
X96710000Y-54910000D02*
X96710000Y-54110000D01*
%TO.C,Q1*%
X69270000Y-72340000D02*
X67870000Y-72340000D01*
X67870000Y-74660000D02*
X69770000Y-74660000D01*
%TO.C,C17*%
X98710000Y-51791233D02*
X98710000Y-52083767D01*
X97690000Y-51791233D02*
X97690000Y-52083767D01*
%TO.C,C3*%
X89135000Y-63548733D02*
X89135000Y-63841267D01*
X88115000Y-63548733D02*
X88115000Y-63841267D01*
%TO.C,J1*%
X68530000Y-34930000D02*
X68530000Y-32330000D01*
X68530000Y-34930000D02*
X65870000Y-34930000D01*
X68530000Y-32330000D02*
X65870000Y-32330000D01*
X67200000Y-37530000D02*
X65870000Y-37530000D01*
X65870000Y-37530000D02*
X65870000Y-36200000D01*
X65870000Y-34930000D02*
X65870000Y-32330000D01*
%TO.C,R30*%
X79302500Y-57549724D02*
X79302500Y-57040276D01*
X80347500Y-57549724D02*
X80347500Y-57040276D01*
%TO.C,K1*%
X49600000Y-77140000D02*
X49600000Y-76440000D01*
X50400000Y-77140000D02*
X49600000Y-77140000D01*
X49700000Y-77040000D02*
X49700000Y-70740000D01*
X50400000Y-77040000D02*
X49700000Y-77040000D01*
X53600000Y-77040000D02*
X51600000Y-77040000D01*
X55800000Y-77040000D02*
X54800000Y-77040000D01*
X58000000Y-77040000D02*
X57000000Y-77040000D01*
X59200000Y-77040000D02*
X59900000Y-77040000D01*
X50400000Y-74240000D02*
X51600000Y-74240000D01*
X51000000Y-74240000D02*
X51000000Y-75340000D01*
X51200000Y-74240000D02*
X50800000Y-73540000D01*
X51600000Y-74240000D02*
X51600000Y-73540000D01*
X50400000Y-73540000D02*
X50400000Y-74240000D01*
X51000000Y-73540000D02*
X51000000Y-72440000D01*
X51600000Y-73540000D02*
X50400000Y-73540000D01*
X49700000Y-70740000D02*
X50400000Y-70740000D01*
X51600000Y-70740000D02*
X53600000Y-70740000D01*
X54800000Y-70740000D02*
X55800000Y-70740000D01*
X57000000Y-70740000D02*
X58000000Y-70740000D01*
X59200000Y-70740000D02*
X59900000Y-70740000D01*
X59900000Y-70740000D02*
X59900000Y-77040000D01*
%TO.C,J5*%
X67970000Y-67870000D02*
X67970000Y-70470000D01*
X67970000Y-67870000D02*
X70630000Y-67870000D01*
X67970000Y-70470000D02*
X70630000Y-70470000D01*
X69300000Y-65270000D02*
X70630000Y-65270000D01*
X70630000Y-65270000D02*
X70630000Y-66600000D01*
X70630000Y-67870000D02*
X70630000Y-70470000D01*
%TO.C,R7*%
X113992224Y-52972500D02*
X113482776Y-52972500D01*
X113992224Y-51927500D02*
X113482776Y-51927500D01*
%TO.C,R33*%
X83402500Y-68749724D02*
X83402500Y-68240276D01*
X84447500Y-68749724D02*
X84447500Y-68240276D01*
%TO.C,J14*%
X50870000Y-34730000D02*
X53470000Y-34730000D01*
X50870000Y-34730000D02*
X50870000Y-32070000D01*
X53470000Y-34730000D02*
X53470000Y-32070000D01*
X48270000Y-33400000D02*
X48270000Y-32070000D01*
X48270000Y-32070000D02*
X49600000Y-32070000D01*
X50870000Y-32070000D02*
X53470000Y-32070000D01*
%TO.C,R26*%
X86827500Y-45742224D02*
X86827500Y-45232776D01*
X87872500Y-45742224D02*
X87872500Y-45232776D01*
%TO.C,R10*%
X117927500Y-61854724D02*
X117927500Y-61345276D01*
X118972500Y-61854724D02*
X118972500Y-61345276D01*
%TO.C,R37*%
X85227500Y-45742224D02*
X85227500Y-45232776D01*
X86272500Y-45742224D02*
X86272500Y-45232776D01*
%TO.C,R35*%
X80202500Y-68774724D02*
X80202500Y-68265276D01*
X81247500Y-68774724D02*
X81247500Y-68265276D01*
%TO.C,U1*%
X98048084Y-70110000D02*
X99787500Y-70110000D01*
X98048084Y-64990000D02*
X98287500Y-64990000D01*
X94626916Y-70110000D02*
X94387500Y-70110000D01*
X94626916Y-64990000D02*
X94387500Y-64990000D01*
%TO.C,R3*%
X63367224Y-38122500D02*
X62857776Y-38122500D01*
X63367224Y-37077500D02*
X62857776Y-37077500D01*
%TO.C,J9*%
X88605000Y-58825000D02*
X88605000Y-56225000D01*
X88605000Y-58825000D02*
X85945000Y-58825000D01*
X88605000Y-56225000D02*
X85945000Y-56225000D01*
X87275000Y-61425000D02*
X85945000Y-61425000D01*
X85945000Y-61425000D02*
X85945000Y-60095000D01*
X85945000Y-58825000D02*
X85945000Y-56225000D01*
%TO.C,C21*%
X83883767Y-61605000D02*
X83591233Y-61605000D01*
X83883767Y-60585000D02*
X83591233Y-60585000D01*
%TO.C,C1*%
X108561000Y-38750241D02*
X108561000Y-38120241D01*
X108246000Y-38435241D02*
X108876000Y-38435241D01*
X107170000Y-35250000D02*
X113630000Y-35250000D01*
X107170000Y-35210000D02*
X113630000Y-35210000D01*
X107170000Y-35170000D02*
X113630000Y-35170000D01*
X107172000Y-35130000D02*
X113628000Y-35130000D01*
X107173000Y-35090000D02*
X113627000Y-35090000D01*
X107176000Y-35050000D02*
X113624000Y-35050000D01*
X107178000Y-35010000D02*
X109360000Y-35010000D01*
X111440000Y-35010000D02*
X113622000Y-35010000D01*
X107182000Y-34970000D02*
X109360000Y-34970000D01*
X111440000Y-34970000D02*
X113618000Y-34970000D01*
X107185000Y-34930000D02*
X109360000Y-34930000D01*
X111440000Y-34930000D02*
X113615000Y-34930000D01*
X107189000Y-34890000D02*
X109360000Y-34890000D01*
X111440000Y-34890000D02*
X113611000Y-34890000D01*
X107194000Y-34850000D02*
X109360000Y-34850000D01*
X111440000Y-34850000D02*
X113606000Y-34850000D01*
X107199000Y-34810000D02*
X109360000Y-34810000D01*
X111440000Y-34810000D02*
X113601000Y-34810000D01*
X107205000Y-34770000D02*
X109360000Y-34770000D01*
X111440000Y-34770000D02*
X113595000Y-34770000D01*
X107211000Y-34730000D02*
X109360000Y-34730000D01*
X111440000Y-34730000D02*
X113589000Y-34730000D01*
X107218000Y-34690000D02*
X109360000Y-34690000D01*
X111440000Y-34690000D02*
X113582000Y-34690000D01*
X107225000Y-34650000D02*
X109360000Y-34650000D01*
X111440000Y-34650000D02*
X113575000Y-34650000D01*
X107233000Y-34610000D02*
X109360000Y-34610000D01*
X111440000Y-34610000D02*
X113567000Y-34610000D01*
X107241000Y-34570000D02*
X109360000Y-34570000D01*
X111440000Y-34570000D02*
X113559000Y-34570000D01*
X107250000Y-34529000D02*
X109360000Y-34529000D01*
X111440000Y-34529000D02*
X113550000Y-34529000D01*
X107259000Y-34489000D02*
X109360000Y-34489000D01*
X111440000Y-34489000D02*
X113541000Y-34489000D01*
X107269000Y-34449000D02*
X109360000Y-34449000D01*
X111440000Y-34449000D02*
X113531000Y-34449000D01*
X107279000Y-34409000D02*
X109360000Y-34409000D01*
X111440000Y-34409000D02*
X113521000Y-34409000D01*
X107290000Y-34369000D02*
X109360000Y-34369000D01*
X111440000Y-34369000D02*
X113510000Y-34369000D01*
X107302000Y-34329000D02*
X109360000Y-34329000D01*
X111440000Y-34329000D02*
X113498000Y-34329000D01*
X107314000Y-34289000D02*
X109360000Y-34289000D01*
X111440000Y-34289000D02*
X113486000Y-34289000D01*
X107326000Y-34249000D02*
X109360000Y-34249000D01*
X111440000Y-34249000D02*
X113474000Y-34249000D01*
X107339000Y-34209000D02*
X109360000Y-34209000D01*
X111440000Y-34209000D02*
X113461000Y-34209000D01*
X107353000Y-34169000D02*
X109360000Y-34169000D01*
X111440000Y-34169000D02*
X113447000Y-34169000D01*
X107367000Y-34129000D02*
X109360000Y-34129000D01*
X111440000Y-34129000D02*
X113433000Y-34129000D01*
X107382000Y-34089000D02*
X109360000Y-34089000D01*
X111440000Y-34089000D02*
X113418000Y-34089000D01*
X107398000Y-34049000D02*
X109360000Y-34049000D01*
X111440000Y-34049000D02*
X113402000Y-34049000D01*
X107414000Y-34009000D02*
X109360000Y-34009000D01*
X111440000Y-34009000D02*
X113386000Y-34009000D01*
X107430000Y-33969000D02*
X109360000Y-33969000D01*
X111440000Y-33969000D02*
X113370000Y-33969000D01*
X107448000Y-33929000D02*
X109360000Y-33929000D01*
X111440000Y-33929000D02*
X113352000Y-33929000D01*
X107466000Y-33889000D02*
X109360000Y-33889000D01*
X111440000Y-33889000D02*
X113334000Y-33889000D01*
X107484000Y-33849000D02*
X109360000Y-33849000D01*
X111440000Y-33849000D02*
X113316000Y-33849000D01*
X107504000Y-33809000D02*
X109360000Y-33809000D01*
X111440000Y-33809000D02*
X113296000Y-33809000D01*
X107524000Y-33769000D02*
X109360000Y-33769000D01*
X111440000Y-33769000D02*
X113276000Y-33769000D01*
X107544000Y-33729000D02*
X109360000Y-33729000D01*
X111440000Y-33729000D02*
X113256000Y-33729000D01*
X107566000Y-33689000D02*
X109360000Y-33689000D01*
X111440000Y-33689000D02*
X113234000Y-33689000D01*
X107588000Y-33649000D02*
X109360000Y-33649000D01*
X111440000Y-33649000D02*
X113212000Y-33649000D01*
X107610000Y-33609000D02*
X109360000Y-33609000D01*
X111440000Y-33609000D02*
X113190000Y-33609000D01*
X107634000Y-33569000D02*
X109360000Y-33569000D01*
X111440000Y-33569000D02*
X113166000Y-33569000D01*
X107658000Y-33529000D02*
X109360000Y-33529000D01*
X111440000Y-33529000D02*
X113142000Y-33529000D01*
X107684000Y-33489000D02*
X109360000Y-33489000D01*
X111440000Y-33489000D02*
X113116000Y-33489000D01*
X107710000Y-33449000D02*
X109360000Y-33449000D01*
X111440000Y-33449000D02*
X113090000Y-33449000D01*
X107736000Y-33409000D02*
X109360000Y-33409000D01*
X111440000Y-33409000D02*
X113064000Y-33409000D01*
X107764000Y-33369000D02*
X109360000Y-33369000D01*
X111440000Y-33369000D02*
X113036000Y-33369000D01*
X107793000Y-33329000D02*
X109360000Y-33329000D01*
X111440000Y-33329000D02*
X113007000Y-33329000D01*
X107822000Y-33289000D02*
X109360000Y-33289000D01*
X111440000Y-33289000D02*
X112978000Y-33289000D01*
X107852000Y-33249000D02*
X109360000Y-33249000D01*
X111440000Y-33249000D02*
X112948000Y-33249000D01*
X107884000Y-33209000D02*
X109360000Y-33209000D01*
X111440000Y-33209000D02*
X112916000Y-33209000D01*
X107916000Y-33169000D02*
X109360000Y-33169000D01*
X111440000Y-33169000D02*
X112884000Y-33169000D01*
X107950000Y-33129000D02*
X109360000Y-33129000D01*
X111440000Y-33129000D02*
X112850000Y-33129000D01*
X107984000Y-33089000D02*
X109360000Y-33089000D01*
X111440000Y-33089000D02*
X112816000Y-33089000D01*
X108020000Y-33049000D02*
X109360000Y-33049000D01*
X111440000Y-33049000D02*
X112780000Y-33049000D01*
X108057000Y-33009000D02*
X109360000Y-33009000D01*
X111440000Y-33009000D02*
X112743000Y-33009000D01*
X108095000Y-32969000D02*
X109360000Y-32969000D01*
X111440000Y-32969000D02*
X112705000Y-32969000D01*
X108135000Y-32929000D02*
X112665000Y-32929000D01*
X108176000Y-32889000D02*
X112624000Y-32889000D01*
X108218000Y-32849000D02*
X112582000Y-32849000D01*
X108263000Y-32809000D02*
X112537000Y-32809000D01*
X108308000Y-32769000D02*
X112492000Y-32769000D01*
X108356000Y-32729000D02*
X112444000Y-32729000D01*
X108405000Y-32689000D02*
X112395000Y-32689000D01*
X108456000Y-32649000D02*
X112344000Y-32649000D01*
X108510000Y-32609000D02*
X112290000Y-32609000D01*
X108566000Y-32569000D02*
X112234000Y-32569000D01*
X108624000Y-32529000D02*
X112176000Y-32529000D01*
X108686000Y-32489000D02*
X112114000Y-32489000D01*
X108750000Y-32449000D02*
X112050000Y-32449000D01*
X108819000Y-32409000D02*
X111981000Y-32409000D01*
X108891000Y-32369000D02*
X111909000Y-32369000D01*
X108968000Y-32329000D02*
X111832000Y-32329000D01*
X109050000Y-32289000D02*
X111750000Y-32289000D01*
X109138000Y-32249000D02*
X111662000Y-32249000D01*
X109235000Y-32209000D02*
X111565000Y-32209000D01*
X109341000Y-32169000D02*
X111459000Y-32169000D01*
X109460000Y-32129000D02*
X111340000Y-32129000D01*
X109598000Y-32089000D02*
X111202000Y-32089000D01*
X109767000Y-32049000D02*
X111033000Y-32049000D01*
X109998000Y-32009000D02*
X110802000Y-32009000D01*
X113670000Y-35250000D02*
G75*
G03*
X113670000Y-35250000I-3270000J0D01*
G01*
%TO.C,C9*%
X112832621Y-75239000D02*
X112202621Y-75239000D01*
X112517621Y-75554000D02*
X112517621Y-74924000D01*
X109332380Y-76630000D02*
X109332380Y-70170000D01*
X109292380Y-76630000D02*
X109292380Y-70170000D01*
X109252380Y-76630000D02*
X109252380Y-70170000D01*
X109212380Y-76628000D02*
X109212380Y-70172000D01*
X109172380Y-76627000D02*
X109172380Y-70173000D01*
X109132380Y-76624000D02*
X109132380Y-70176000D01*
X109092380Y-76622000D02*
X109092380Y-74440000D01*
X109092380Y-72360000D02*
X109092380Y-70178000D01*
X109052380Y-76618000D02*
X109052380Y-74440000D01*
X109052380Y-72360000D02*
X109052380Y-70182000D01*
X109012380Y-76615000D02*
X109012380Y-74440000D01*
X109012380Y-72360000D02*
X109012380Y-70185000D01*
X108972380Y-76611000D02*
X108972380Y-74440000D01*
X108972380Y-72360000D02*
X108972380Y-70189000D01*
X108932380Y-76606000D02*
X108932380Y-74440000D01*
X108932380Y-72360000D02*
X108932380Y-70194000D01*
X108892380Y-76601000D02*
X108892380Y-74440000D01*
X108892380Y-72360000D02*
X108892380Y-70199000D01*
X108852380Y-76595000D02*
X108852380Y-74440000D01*
X108852380Y-72360000D02*
X108852380Y-70205000D01*
X108812380Y-76589000D02*
X108812380Y-74440000D01*
X108812380Y-72360000D02*
X108812380Y-70211000D01*
X108772380Y-76582000D02*
X108772380Y-74440000D01*
X108772380Y-72360000D02*
X108772380Y-70218000D01*
X108732380Y-76575000D02*
X108732380Y-74440000D01*
X108732380Y-72360000D02*
X108732380Y-70225000D01*
X108692380Y-76567000D02*
X108692380Y-74440000D01*
X108692380Y-72360000D02*
X108692380Y-70233000D01*
X108652380Y-76559000D02*
X108652380Y-74440000D01*
X108652380Y-72360000D02*
X108652380Y-70241000D01*
X108611380Y-76550000D02*
X108611380Y-74440000D01*
X108611380Y-72360000D02*
X108611380Y-70250000D01*
X108571380Y-76541000D02*
X108571380Y-74440000D01*
X108571380Y-72360000D02*
X108571380Y-70259000D01*
X108531380Y-76531000D02*
X108531380Y-74440000D01*
X108531380Y-72360000D02*
X108531380Y-70269000D01*
X108491380Y-76521000D02*
X108491380Y-74440000D01*
X108491380Y-72360000D02*
X108491380Y-70279000D01*
X108451380Y-76510000D02*
X108451380Y-74440000D01*
X108451380Y-72360000D02*
X108451380Y-70290000D01*
X108411380Y-76498000D02*
X108411380Y-74440000D01*
X108411380Y-72360000D02*
X108411380Y-70302000D01*
X108371380Y-76486000D02*
X108371380Y-74440000D01*
X108371380Y-72360000D02*
X108371380Y-70314000D01*
X108331380Y-76474000D02*
X108331380Y-74440000D01*
X108331380Y-72360000D02*
X108331380Y-70326000D01*
X108291380Y-76461000D02*
X108291380Y-74440000D01*
X108291380Y-72360000D02*
X108291380Y-70339000D01*
X108251380Y-76447000D02*
X108251380Y-74440000D01*
X108251380Y-72360000D02*
X108251380Y-70353000D01*
X108211380Y-76433000D02*
X108211380Y-74440000D01*
X108211380Y-72360000D02*
X108211380Y-70367000D01*
X108171380Y-76418000D02*
X108171380Y-74440000D01*
X108171380Y-72360000D02*
X108171380Y-70382000D01*
X108131380Y-76402000D02*
X108131380Y-74440000D01*
X108131380Y-72360000D02*
X108131380Y-70398000D01*
X108091380Y-76386000D02*
X108091380Y-74440000D01*
X108091380Y-72360000D02*
X108091380Y-70414000D01*
X108051380Y-76370000D02*
X108051380Y-74440000D01*
X108051380Y-72360000D02*
X108051380Y-70430000D01*
X108011380Y-76352000D02*
X108011380Y-74440000D01*
X108011380Y-72360000D02*
X108011380Y-70448000D01*
X107971380Y-76334000D02*
X107971380Y-74440000D01*
X107971380Y-72360000D02*
X107971380Y-70466000D01*
X107931380Y-76316000D02*
X107931380Y-74440000D01*
X107931380Y-72360000D02*
X107931380Y-70484000D01*
X107891380Y-76296000D02*
X107891380Y-74440000D01*
X107891380Y-72360000D02*
X107891380Y-70504000D01*
X107851380Y-76276000D02*
X107851380Y-74440000D01*
X107851380Y-72360000D02*
X107851380Y-70524000D01*
X107811380Y-76256000D02*
X107811380Y-74440000D01*
X107811380Y-72360000D02*
X107811380Y-70544000D01*
X107771380Y-76234000D02*
X107771380Y-74440000D01*
X107771380Y-72360000D02*
X107771380Y-70566000D01*
X107731380Y-76212000D02*
X107731380Y-74440000D01*
X107731380Y-72360000D02*
X107731380Y-70588000D01*
X107691380Y-76190000D02*
X107691380Y-74440000D01*
X107691380Y-72360000D02*
X107691380Y-70610000D01*
X107651380Y-76166000D02*
X107651380Y-74440000D01*
X107651380Y-72360000D02*
X107651380Y-70634000D01*
X107611380Y-76142000D02*
X107611380Y-74440000D01*
X107611380Y-72360000D02*
X107611380Y-70658000D01*
X107571380Y-76116000D02*
X107571380Y-74440000D01*
X107571380Y-72360000D02*
X107571380Y-70684000D01*
X107531380Y-76090000D02*
X107531380Y-74440000D01*
X107531380Y-72360000D02*
X107531380Y-70710000D01*
X107491380Y-76064000D02*
X107491380Y-74440000D01*
X107491380Y-72360000D02*
X107491380Y-70736000D01*
X107451380Y-76036000D02*
X107451380Y-74440000D01*
X107451380Y-72360000D02*
X107451380Y-70764000D01*
X107411380Y-76007000D02*
X107411380Y-74440000D01*
X107411380Y-72360000D02*
X107411380Y-70793000D01*
X107371380Y-75978000D02*
X107371380Y-74440000D01*
X107371380Y-72360000D02*
X107371380Y-70822000D01*
X107331380Y-75948000D02*
X107331380Y-74440000D01*
X107331380Y-72360000D02*
X107331380Y-70852000D01*
X107291380Y-75916000D02*
X107291380Y-74440000D01*
X107291380Y-72360000D02*
X107291380Y-70884000D01*
X107251380Y-75884000D02*
X107251380Y-74440000D01*
X107251380Y-72360000D02*
X107251380Y-70916000D01*
X107211380Y-75850000D02*
X107211380Y-74440000D01*
X107211380Y-72360000D02*
X107211380Y-70950000D01*
X107171380Y-75816000D02*
X107171380Y-74440000D01*
X107171380Y-72360000D02*
X107171380Y-70984000D01*
X107131380Y-75780000D02*
X107131380Y-74440000D01*
X107131380Y-72360000D02*
X107131380Y-71020000D01*
X107091380Y-75743000D02*
X107091380Y-74440000D01*
X107091380Y-72360000D02*
X107091380Y-71057000D01*
X107051380Y-75705000D02*
X107051380Y-74440000D01*
X107051380Y-72360000D02*
X107051380Y-71095000D01*
X107011380Y-75665000D02*
X107011380Y-71135000D01*
X106971380Y-75624000D02*
X106971380Y-71176000D01*
X106931380Y-75582000D02*
X106931380Y-71218000D01*
X106891380Y-75537000D02*
X106891380Y-71263000D01*
X106851380Y-75492000D02*
X106851380Y-71308000D01*
X106811380Y-75444000D02*
X106811380Y-71356000D01*
X106771380Y-75395000D02*
X106771380Y-71405000D01*
X106731380Y-75344000D02*
X106731380Y-71456000D01*
X106691380Y-75290000D02*
X106691380Y-71510000D01*
X106651380Y-75234000D02*
X106651380Y-71566000D01*
X106611380Y-75176000D02*
X106611380Y-71624000D01*
X106571380Y-75114000D02*
X106571380Y-71686000D01*
X106531380Y-75050000D02*
X106531380Y-71750000D01*
X106491380Y-74981000D02*
X106491380Y-71819000D01*
X106451380Y-74909000D02*
X106451380Y-71891000D01*
X106411380Y-74832000D02*
X106411380Y-71968000D01*
X106371380Y-74750000D02*
X106371380Y-72050000D01*
X106331380Y-74662000D02*
X106331380Y-72138000D01*
X106291380Y-74565000D02*
X106291380Y-72235000D01*
X106251380Y-74459000D02*
X106251380Y-72341000D01*
X106211380Y-74340000D02*
X106211380Y-72460000D01*
X106171380Y-74202000D02*
X106171380Y-72598000D01*
X106131380Y-74033000D02*
X106131380Y-72767000D01*
X106091380Y-73802000D02*
X106091380Y-72998000D01*
X112602380Y-73400000D02*
G75*
G03*
X112602380Y-73400000I-3270000J0D01*
G01*
%TO.C,R15*%
X93427500Y-45742224D02*
X93427500Y-45232776D01*
X94472500Y-45742224D02*
X94472500Y-45232776D01*
%TO.C,L5*%
X100140000Y-70360000D02*
X100290000Y-70360000D01*
X100140000Y-70360000D02*
X100140000Y-65840000D01*
X104660000Y-70360000D02*
X104510000Y-70360000D01*
X104660000Y-70360000D02*
X104660000Y-65840000D01*
X100140000Y-65840000D02*
X100290000Y-65840000D01*
X104660000Y-65840000D02*
X104510000Y-65840000D01*
%TO.C,R25*%
X88427500Y-45717224D02*
X88427500Y-45207776D01*
X89472500Y-45717224D02*
X89472500Y-45207776D01*
%TO.C,C7*%
X112796267Y-42360000D02*
X112503733Y-42360000D01*
X112796267Y-41340000D02*
X112503733Y-41340000D01*
%TO.C,R34*%
X81802500Y-68749724D02*
X81802500Y-68240276D01*
X82847500Y-68749724D02*
X82847500Y-68240276D01*
%TO.C,R19*%
X63122500Y-69557776D02*
X63122500Y-70067224D01*
X62077500Y-69557776D02*
X62077500Y-70067224D01*
%TO.C,C19*%
X72565000Y-62778767D02*
X72565000Y-62486233D01*
X73585000Y-62778767D02*
X73585000Y-62486233D01*
%TO.C,R14*%
X92877500Y-34342224D02*
X92877500Y-33832776D01*
X93922500Y-34342224D02*
X93922500Y-33832776D01*
%TO.C,C20*%
X90410000Y-74691233D02*
X90410000Y-74983767D01*
X89390000Y-74691233D02*
X89390000Y-74983767D01*
%TO.C,R31*%
X77702500Y-57574724D02*
X77702500Y-57065276D01*
X78747500Y-57574724D02*
X78747500Y-57065276D01*
%TO.C,C16*%
X81790000Y-51083767D02*
X81790000Y-50791233D01*
X82810000Y-51083767D02*
X82810000Y-50791233D01*
%TO.C,R9*%
X116277500Y-61904724D02*
X116277500Y-61395276D01*
X117322500Y-61904724D02*
X117322500Y-61395276D01*
%TO.C,R6*%
X63417224Y-36472500D02*
X62907776Y-36472500D01*
X63417224Y-35427500D02*
X62907776Y-35427500D01*
%TO.C,R1*%
X107072500Y-48595276D02*
X107072500Y-49104724D01*
X106027500Y-48595276D02*
X106027500Y-49104724D01*
%TO.C,R4*%
X105422500Y-48595276D02*
X105422500Y-49104724D01*
X104377500Y-48595276D02*
X104377500Y-49104724D01*
%TO.C,J3*%
X43570000Y-64470000D02*
X40970000Y-64470000D01*
X43570000Y-64470000D02*
X43570000Y-67130000D01*
X40970000Y-64470000D02*
X40970000Y-67130000D01*
X46170000Y-65800000D02*
X46170000Y-67130000D01*
X46170000Y-67130000D02*
X44840000Y-67130000D01*
X43570000Y-67130000D02*
X40970000Y-67130000D01*
%TO.C,R2*%
X105457776Y-50827500D02*
X105967224Y-50827500D01*
X105457776Y-51872500D02*
X105967224Y-51872500D01*
%TO.C,J17*%
X46070000Y-57070000D02*
X43470000Y-57070000D01*
X46070000Y-57070000D02*
X46070000Y-59730000D01*
X43470000Y-57070000D02*
X43470000Y-59730000D01*
X48670000Y-58400000D02*
X48670000Y-59730000D01*
X48670000Y-59730000D02*
X47340000Y-59730000D01*
X46070000Y-59730000D02*
X43470000Y-59730000D01*
%TO.C,C5*%
X109203733Y-39390000D02*
X109496267Y-39390000D01*
X109203733Y-40410000D02*
X109496267Y-40410000D01*
%TO.C,J12*%
X89455000Y-69870000D02*
X89455000Y-67270000D01*
X89455000Y-69870000D02*
X86795000Y-69870000D01*
X89455000Y-67270000D02*
X86795000Y-67270000D01*
X88125000Y-72470000D02*
X86795000Y-72470000D01*
X86795000Y-72470000D02*
X86795000Y-71140000D01*
X86795000Y-69870000D02*
X86795000Y-67270000D01*
%TO.C,J7*%
X97330000Y-35530000D02*
X97330000Y-32930000D01*
X97330000Y-35530000D02*
X94670000Y-35530000D01*
X97330000Y-32930000D02*
X94670000Y-32930000D01*
X96000000Y-38130000D02*
X94670000Y-38130000D01*
X94670000Y-38130000D02*
X94670000Y-36800000D01*
X94670000Y-35530000D02*
X94670000Y-32930000D01*
%TO.C,C11*%
X111203733Y-68540000D02*
X111496267Y-68540000D01*
X111203733Y-69560000D02*
X111496267Y-69560000D01*
%TO.C,R16*%
X91827500Y-45717224D02*
X91827500Y-45207776D01*
X92872500Y-45717224D02*
X92872500Y-45207776D01*
%TO.C,C22*%
X73415000Y-74178767D02*
X73415000Y-73886233D01*
X74435000Y-74178767D02*
X74435000Y-73886233D01*
%TO.C,D8*%
X46900000Y-66250000D02*
X46900000Y-69550000D01*
X46900000Y-66250000D02*
X52300000Y-66250000D01*
X46900000Y-69550000D02*
X52300000Y-69550000D01*
%TO.C,R21*%
X89677500Y-34342224D02*
X89677500Y-33832776D01*
X90722500Y-34342224D02*
X90722500Y-33832776D01*
%TO.C,R12*%
X109757776Y-57227500D02*
X110267224Y-57227500D01*
X109757776Y-58272500D02*
X110267224Y-58272500D01*
%TO.C,C24*%
X84733767Y-72110000D02*
X84441233Y-72110000D01*
X84733767Y-71090000D02*
X84441233Y-71090000D01*
%TO.C,D7*%
X45950000Y-77400000D02*
X49250000Y-77400000D01*
X45950000Y-77400000D02*
X45950000Y-72000000D01*
X49250000Y-77400000D02*
X49250000Y-72000000D01*
%TO.C,R8*%
X105107776Y-45427500D02*
X105617224Y-45427500D01*
X105107776Y-46472500D02*
X105617224Y-46472500D01*
%TO.C,R5*%
X108895276Y-52227500D02*
X109404724Y-52227500D01*
X108895276Y-53272500D02*
X109404724Y-53272500D01*
%TO.C,R28*%
X82502500Y-57549724D02*
X82502500Y-57040276D01*
X83547500Y-57549724D02*
X83547500Y-57040276D01*
D11*
%TO.C,U8*%
X79950000Y-64270000D02*
X79950000Y-64220000D01*
X79950000Y-64270000D02*
X75800000Y-64270000D01*
X79950000Y-64220000D02*
X81350000Y-64220000D01*
X79950000Y-59120000D02*
X79950000Y-59265000D01*
X79950000Y-59120000D02*
X75800000Y-59120000D01*
X75800000Y-64270000D02*
X75800000Y-64125000D01*
X75800000Y-59120000D02*
X75800000Y-59265000D01*
D10*
%TO.C,R32*%
X85002500Y-68749724D02*
X85002500Y-68240276D01*
X86047500Y-68749724D02*
X86047500Y-68240276D01*
%TO.C,R24*%
X84877500Y-34342224D02*
X84877500Y-33832776D01*
X85922500Y-34342224D02*
X85922500Y-33832776D01*
%TO.C,C10*%
X114003733Y-70340000D02*
X114296267Y-70340000D01*
X114003733Y-71360000D02*
X114296267Y-71360000D01*
%TO.C,U10*%
X44500000Y-56380000D02*
X71980000Y-56380000D01*
X71980000Y-56380000D02*
X71980000Y-38860000D01*
X71980000Y-38860000D02*
X44500000Y-38860000D01*
X44500000Y-38860000D02*
X44500000Y-56380000D01*
%TO.C,C14*%
X92683767Y-38510000D02*
X92391233Y-38510000D01*
X92683767Y-37490000D02*
X92391233Y-37490000D01*
%TO.C,C6*%
X100261000Y-65450241D02*
X100261000Y-64820241D01*
X99946000Y-65135241D02*
X100576000Y-65135241D01*
X98870000Y-61950000D02*
X105330000Y-61950000D01*
X98870000Y-61910000D02*
X105330000Y-61910000D01*
X98870000Y-61870000D02*
X105330000Y-61870000D01*
X98872000Y-61830000D02*
X105328000Y-61830000D01*
X98873000Y-61790000D02*
X105327000Y-61790000D01*
X98876000Y-61750000D02*
X105324000Y-61750000D01*
X98878000Y-61710000D02*
X101060000Y-61710000D01*
X103140000Y-61710000D02*
X105322000Y-61710000D01*
X98882000Y-61670000D02*
X101060000Y-61670000D01*
X103140000Y-61670000D02*
X105318000Y-61670000D01*
X98885000Y-61630000D02*
X101060000Y-61630000D01*
X103140000Y-61630000D02*
X105315000Y-61630000D01*
X98889000Y-61590000D02*
X101060000Y-61590000D01*
X103140000Y-61590000D02*
X105311000Y-61590000D01*
X98894000Y-61550000D02*
X101060000Y-61550000D01*
X103140000Y-61550000D02*
X105306000Y-61550000D01*
X98899000Y-61510000D02*
X101060000Y-61510000D01*
X103140000Y-61510000D02*
X105301000Y-61510000D01*
X98905000Y-61470000D02*
X101060000Y-61470000D01*
X103140000Y-61470000D02*
X105295000Y-61470000D01*
X98911000Y-61430000D02*
X101060000Y-61430000D01*
X103140000Y-61430000D02*
X105289000Y-61430000D01*
X98918000Y-61390000D02*
X101060000Y-61390000D01*
X103140000Y-61390000D02*
X105282000Y-61390000D01*
X98925000Y-61350000D02*
X101060000Y-61350000D01*
X103140000Y-61350000D02*
X105275000Y-61350000D01*
X98933000Y-61310000D02*
X101060000Y-61310000D01*
X103140000Y-61310000D02*
X105267000Y-61310000D01*
X98941000Y-61270000D02*
X101060000Y-61270000D01*
X103140000Y-61270000D02*
X105259000Y-61270000D01*
X98950000Y-61229000D02*
X101060000Y-61229000D01*
X103140000Y-61229000D02*
X105250000Y-61229000D01*
X98959000Y-61189000D02*
X101060000Y-61189000D01*
X103140000Y-61189000D02*
X105241000Y-61189000D01*
X98969000Y-61149000D02*
X101060000Y-61149000D01*
X103140000Y-61149000D02*
X105231000Y-61149000D01*
X98979000Y-61109000D02*
X101060000Y-61109000D01*
X103140000Y-61109000D02*
X105221000Y-61109000D01*
X98990000Y-61069000D02*
X101060000Y-61069000D01*
X103140000Y-61069000D02*
X105210000Y-61069000D01*
X99002000Y-61029000D02*
X101060000Y-61029000D01*
X103140000Y-61029000D02*
X105198000Y-61029000D01*
X99014000Y-60989000D02*
X101060000Y-60989000D01*
X103140000Y-60989000D02*
X105186000Y-60989000D01*
X99026000Y-60949000D02*
X101060000Y-60949000D01*
X103140000Y-60949000D02*
X105174000Y-60949000D01*
X99039000Y-60909000D02*
X101060000Y-60909000D01*
X103140000Y-60909000D02*
X105161000Y-60909000D01*
X99053000Y-60869000D02*
X101060000Y-60869000D01*
X103140000Y-60869000D02*
X105147000Y-60869000D01*
X99067000Y-60829000D02*
X101060000Y-60829000D01*
X103140000Y-60829000D02*
X105133000Y-60829000D01*
X99082000Y-60789000D02*
X101060000Y-60789000D01*
X103140000Y-60789000D02*
X105118000Y-60789000D01*
X99098000Y-60749000D02*
X101060000Y-60749000D01*
X103140000Y-60749000D02*
X105102000Y-60749000D01*
X99114000Y-60709000D02*
X101060000Y-60709000D01*
X103140000Y-60709000D02*
X105086000Y-60709000D01*
X99130000Y-60669000D02*
X101060000Y-60669000D01*
X103140000Y-60669000D02*
X105070000Y-60669000D01*
X99148000Y-60629000D02*
X101060000Y-60629000D01*
X103140000Y-60629000D02*
X105052000Y-60629000D01*
X99166000Y-60589000D02*
X101060000Y-60589000D01*
X103140000Y-60589000D02*
X105034000Y-60589000D01*
X99184000Y-60549000D02*
X101060000Y-60549000D01*
X103140000Y-60549000D02*
X105016000Y-60549000D01*
X99204000Y-60509000D02*
X101060000Y-60509000D01*
X103140000Y-60509000D02*
X104996000Y-60509000D01*
X99224000Y-60469000D02*
X101060000Y-60469000D01*
X103140000Y-60469000D02*
X104976000Y-60469000D01*
X99244000Y-60429000D02*
X101060000Y-60429000D01*
X103140000Y-60429000D02*
X104956000Y-60429000D01*
X99266000Y-60389000D02*
X101060000Y-60389000D01*
X103140000Y-60389000D02*
X104934000Y-60389000D01*
X99288000Y-60349000D02*
X101060000Y-60349000D01*
X103140000Y-60349000D02*
X104912000Y-60349000D01*
X99310000Y-60309000D02*
X101060000Y-60309000D01*
X103140000Y-60309000D02*
X104890000Y-60309000D01*
X99334000Y-60269000D02*
X101060000Y-60269000D01*
X103140000Y-60269000D02*
X104866000Y-60269000D01*
X99358000Y-60229000D02*
X101060000Y-60229000D01*
X103140000Y-60229000D02*
X104842000Y-60229000D01*
X99384000Y-60189000D02*
X101060000Y-60189000D01*
X103140000Y-60189000D02*
X104816000Y-60189000D01*
X99410000Y-60149000D02*
X101060000Y-60149000D01*
X103140000Y-60149000D02*
X104790000Y-60149000D01*
X99436000Y-60109000D02*
X101060000Y-60109000D01*
X103140000Y-60109000D02*
X104764000Y-60109000D01*
X99464000Y-60069000D02*
X101060000Y-60069000D01*
X103140000Y-60069000D02*
X104736000Y-60069000D01*
X99493000Y-60029000D02*
X101060000Y-60029000D01*
X103140000Y-60029000D02*
X104707000Y-60029000D01*
X99522000Y-59989000D02*
X101060000Y-59989000D01*
X103140000Y-59989000D02*
X104678000Y-59989000D01*
X99552000Y-59949000D02*
X101060000Y-59949000D01*
X103140000Y-59949000D02*
X104648000Y-59949000D01*
X99584000Y-59909000D02*
X101060000Y-59909000D01*
X103140000Y-59909000D02*
X104616000Y-59909000D01*
X99616000Y-59869000D02*
X101060000Y-59869000D01*
X103140000Y-59869000D02*
X104584000Y-59869000D01*
X99650000Y-59829000D02*
X101060000Y-59829000D01*
X103140000Y-59829000D02*
X104550000Y-59829000D01*
X99684000Y-59789000D02*
X101060000Y-59789000D01*
X103140000Y-59789000D02*
X104516000Y-59789000D01*
X99720000Y-59749000D02*
X101060000Y-59749000D01*
X103140000Y-59749000D02*
X104480000Y-59749000D01*
X99757000Y-59709000D02*
X101060000Y-59709000D01*
X103140000Y-59709000D02*
X104443000Y-59709000D01*
X99795000Y-59669000D02*
X101060000Y-59669000D01*
X103140000Y-59669000D02*
X104405000Y-59669000D01*
X99835000Y-59629000D02*
X104365000Y-59629000D01*
X99876000Y-59589000D02*
X104324000Y-59589000D01*
X99918000Y-59549000D02*
X104282000Y-59549000D01*
X99963000Y-59509000D02*
X104237000Y-59509000D01*
X100008000Y-59469000D02*
X104192000Y-59469000D01*
X100056000Y-59429000D02*
X104144000Y-59429000D01*
X100105000Y-59389000D02*
X104095000Y-59389000D01*
X100156000Y-59349000D02*
X104044000Y-59349000D01*
X100210000Y-59309000D02*
X103990000Y-59309000D01*
X100266000Y-59269000D02*
X103934000Y-59269000D01*
X100324000Y-59229000D02*
X103876000Y-59229000D01*
X100386000Y-59189000D02*
X103814000Y-59189000D01*
X100450000Y-59149000D02*
X103750000Y-59149000D01*
X100519000Y-59109000D02*
X103681000Y-59109000D01*
X100591000Y-59069000D02*
X103609000Y-59069000D01*
X100668000Y-59029000D02*
X103532000Y-59029000D01*
X100750000Y-58989000D02*
X103450000Y-58989000D01*
X100838000Y-58949000D02*
X103362000Y-58949000D01*
X100935000Y-58909000D02*
X103265000Y-58909000D01*
X101041000Y-58869000D02*
X103159000Y-58869000D01*
X101160000Y-58829000D02*
X103040000Y-58829000D01*
X101298000Y-58789000D02*
X102902000Y-58789000D01*
X101467000Y-58749000D02*
X102733000Y-58749000D01*
X101698000Y-58709000D02*
X102502000Y-58709000D01*
X105370000Y-61950000D02*
G75*
G03*
X105370000Y-61950000I-3270000J0D01*
G01*
%TO.C,J4*%
X56880000Y-66595000D02*
X54280000Y-66595000D01*
X56880000Y-66595000D02*
X56880000Y-69255000D01*
X54280000Y-66595000D02*
X54280000Y-69255000D01*
X59480000Y-67925000D02*
X59480000Y-69255000D01*
X59480000Y-69255000D02*
X58150000Y-69255000D01*
X56880000Y-69255000D02*
X54280000Y-69255000D01*
%TO.C,J15*%
X47180000Y-35520000D02*
X47180000Y-32920000D01*
X47180000Y-35520000D02*
X44520000Y-35520000D01*
X47180000Y-32920000D02*
X44520000Y-32920000D01*
X45850000Y-38120000D02*
X44520000Y-38120000D01*
X44520000Y-38120000D02*
X44520000Y-36790000D01*
X44520000Y-35520000D02*
X44520000Y-32920000D01*
%TO.C,C18*%
X93108767Y-49910000D02*
X92816233Y-49910000D01*
X93108767Y-48890000D02*
X92816233Y-48890000D01*
%TO.C,R36*%
X78602500Y-68749724D02*
X78602500Y-68240276D01*
X79647500Y-68749724D02*
X79647500Y-68240276D01*
%TO.C,R27*%
X84102500Y-57549724D02*
X84102500Y-57040276D01*
X85147500Y-57549724D02*
X85147500Y-57040276D01*
%TO.C,C13*%
X98110000Y-40316233D02*
X98110000Y-40608767D01*
X97090000Y-40316233D02*
X97090000Y-40608767D01*
%TO.C,L3*%
X82265000Y-61985000D02*
X82265000Y-62785000D01*
X82265000Y-61985000D02*
X87385000Y-61985000D01*
X82265000Y-66605000D02*
X82265000Y-65805000D01*
X82265000Y-66605000D02*
X87385000Y-66605000D01*
X87385000Y-61985000D02*
X87385000Y-62785000D01*
X87385000Y-66605000D02*
X87385000Y-65805000D01*
%TO.C,J13*%
X62210000Y-32070000D02*
X54530000Y-32070000D01*
X62210000Y-32070000D02*
X62210000Y-34730000D01*
X54530000Y-32070000D02*
X54530000Y-34730000D01*
X64810000Y-33400000D02*
X64810000Y-34730000D01*
X64810000Y-34730000D02*
X63480000Y-34730000D01*
X62210000Y-34730000D02*
X54530000Y-34730000D01*
D11*
%TO.C,U6*%
X88875000Y-41175000D02*
X88875000Y-41125000D01*
X88875000Y-41175000D02*
X84725000Y-41175000D01*
X88875000Y-41125000D02*
X90275000Y-41125000D01*
X88875000Y-36025000D02*
X88875000Y-36170000D01*
X88875000Y-36025000D02*
X84725000Y-36025000D01*
X84725000Y-41175000D02*
X84725000Y-41030000D01*
X84725000Y-36025000D02*
X84725000Y-36170000D01*
D10*
%TO.C,R11*%
X114754724Y-59072500D02*
X114245276Y-59072500D01*
X114754724Y-58027500D02*
X114245276Y-58027500D01*
%TO.C,Je1*%
X97880000Y-47130000D02*
X97880000Y-44530000D01*
X97880000Y-47130000D02*
X95220000Y-47130000D01*
X97880000Y-44530000D02*
X95220000Y-44530000D01*
X96550000Y-49730000D02*
X95220000Y-49730000D01*
X95220000Y-49730000D02*
X95220000Y-48400000D01*
X95220000Y-47130000D02*
X95220000Y-44530000D01*
D11*
%TO.C,U9*%
X80800000Y-75670000D02*
X80800000Y-75620000D01*
X80800000Y-75670000D02*
X76650000Y-75670000D01*
X80800000Y-75620000D02*
X82200000Y-75620000D01*
X80800000Y-70520000D02*
X80800000Y-70665000D01*
X80800000Y-70520000D02*
X76650000Y-70520000D01*
X76650000Y-75670000D02*
X76650000Y-75525000D01*
X76650000Y-70520000D02*
X76650000Y-70665000D01*
D10*
%TO.C,R39*%
X77002500Y-68749724D02*
X77002500Y-68240276D01*
X78047500Y-68749724D02*
X78047500Y-68240276D01*
%TO.C,D2*%
X95150000Y-62310000D02*
X98450000Y-62310000D01*
X95150000Y-62310000D02*
X95150000Y-56800000D01*
X98450000Y-62310000D02*
X98450000Y-56800000D01*
D11*
%TO.C,U7*%
X89250000Y-52610000D02*
X89250000Y-52560000D01*
X89250000Y-52610000D02*
X85100000Y-52610000D01*
X89250000Y-52560000D02*
X90650000Y-52560000D01*
X89250000Y-47460000D02*
X89250000Y-47605000D01*
X89250000Y-47460000D02*
X85100000Y-47460000D01*
X85100000Y-52610000D02*
X85100000Y-52465000D01*
X85100000Y-47460000D02*
X85100000Y-47605000D01*
D10*
%TO.C,R22*%
X88077500Y-34342224D02*
X88077500Y-33832776D01*
X89122500Y-34342224D02*
X89122500Y-33832776D01*
%TO.C,U4*%
X107475000Y-42725000D02*
X115925000Y-42725000D01*
X107475000Y-50075000D02*
X107475000Y-42725000D01*
X108275000Y-50875000D02*
X107475000Y-50075000D01*
X115925000Y-42725000D02*
X115925000Y-50875000D01*
X115925000Y-50875000D02*
X108275000Y-50875000D01*
%TO.C,C15*%
X81500000Y-39883767D02*
X81500000Y-39591233D01*
X82520000Y-39883767D02*
X82520000Y-39591233D01*
%TO.C,R29*%
X80902500Y-57549724D02*
X80902500Y-57040276D01*
X81947500Y-57549724D02*
X81947500Y-57040276D01*
%TO.C,R13*%
X107222500Y-66257776D02*
X107222500Y-66767224D01*
X106177500Y-66257776D02*
X106177500Y-66767224D01*
%TO.C,L1*%
X91240000Y-38890000D02*
X91240000Y-39690000D01*
X91240000Y-38890000D02*
X96360000Y-38890000D01*
X91240000Y-43510000D02*
X91240000Y-42710000D01*
X91240000Y-43510000D02*
X96360000Y-43510000D01*
X96360000Y-38890000D02*
X96360000Y-39690000D01*
X96360000Y-43510000D02*
X96360000Y-42710000D01*
%TO.C,J16*%
X47070000Y-60670000D02*
X44470000Y-60670000D01*
X47070000Y-60670000D02*
X47070000Y-63330000D01*
X44470000Y-60670000D02*
X44470000Y-63330000D01*
X49670000Y-62000000D02*
X49670000Y-63330000D01*
X49670000Y-63330000D02*
X48340000Y-63330000D01*
X47070000Y-63330000D02*
X44470000Y-63330000D01*
%TO.C,U5*%
X116225000Y-68275000D02*
X107775000Y-68275000D01*
X116225000Y-60925000D02*
X116225000Y-68275000D01*
X115425000Y-60125000D02*
X116225000Y-60925000D01*
X107775000Y-68275000D02*
X107775000Y-60125000D01*
X107775000Y-60125000D02*
X115425000Y-60125000D01*
%TO.C,R18*%
X90027500Y-45742224D02*
X90027500Y-45232776D01*
X91072500Y-45742224D02*
X91072500Y-45232776D01*
%TO.C,C8*%
X109446267Y-42410000D02*
X109153733Y-42410000D01*
X109446267Y-41390000D02*
X109153733Y-41390000D01*
%TO.C,L4*%
X83215000Y-73090000D02*
X83215000Y-73890000D01*
X83215000Y-73090000D02*
X88335000Y-73090000D01*
X83215000Y-77710000D02*
X83215000Y-76910000D01*
X83215000Y-77710000D02*
X88335000Y-77710000D01*
X88335000Y-73090000D02*
X88335000Y-73890000D01*
X88335000Y-77710000D02*
X88335000Y-76910000D01*
%TO.C,R20*%
X91277500Y-34342224D02*
X91277500Y-33832776D01*
X92322500Y-34342224D02*
X92322500Y-33832776D01*
%TO.C,J11*%
X63230000Y-74165000D02*
X63230000Y-72835000D01*
X63230000Y-74165000D02*
X62660000Y-74165000D01*
X63230000Y-72835000D02*
X62207530Y-72835000D01*
X61900000Y-75560000D02*
X60570000Y-75560000D01*
X61592470Y-72835000D02*
X60570000Y-72835000D01*
X61140000Y-74165000D02*
X60570000Y-74165000D01*
X60570000Y-75560000D02*
X60570000Y-74800000D01*
X60570000Y-74165000D02*
X60570000Y-72835000D01*
%TO.C,R17*%
X61422500Y-69557776D02*
X61422500Y-70067224D01*
X60377500Y-69557776D02*
X60377500Y-70067224D01*
%TO.C,J10*%
X52050000Y-38330000D02*
X59730000Y-38330000D01*
X52050000Y-38330000D02*
X52050000Y-35670000D01*
X59730000Y-38330000D02*
X59730000Y-35670000D01*
X49450000Y-37000000D02*
X49450000Y-35670000D01*
X49450000Y-35670000D02*
X50780000Y-35670000D01*
X52050000Y-35670000D02*
X59730000Y-35670000D01*
%TO.C,J6*%
X55910000Y-59630000D02*
X66130000Y-59630000D01*
X55910000Y-59630000D02*
X55910000Y-56970000D01*
X66130000Y-59630000D02*
X66130000Y-56970000D01*
X53310000Y-58300000D02*
X53310000Y-56970000D01*
X53310000Y-56970000D02*
X54640000Y-56970000D01*
X55910000Y-56970000D02*
X66130000Y-56970000D01*
%TO.C,R38*%
X76102500Y-57574724D02*
X76102500Y-57065276D01*
X77147500Y-57574724D02*
X77147500Y-57065276D01*
%TO.C,C4*%
X98749759Y-72061000D02*
X99379759Y-72061000D01*
X99064759Y-71746000D02*
X99064759Y-72376000D01*
X102250000Y-70670000D02*
X102250000Y-77130000D01*
X102290000Y-70670000D02*
X102290000Y-77130000D01*
X102330000Y-70670000D02*
X102330000Y-77130000D01*
X102370000Y-70672000D02*
X102370000Y-77128000D01*
X102410000Y-70673000D02*
X102410000Y-77127000D01*
X102450000Y-70676000D02*
X102450000Y-77124000D01*
X102490000Y-70678000D02*
X102490000Y-72860000D01*
X102490000Y-74940000D02*
X102490000Y-77122000D01*
X102530000Y-70682000D02*
X102530000Y-72860000D01*
X102530000Y-74940000D02*
X102530000Y-77118000D01*
X102570000Y-70685000D02*
X102570000Y-72860000D01*
X102570000Y-74940000D02*
X102570000Y-77115000D01*
X102610000Y-70689000D02*
X102610000Y-72860000D01*
X102610000Y-74940000D02*
X102610000Y-77111000D01*
X102650000Y-70694000D02*
X102650000Y-72860000D01*
X102650000Y-74940000D02*
X102650000Y-77106000D01*
X102690000Y-70699000D02*
X102690000Y-72860000D01*
X102690000Y-74940000D02*
X102690000Y-77101000D01*
X102730000Y-70705000D02*
X102730000Y-72860000D01*
X102730000Y-74940000D02*
X102730000Y-77095000D01*
X102770000Y-70711000D02*
X102770000Y-72860000D01*
X102770000Y-74940000D02*
X102770000Y-77089000D01*
X102810000Y-70718000D02*
X102810000Y-72860000D01*
X102810000Y-74940000D02*
X102810000Y-77082000D01*
X102850000Y-70725000D02*
X102850000Y-72860000D01*
X102850000Y-74940000D02*
X102850000Y-77075000D01*
X102890000Y-70733000D02*
X102890000Y-72860000D01*
X102890000Y-74940000D02*
X102890000Y-77067000D01*
X102930000Y-70741000D02*
X102930000Y-72860000D01*
X102930000Y-74940000D02*
X102930000Y-77059000D01*
X102971000Y-70750000D02*
X102971000Y-72860000D01*
X102971000Y-74940000D02*
X102971000Y-77050000D01*
X103011000Y-70759000D02*
X103011000Y-72860000D01*
X103011000Y-74940000D02*
X103011000Y-77041000D01*
X103051000Y-70769000D02*
X103051000Y-72860000D01*
X103051000Y-74940000D02*
X103051000Y-77031000D01*
X103091000Y-70779000D02*
X103091000Y-72860000D01*
X103091000Y-74940000D02*
X103091000Y-77021000D01*
X103131000Y-70790000D02*
X103131000Y-72860000D01*
X103131000Y-74940000D02*
X103131000Y-77010000D01*
X103171000Y-70802000D02*
X103171000Y-72860000D01*
X103171000Y-74940000D02*
X103171000Y-76998000D01*
X103211000Y-70814000D02*
X103211000Y-72860000D01*
X103211000Y-74940000D02*
X103211000Y-76986000D01*
X103251000Y-70826000D02*
X103251000Y-72860000D01*
X103251000Y-74940000D02*
X103251000Y-76974000D01*
X103291000Y-70839000D02*
X103291000Y-72860000D01*
X103291000Y-74940000D02*
X103291000Y-76961000D01*
X103331000Y-70853000D02*
X103331000Y-72860000D01*
X103331000Y-74940000D02*
X103331000Y-76947000D01*
X103371000Y-70867000D02*
X103371000Y-72860000D01*
X103371000Y-74940000D02*
X103371000Y-76933000D01*
X103411000Y-70882000D02*
X103411000Y-72860000D01*
X103411000Y-74940000D02*
X103411000Y-76918000D01*
X103451000Y-70898000D02*
X103451000Y-72860000D01*
X103451000Y-74940000D02*
X103451000Y-76902000D01*
X103491000Y-70914000D02*
X103491000Y-72860000D01*
X103491000Y-74940000D02*
X103491000Y-76886000D01*
X103531000Y-70930000D02*
X103531000Y-72860000D01*
X103531000Y-74940000D02*
X103531000Y-76870000D01*
X103571000Y-70948000D02*
X103571000Y-72860000D01*
X103571000Y-74940000D02*
X103571000Y-76852000D01*
X103611000Y-70966000D02*
X103611000Y-72860000D01*
X103611000Y-74940000D02*
X103611000Y-76834000D01*
X103651000Y-70984000D02*
X103651000Y-72860000D01*
X103651000Y-74940000D02*
X103651000Y-76816000D01*
X103691000Y-71004000D02*
X103691000Y-72860000D01*
X103691000Y-74940000D02*
X103691000Y-76796000D01*
X103731000Y-71024000D02*
X103731000Y-72860000D01*
X103731000Y-74940000D02*
X103731000Y-76776000D01*
X103771000Y-71044000D02*
X103771000Y-72860000D01*
X103771000Y-74940000D02*
X103771000Y-76756000D01*
X103811000Y-71066000D02*
X103811000Y-72860000D01*
X103811000Y-74940000D02*
X103811000Y-76734000D01*
X103851000Y-71088000D02*
X103851000Y-72860000D01*
X103851000Y-74940000D02*
X103851000Y-76712000D01*
X103891000Y-71110000D02*
X103891000Y-72860000D01*
X103891000Y-74940000D02*
X103891000Y-76690000D01*
X103931000Y-71134000D02*
X103931000Y-72860000D01*
X103931000Y-74940000D02*
X103931000Y-76666000D01*
X103971000Y-71158000D02*
X103971000Y-72860000D01*
X103971000Y-74940000D02*
X103971000Y-76642000D01*
X104011000Y-71184000D02*
X104011000Y-72860000D01*
X104011000Y-74940000D02*
X104011000Y-76616000D01*
X104051000Y-71210000D02*
X104051000Y-72860000D01*
X104051000Y-74940000D02*
X104051000Y-76590000D01*
X104091000Y-71236000D02*
X104091000Y-72860000D01*
X104091000Y-74940000D02*
X104091000Y-76564000D01*
X104131000Y-71264000D02*
X104131000Y-72860000D01*
X104131000Y-74940000D02*
X104131000Y-76536000D01*
X104171000Y-71293000D02*
X104171000Y-72860000D01*
X104171000Y-74940000D02*
X104171000Y-76507000D01*
X104211000Y-71322000D02*
X104211000Y-72860000D01*
X104211000Y-74940000D02*
X104211000Y-76478000D01*
X104251000Y-71352000D02*
X104251000Y-72860000D01*
X104251000Y-74940000D02*
X104251000Y-76448000D01*
X104291000Y-71384000D02*
X104291000Y-72860000D01*
X104291000Y-74940000D02*
X104291000Y-76416000D01*
X104331000Y-71416000D02*
X104331000Y-72860000D01*
X104331000Y-74940000D02*
X104331000Y-76384000D01*
X104371000Y-71450000D02*
X104371000Y-72860000D01*
X104371000Y-74940000D02*
X104371000Y-76350000D01*
X104411000Y-71484000D02*
X104411000Y-72860000D01*
X104411000Y-74940000D02*
X104411000Y-76316000D01*
X104451000Y-71520000D02*
X104451000Y-72860000D01*
X104451000Y-74940000D02*
X104451000Y-76280000D01*
X104491000Y-71557000D02*
X104491000Y-72860000D01*
X104491000Y-74940000D02*
X104491000Y-76243000D01*
X104531000Y-71595000D02*
X104531000Y-72860000D01*
X104531000Y-74940000D02*
X104531000Y-76205000D01*
X104571000Y-71635000D02*
X104571000Y-76165000D01*
X104611000Y-71676000D02*
X104611000Y-76124000D01*
X104651000Y-71718000D02*
X104651000Y-76082000D01*
X104691000Y-71763000D02*
X104691000Y-76037000D01*
X104731000Y-71808000D02*
X104731000Y-75992000D01*
X104771000Y-71856000D02*
X104771000Y-75944000D01*
X104811000Y-71905000D02*
X104811000Y-75895000D01*
X104851000Y-71956000D02*
X104851000Y-75844000D01*
X104891000Y-72010000D02*
X104891000Y-75790000D01*
X104931000Y-72066000D02*
X104931000Y-75734000D01*
X104971000Y-72124000D02*
X104971000Y-75676000D01*
X105011000Y-72186000D02*
X105011000Y-75614000D01*
X105051000Y-72250000D02*
X105051000Y-75550000D01*
X105091000Y-72319000D02*
X105091000Y-75481000D01*
X105131000Y-72391000D02*
X105131000Y-75409000D01*
X105171000Y-72468000D02*
X105171000Y-75332000D01*
X105211000Y-72550000D02*
X105211000Y-75250000D01*
X105251000Y-72638000D02*
X105251000Y-75162000D01*
X105291000Y-72735000D02*
X105291000Y-75065000D01*
X105331000Y-72841000D02*
X105331000Y-74959000D01*
X105371000Y-72960000D02*
X105371000Y-74840000D01*
X105411000Y-73098000D02*
X105411000Y-74702000D01*
X105451000Y-73267000D02*
X105451000Y-74533000D01*
X105491000Y-73498000D02*
X105491000Y-74302000D01*
X105520000Y-73900000D02*
G75*
G03*
X105520000Y-73900000I-3270000J0D01*
G01*
%TO.C,C2*%
X97910000Y-72591233D02*
X97910000Y-72883767D01*
X96890000Y-72591233D02*
X96890000Y-72883767D01*
%TD*%
M02*
