M48
; DRILL file {KiCad 7.0.9} date Mon Apr 29 18:44:02 2024
; FORMAT={-:-/ absolute / metric / decimal}
; #@! TF.CreationDate,2024-04-29T18:44:02+03:00
; #@! TF.GenerationSoftware,Kicad,Pcbnew,7.0.9
; #@! TF.FileFunction,Plated,1,2,PTH
FMAT,2
METRIC
; #@! TA.AperFunction,Plated,PTH,ViaDrill
T1C0.400
; #@! TA.AperFunction,Plated,PTH,ComponentDrill
T2C0.400
; #@! TA.AperFunction,Plated,PTH,ComponentDrill
T3C0.700
; #@! TA.AperFunction,Plated,PTH,ComponentDrill
T4C0.800
; #@! TA.AperFunction,Plated,PTH,ComponentDrill
T5C1.000
; #@! TA.AperFunction,Plated,PTH,ComponentDrill
T6C1.100
%
G90
G05
T1
X38.4Y-61.15
X38.4Y-70.9
X38.65Y-46.75
X38.9Y-40.5
X38.9Y-54.0
X40.6Y-67.5
X41.031Y-64.382
X42.25Y-71.0
X43.1Y-46.2
X43.3Y-56.6
X43.5Y-67.55
X43.722Y-64.197
X43.8Y-51.4
X43.8Y-63.15
X43.89Y-60.317
X44.0Y-54.45
X44.15Y-32.7
X44.25Y-35.55
X44.95Y-43.05
X46.024Y-60.094
X46.15Y-56.7
X46.75Y-51.3
X46.8Y-54.35
X46.8Y-63.65
X47.65Y-32.75
X47.8Y-34.65
X49.25Y-41.7
X50.4Y-48.8
X50.4Y-50.4
X50.45Y-46.4
X50.895Y-35.112
X51.1Y-32.25
X52.75Y-58.45
X52.8Y-56.9
X53.0Y-50.8
X53.15Y-60.1
X53.189Y-44.092
X53.2Y-47.35
X53.5Y-74.5
X53.75Y-32.4
X53.75Y-35.1
X54.1Y-56.7
X54.1Y-65.95
X54.25Y-69.25
X54.55Y-60.1
X55.6Y-51.0
X55.75Y-48.25
X55.85Y-60.05
X56.404Y-65.972
X56.45Y-69.4
X57.15Y-32.25
X57.4Y-35.3
X57.4Y-45.0
X57.637Y-42.463
X58.85Y-49.85
X59.45Y-35.1
X59.65Y-32.25
X60.75Y-61.6
X60.9Y-65.3
X61.782Y-41.884
X62.1Y-46.8
X62.35Y-65.6
X62.5Y-61.7
X63.6Y-67.7
X63.85Y-69.5
X64.1Y-72.95
X64.2Y-49.15
X64.35Y-44.15
X64.9Y-61.65
X65.25Y-70.85
X65.55Y-73.0
X65.6Y-34.75
X65.95Y-32.4
X65.95Y-76.85
X66.65Y-58.4
X66.95Y-60.7
X67.035Y-50.357
X67.383Y-70.722
X67.5Y-67.9
X67.65Y-61.845
X68.4Y-46.1
X68.55Y-74.95
X68.55Y-76.65
X68.6Y-34.75
X68.8Y-32.55
X68.9Y-41.95
X69.0Y-61.6
X69.25Y-58.45
X70.2Y-71.25
X70.35Y-75.2
X70.6Y-35.2
X71.7Y-61.7
X72.35Y-49.3
X72.6Y-77.0
X73.1Y-34.0
X73.1Y-41.8
X73.2Y-70.4
X73.2Y-71.85
X73.25Y-66.55
X73.3Y-38.65
X73.6Y-65.25
X74.95Y-56.25
X75.0Y-57.85
X75.25Y-49.0
X75.35Y-35.75
X75.45Y-41.1
X75.6Y-38.5
X75.75Y-45.35
X75.75Y-65.65
X75.9Y-32.45
X76.2Y-76.95
X76.95Y-61.1
X77.9Y-72.7
X78.35Y-66.35
X78.4Y-51.3
X78.45Y-48.65
X78.55Y-63.45
X78.7Y-47.4
X79.55Y-75.05
X79.75Y-65.4
X80.25Y-76.7
X80.55Y-39.35
X80.6Y-38.1
X80.9Y-36.1
X81.3Y-48.95
X82.25Y-43.6
X82.35Y-62.25
X82.8Y-47.35
X83.35Y-32.2
X84.05Y-62.3
X84.45Y-73.3
X84.55Y-70.6
X84.9Y-66.25
X85.65Y-61.9
X85.8Y-76.8
X85.9Y-56.15
X85.95Y-38.65
X86.15Y-49.55
X86.25Y-73.25
X86.45Y-70.65
X86.55Y-43.55
X86.95Y-37.6
X87.0Y-66.8
X87.15Y-48.9
X87.6Y-40.6
X87.8Y-32.15
X88.3Y-51.3
X88.3Y-56.4
X88.75Y-66.3
X89.05Y-61.2
X89.05Y-77.05
X89.206Y-57.748
X89.8Y-43.4
X91.0Y-32.1
X91.25Y-74.45
X91.25Y-77.0
X92.5Y-36.9
X92.5Y-39.05
X92.8Y-50.65
X92.95Y-56.2
X93.15Y-43.4
X93.7Y-60.85
X93.75Y-57.4
X93.75Y-64.05
X93.8Y-70.45
X94.25Y-39.35
X94.4Y-37.1
X94.4Y-48.05
X94.65Y-75.95
X94.7Y-50.6
X94.7Y-56.2
X94.817Y-73.683
X94.9Y-32.3
X94.95Y-58.095
X95.35Y-64.15
X96.1Y-73.8
X96.4Y-44.0
X97.45Y-75.2
X97.8Y-64.05
X98.6Y-56.15
X98.85Y-74.05
X99.3Y-32.9
X99.5Y-37.35
X100.7Y-64.95
X102.25Y-34.95
X102.3Y-72.1
X102.35Y-75.45
X102.4Y-57.35
X103.1Y-50.9
X103.2Y-68.05
X103.322Y-48.593
X103.6Y-47.4
X103.65Y-64.95
X104.5Y-57.95
X104.6Y-43.7
X104.8Y-32.9
X104.95Y-40.65
X104.95Y-72.2
X105.25Y-75.45
X105.3Y-52.5
X105.3Y-54.2
X105.694Y-36.461
X105.794Y-58.883
X105.8Y-44.8
X105.805Y-56.795
X105.913Y-55.087
X106.45Y-72.55
X106.557Y-41.747
X106.7Y-60.0
X106.85Y-75.4
X107.1Y-56.9
X107.182Y-68.648
X107.2Y-39.8
X107.2Y-44.155
X107.25Y-53.6
X107.387Y-50.349
X107.45Y-40.9
X108.25Y-54.15
X109.15Y-72.35
X109.35Y-40.85
X109.35Y-75.3
X109.5Y-58.95
X111.15Y-54.275
X111.2Y-53.15
X113.6Y-54.3
X113.65Y-76.5
X113.75Y-39.95
X114.15Y-72.1
X114.2Y-57.1
X114.216Y-69.877
X114.55Y-32.9
X114.875Y-54.275
X114.953Y-41.764
X115.85Y-50.901
X116.0Y-72.1
X116.3Y-49.45
X116.4Y-70.3
X116.5Y-57.1
X116.55Y-42.95
X116.6Y-46.15
X116.7Y-58.6
X116.8Y-67.95
X116.9Y-48.3
X116.9Y-64.95
X117.0Y-66.35
X117.05Y-51.65
X118.0Y-57.7
X118.05Y-70.1
X118.55Y-63.95
X118.875Y-56.3
X118.9Y-39.6
X119.05Y-66.85
X119.1Y-58.85
X119.9Y-62.7
T2
X95.688Y-65.6
X95.688Y-66.9
X95.688Y-68.2
X95.688Y-69.5
X96.987Y-65.6
X96.987Y-66.9
X96.987Y-68.2
X96.987Y-69.5
X108.3Y-45.6
X108.3Y-48.0
X108.8Y-63.0
X108.8Y-65.4
X108.9Y-46.8
X109.4Y-64.2
X109.7Y-48.0
X109.9Y-45.6
X110.2Y-63.0
X110.2Y-65.4
X110.7Y-46.8
X111.2Y-64.2
X111.7Y-45.6
X111.7Y-48.0
X112.0Y-63.0
X112.0Y-65.4
X112.5Y-46.8
X113.0Y-64.2
X113.5Y-45.6
X113.5Y-48.0
X113.8Y-65.4
X114.0Y-63.0
X114.3Y-46.8
X114.8Y-64.2
X114.9Y-45.6
X114.9Y-48.0
X115.4Y-63.0
X115.4Y-65.4
T3
X51.0Y-71.36
X51.0Y-76.44
X54.2Y-71.36
X54.2Y-76.44
X56.4Y-71.36
X56.4Y-76.44
X58.6Y-71.36
X58.6Y-76.44
X61.9Y-73.53
X61.9Y-74.8
X108.76Y-55.425
X110.03Y-55.425
X111.3Y-55.425
X112.57Y-55.425
X113.84Y-55.425
X115.11Y-55.425
X116.38Y-55.425
X117.65Y-55.425
T4
X101.0Y-73.9
X102.1Y-60.7
X102.1Y-63.2
X103.5Y-73.9
X108.082Y-73.4
X110.4Y-34.0
X110.4Y-36.5
X110.582Y-73.4
T5
X42.3Y-65.8
X44.8Y-58.4
X44.84Y-65.8
X45.8Y-62.0
X45.85Y-34.25
X45.85Y-36.79
X47.34Y-58.4
X48.34Y-62.0
X49.6Y-33.4
X50.78Y-37.0
X52.14Y-33.4
X53.32Y-37.0
X54.64Y-58.3
X55.61Y-67.925
X55.86Y-33.4
X55.86Y-37.0
X57.18Y-58.3
X58.15Y-67.925
X58.4Y-33.4
X58.4Y-37.0
X59.72Y-58.3
X60.94Y-33.4
X62.26Y-58.3
X63.48Y-33.4
X64.8Y-58.3
X65.6Y-66.6
X65.6Y-69.14
X67.2Y-33.66
X67.2Y-36.2
X69.3Y-66.6
X69.3Y-69.14
X87.275Y-57.555
X87.275Y-60.095
X88.125Y-68.6
X88.125Y-71.14
X96.0Y-34.26
X96.0Y-36.8
X96.55Y-45.86
X96.55Y-48.4
T6
X45.44Y-52.7
X47.98Y-52.7
X50.52Y-40.0
X50.52Y-52.7
X50.52Y-55.24
X53.06Y-40.0
X53.06Y-52.7
X53.06Y-55.24
X55.6Y-40.0
X55.6Y-52.7
X55.6Y-55.24
X58.14Y-40.0
X58.14Y-52.7
X58.14Y-55.24
X60.68Y-40.0
X60.68Y-52.7
X60.68Y-55.24
X63.22Y-40.0
X63.22Y-52.7
X63.22Y-55.24
X65.76Y-40.0
X65.76Y-52.7
X65.76Y-55.24
X68.3Y-40.0
X68.3Y-52.7
X68.3Y-55.24
X70.84Y-40.0
X70.84Y-42.54
X70.84Y-45.08
X70.84Y-47.62
X70.84Y-50.16
X70.84Y-52.7
X70.84Y-55.24
T0
M30
